<svg width="163" height="44" viewBox="0 0 163 44" fill="none" xmlns="http://www.w3.org/2000/svg">
<path fill-rule="evenodd" clip-rule="evenodd" d="M43.1529 17.9461V29.5146C43.1529 36.9798 37.059 43.0607 29.5778 43.0607H13.6246C6.09392 43.0607 0 36.9798 0 29.5146V17.9461H9.51246V29.5146C9.51246 33.0247 12.386 35.8921 15.9036 35.8921H27.2492C30.7669 35.8921 33.6404 33.0247 33.6404 29.5146V17.9461H43.1529ZM18.4799 14.3371H24.7225C25.7134 14.3371 26.5556 15.1281 26.5556 16.1663V26.8944C26.5556 27.8831 25.7629 28.7236 24.7225 28.7236C22.6416 28.7236 20.5608 28.7236 18.4799 28.7236C17.4891 28.7236 16.6468 27.9326 16.6468 26.8944C16.6468 23.3348 16.6468 19.7258 16.6468 16.1663C16.6468 15.1775 17.4891 14.3371 18.4799 14.3371Z" fill="white"/>
<path fill-rule="evenodd" clip-rule="evenodd" d="M33.6896 0.642697C38.2972 2.12584 41.8643 5.98202 42.9048 10.7775H33.6896V0.642697ZM13.6242 0H26.5552V7.16854H15.9033C13.3765 7.16854 11.1966 8.65168 10.1561 10.7775H0.296875C1.58502 4.64719 7.08441 0 13.6242 0Z" fill="white"/>
<path fill-rule="evenodd" clip-rule="evenodd" d="M155.717 14.0405C160.325 14.0405 162.852 15.573 162.852 21.3573C162.852 27.2405 160.375 28.9708 155.717 28.9708C151.06 28.9708 148.583 27.2405 148.583 21.3573C148.583 15.573 151.06 14.0405 155.717 14.0405ZM107.016 14.3865V28.6742H113.506C118.113 28.6742 120.393 26.9933 120.393 21.4067C120.393 15.8202 118.163 14.3371 113.506 14.3371H107.016V14.3865ZM130.054 25.2135C127.874 25.2135 127.131 25.0157 126.932 23.0382V22.9888H132.828V19.627H126.982C127.23 17.9461 128.022 17.7978 130.054 17.7978H134.314V14.3371H129.558C124.901 14.3371 122.672 15.8202 122.672 21.4067C122.672 26.9933 124.951 28.6742 129.558 28.6742H134.314V25.2135H130.054ZM136.792 14.3865V21.4562C136.792 26.9933 139.021 28.6742 143.678 28.6742H146.849V25.2135H144.174C141.548 25.2135 141.003 24.8674 141.003 21.5056V14.3865H136.792ZM113.06 25.2135C115.686 25.2135 116.231 24.8674 116.231 21.5056C116.231 18.0944 115.636 17.8472 113.06 17.8472H111.029V25.2135H113.06ZM158.641 21.3573C158.641 25.0157 158.343 25.3618 155.717 25.3618C153.042 25.3618 152.745 25.0157 152.794 21.3573C152.794 17.9461 153.042 17.6494 155.717 17.6494C158.343 17.6494 158.641 17.9461 158.641 21.3573Z" fill="white"/>
<path fill-rule="evenodd" clip-rule="evenodd" d="M82.3423 23.0382C82.5405 25.0157 83.2836 25.2135 85.4636 25.2135H89.7243V28.6742H84.9681C80.3605 28.6742 78.0815 26.9933 78.0815 21.4067C78.0815 15.8202 80.311 14.3371 84.9681 14.3371H89.7243V17.7978H85.4636C83.4323 17.7978 82.6395 17.9461 82.3918 19.627H88.238V22.9888H82.3423V23.0382ZM64.2587 28.6742C59.6511 28.6742 57.3721 26.9933 57.3721 21.4067V14.3865H61.5833V21.5056C61.5833 24.818 62.1283 25.2135 64.655 25.2135V14.3865H68.569V25.2135C71.1453 25.2135 71.6903 24.818 71.6903 21.5056V14.3865H75.9016V21.4562C75.9016 27.0427 73.6721 28.7236 69.0149 28.7236C67.4791 28.6742 65.8937 28.6742 64.2587 28.6742ZM99.4845 17.6989H96.1155V19.7258H99.4845C99.8313 19.7258 100.079 19.627 100.079 18.7371C100.079 17.8966 99.8313 17.6989 99.4845 17.6989ZM96.1155 25.3124V22.8899H99.4845C99.98 22.8899 100.327 23.1371 100.327 24.1258C100.327 25.0652 100.03 25.3124 99.5836 25.3124H96.1155ZM104.34 17.8472C104.34 19.8742 103.795 21.0112 101.219 21.209C103.943 21.3573 104.538 22.5438 104.588 24.8674C104.588 27.7843 103.052 28.6742 100.723 28.6742H92.2016V14.3865H100.723C103.597 14.3865 104.34 15.4247 104.34 17.8472Z" fill="white"/>
<path fill-rule="evenodd" clip-rule="evenodd" d="M109.394 33.7663C110.087 33.7663 110.781 33.8652 111.177 34.0135L110.831 35.2C110.769 35.1913 110.703 35.1809 110.632 35.1699C110.304 35.1187 109.874 35.0517 109.344 35.0517C108.601 35.0517 108.502 35.2 108.502 35.3978C108.502 35.6944 108.601 35.7438 109.493 35.8427C110.682 35.991 111.227 36.4854 111.227 37.4742C111.227 38.8584 110.583 39.2539 108.849 39.2539C108.155 39.2539 107.511 39.1551 107.065 39.0067L107.362 37.7708C107.416 37.7784 107.474 37.7873 107.537 37.7967C107.879 37.8485 108.346 37.9191 108.849 37.9191C109.592 37.9191 109.691 37.8202 109.691 37.573C109.691 37.3258 109.592 37.227 108.601 37.1281C107.511 36.9798 107.016 36.6337 107.016 35.6449C107.016 34.3101 107.709 33.7663 109.394 33.7663ZM116.924 35.1506V39.1551H115.488V35.1506H113.754V33.8652H118.658V35.1506H116.924ZM124.554 33.9146H125.991V37.8202C125.991 38.9573 125.05 39.3034 123.712 39.3034C122.325 39.3034 121.433 39.0067 121.433 37.8202V33.9146H122.87V37.4742C122.87 37.7708 123.068 37.9191 123.712 37.9191C124.356 37.9191 124.554 37.7708 124.554 37.4742V33.9146ZM129.063 39.1551V33.9146H131.441C133.125 33.9146 133.968 34.4584 133.968 36.4854C133.968 38.5618 133.125 39.1551 131.441 39.1551H129.063ZM132.432 36.5348C132.432 37.7708 132.234 37.9191 131.243 37.9191H130.5V35.1506H131.243C132.234 35.1506 132.432 35.2494 132.432 36.5348ZM136.841 39.1551H138.278V33.9146H136.841V39.1551ZM144.223 33.7663C145.908 33.7663 146.849 34.3101 146.849 36.436C146.849 38.6112 145.957 39.2539 144.223 39.2539C142.539 39.2539 141.597 38.6112 141.597 36.436C141.597 34.3101 142.489 33.7663 144.223 33.7663ZM145.313 36.436C145.313 37.7708 145.214 37.9191 144.223 37.9191C143.232 37.9191 143.133 37.8202 143.133 36.436C143.133 35.1506 143.232 35.0517 144.223 35.0517C145.214 35.0517 145.313 35.2 145.313 36.436Z" fill="white"/>
</svg>
