<svg width="794" height="659" viewBox="0 0 794 659" fill="none" xmlns="http://www.w3.org/2000/svg">
<g opacity="0.5" filter="url(#filter0_i)">
<circle cx="533" cy="194" r="5" fill="url(#paint0_radial)"/>
<circle cx="533" cy="194" r="5" fill="url(#paint1_radial)" fill-opacity="0.03"/>
<circle cx="533" cy="194" r="5" fill="url(#paint2_radial)" fill-opacity="0.03"/>
</g>
<line x1="8.5" y1="548" x2="8.5" y2="612" stroke="#DD5E56"/>
<line x1="30.5" y1="573" x2="30.5" y2="631" stroke="#26BAB7"/>
<line x1="30.5" y1="573" x2="30.5" y2="631" stroke="white"/>
<line x1="72.5" y1="512" x2="72.5" y2="570" stroke="white"/>
<line x1="52.5" y1="589" x2="52.5" y2="631" stroke="#DD5E56"/>
<line x1="93.5" y1="519" x2="93.5" y2="571" stroke="#DD5E56"/>
<line x1="115.5" y1="526" x2="115.5" y2="585" stroke="white"/>
<line x1="157.5" y1="513" x2="157.5" y2="622" stroke="white"/>
<line x1="178.5" y1="359" x2="178.5" y2="568" stroke="white"/>
<line x1="201.5" y1="297" x2="201.5" y2="409" stroke="white"/>
<line x1="221.5" y1="233" x2="221.5" y2="320" stroke="white"/>
<line x1="242.5" y1="207" x2="242.5" y2="287" stroke="#DF5E5A"/>
<line x1="263.5" y1="184" x2="263.5" y2="264" stroke="white"/>
<line x1="306.5" y1="56" x2="306.5" y2="210" stroke="white"/>
<line x1="327.5" y1="48" x2="327.5" y2="133" stroke="#DF5E5A"/>
<line x1="349.5" y1="64" x2="349.5" y2="124" stroke="white"/>
<line x1="370.5" y1="-2.18557e-08" x2="370.5" y2="113" stroke="white"/>
<line x1="391.5" y1="24" x2="391.5" y2="141" stroke="#DF5E5A"/>
<line x1="412.5" y1="51" x2="412.5" y2="152" stroke="#DF5E5A"/>
<line x1="435.5" y1="83" x2="435.5" y2="163" stroke="#DF5E5A"/>
<line x1="456.5" y1="119" x2="456.5" y2="163" stroke="#DF5E5A"/>
<line x1="477.5" y1="152" x2="477.5" y2="297" stroke="#DF5E5A"/>
<line x1="497.5" y1="165" x2="497.5" y2="266" stroke="white"/>
<line x1="519.5" y1="165" x2="519.5" y2="199" stroke="#FBFFFF"/>
<line x1="541.5" y1="181" x2="541.5" y2="235" stroke="#DF5E5A"/>
<line x1="285.5" y1="172" x2="285.5" y2="220" stroke="#DF5E5A"/>
<line x1="136.5" y1="547" x2="136.5" y2="606" stroke="#DD5E56"/>
<line x1="562.5" y1="102" x2="562.5" y2="210" stroke="#FBFFFF"/>
<line x1="584.5" y1="91" x2="584.5" y2="156" stroke="#FBFFFF"/>
<line x1="605.5" y1="91" x2="605.5" y2="141" stroke="#DF5E5A"/>
<line x1="626.5" y1="125" x2="626.5" y2="175" stroke="#DF5E5A"/>
<line x1="646.5" y1="150" x2="646.5" y2="192" stroke="#DF5E5A"/>
<line x1="668.5" y1="139" x2="668.5" y2="178" stroke="#FBFFFF"/>
<line x1="689.5" y1="125" x2="689.5" y2="152" stroke="#FBFFFF"/>
<rect x="22" y="587" width="17" height="18" fill="white"/>
<rect x="64" y="522" width="17" height="78" fill="white"/>
<rect x="107" y="548" width="17" height="15" fill="white"/>
<rect x="149" y="541" width="17" height="61" fill="white"/>
<rect x="170" y="400" width="17" height="141" fill="white"/>
<circle cx="179" cy="529" r="5.5" stroke="#D1D1D1"/>
<circle cx="179" cy="529" r="2" fill="#D1D1D1"/>
<path d="M179.433 519.25C179.241 519.583 178.759 519.583 178.567 519.25L176.835 516.25C176.642 515.917 176.883 515.5 177.268 515.5L180.732 515.5C181.117 515.5 181.358 515.917 181.165 516.25L179.433 519.25Z" fill="white" stroke="#D1D1D1"/>
<path d="M178.567 538.75C178.759 538.417 179.241 538.417 179.433 538.75L181.165 541.75C181.358 542.083 181.117 542.5 180.732 542.5L177.268 542.5C176.883 542.5 176.642 542.083 176.835 541.75L178.567 538.75Z" fill="white" stroke="#D1D1D1"/>
<path d="M169.25 528.567C169.583 528.759 169.583 529.241 169.25 529.433L166.25 531.165C165.917 531.358 165.5 531.117 165.5 530.732L165.5 527.268C165.5 526.883 165.917 526.642 166.25 526.835L169.25 528.567Z" fill="white" stroke="#D1D1D1"/>
<path d="M187.75 529.433C187.417 529.241 187.417 528.759 187.75 528.567L190.75 526.835C191.083 526.642 191.5 526.883 191.5 527.268L191.5 530.732C191.5 531.117 191.083 531.358 190.75 531.165L187.75 529.433Z" fill="white" stroke="#D1D1D1"/>
<rect x="193" y="325" width="17" height="75" fill="white"/>
<rect x="213" y="240" width="17" height="85" fill="white"/>
<rect x="255" y="191" width="17" height="57" fill="white"/>
<rect x="298" y="69" width="17" height="125" fill="white"/>
<rect x="341" y="87" width="17" height="23" fill="white"/>
<rect x="362" y="45" width="17" height="42" fill="white"/>
<rect x="511" y="187" width="17" height="8" fill="white"/>
<rect x="489" y="191" width="17" height="73" fill="white"/>
<rect x="553" y="110" width="17" height="96" fill="white"/>
<rect x="575" y="91" width="17" height="19" fill="white"/>
<rect x="660" y="145" width="17" height="19" fill="white"/>
<rect x="681" y="142" width="17" height="8" fill="white"/>
<rect y="550" width="17" height="54" fill="#D05D5D"/>
<rect x="44" y="587" width="17" height="13" fill="#D05D5D"/>
<rect x="85" y="522" width="17" height="41" fill="#D05D5D"/>
<rect x="128" y="550" width="17" height="52" fill="#D05D5D"/>
<rect x="234" y="240" width="17" height="8" fill="#D05D5D"/>
<rect x="277" y="191" width="17" height="4" fill="#D05D5D"/>
<rect x="319" y="69" width="17" height="41" fill="#D05D5D"/>
<rect x="383" y="45" width="17" height="19" fill="#D05D5D"/>
<rect x="404" y="64" width="17" height="32" fill="#D05D5D"/>
<rect x="426" y="94" width="17" height="37" fill="#D05D5D"/>
<rect x="468" y="150" width="17" height="114" fill="#D05D5D"/>
<rect x="447" y="131" width="17" height="21" fill="#D05D5D"/>
<rect x="532" y="187" width="17" height="21" fill="#D05D5D"/>
<rect x="596" y="91" width="17" height="38" fill="#D05D5D"/>
<rect x="617" y="129" width="17" height="32" fill="#D05D5D"/>
<rect x="638" y="158" width="17" height="6" fill="#D05D5D"/>
<circle cx="497" cy="165" r="5.5" stroke="white"/>
<circle cx="497" cy="165" r="2" fill="white"/>
<path d="M497.866 155.5C497.481 156.167 496.519 156.167 496.134 155.5L494.402 152.5C494.017 151.833 494.498 151 495.268 151L498.732 151C499.502 151 499.983 151.833 499.598 152.5L497.866 155.5Z" fill="white"/>
<path d="M496.134 174.5C496.519 173.833 497.481 173.833 497.866 174.5L499.598 177.5C499.983 178.167 499.502 179 498.732 179L495.268 179C494.498 179 494.017 178.167 494.402 177.5L496.134 174.5Z" fill="white"/>
<path d="M487.5 164.134C488.167 164.519 488.167 165.481 487.5 165.866L484.5 167.598C483.833 167.983 483 167.502 483 166.732L483 163.268C483 162.498 483.833 162.017 484.5 162.402L487.5 164.134Z" fill="white"/>
<path d="M505.5 165.866C504.833 165.481 504.833 164.519 505.5 164.134L508.5 162.402C509.167 162.017 510 162.498 510 163.268L510 166.732C510 167.502 509.167 167.983 508.5 167.598L505.5 165.866Z" fill="white"/>
<line x1="480" y1="165.5" x2="393" y2="165.5" stroke="white" stroke-opacity="0.5" stroke-dasharray="3 3"/>
<line x1="306" y1="529.5" x2="194" y2="529.5" stroke="white" stroke-opacity="0.5" stroke-dasharray="3 3"/>
<line x1="184.623" y1="523.672" x2="491.89" y2="170.898" stroke="white" stroke-opacity="0.5" stroke-dasharray="3 3"/>
<g filter="url(#filter1_b)">
<rect x="309" y="164" width="84" height="365" fill="#052E5E" fill-opacity="0.29"/>
<rect x="309.5" y="164.5" width="83" height="364" stroke="#194170"/>
</g>
<line x1="309" y1="156.5" x2="393" y2="156.5" stroke="#042E5E" stroke-width="21"/>
<path d="M324.911 161H323.5V155.561L321.815 156.083V154.936L324.76 153.881H324.911V161ZM329.926 157.504L330.336 153.891H334.32V155.067H331.493L331.317 156.596C331.653 156.417 332.009 156.327 332.387 156.327C333.064 156.327 333.594 156.537 333.979 156.957C334.363 157.377 334.555 157.965 334.555 158.72C334.555 159.179 334.457 159.59 334.262 159.955C334.07 160.316 333.793 160.598 333.432 160.8C333.07 160.998 332.644 161.098 332.152 161.098C331.723 161.098 331.324 161.011 330.956 160.839C330.588 160.663 330.297 160.417 330.082 160.102C329.87 159.786 329.758 159.426 329.745 159.022H331.142C331.171 159.319 331.273 159.55 331.449 159.716C331.628 159.879 331.861 159.96 332.147 159.96C332.466 159.96 332.712 159.846 332.885 159.618C333.057 159.387 333.144 159.062 333.144 158.642C333.144 158.238 333.044 157.929 332.846 157.714C332.647 157.499 332.366 157.392 332.001 157.392C331.666 157.392 331.394 157.479 331.186 157.655L331.049 157.782L329.926 157.504ZM340.331 161H335.458V160.033L337.758 157.582C338.074 157.237 338.306 156.936 338.456 156.679C338.609 156.422 338.686 156.177 338.686 155.946C338.686 155.631 338.606 155.383 338.446 155.204C338.287 155.022 338.059 154.931 337.763 154.931C337.444 154.931 337.191 155.041 337.006 155.263C336.824 155.481 336.732 155.769 336.732 156.127H335.316C335.316 155.694 335.419 155.299 335.624 154.94C335.832 154.582 336.125 154.302 336.503 154.101C336.881 153.896 337.309 153.793 337.787 153.793C338.52 153.793 339.088 153.969 339.491 154.32C339.898 154.672 340.102 155.168 340.102 155.81C340.102 156.161 340.01 156.519 339.828 156.884C339.646 157.248 339.333 157.673 338.891 158.158L337.274 159.862H340.331V161ZM345.985 158.061C345.985 159.044 345.782 159.796 345.375 160.316C344.968 160.837 344.372 161.098 343.588 161.098C342.813 161.098 342.221 160.842 341.811 160.331C341.4 159.82 341.19 159.088 341.181 158.134V156.825C341.181 155.832 341.386 155.079 341.796 154.564C342.209 154.05 342.803 153.793 343.578 153.793C344.353 153.793 344.945 154.049 345.355 154.56C345.766 155.067 345.976 155.798 345.985 156.752V158.061ZM344.574 156.625C344.574 156.036 344.493 155.608 344.33 155.341C344.171 155.071 343.92 154.936 343.578 154.936C343.246 154.936 343 155.064 342.841 155.321C342.685 155.575 342.602 155.974 342.592 156.518V158.246C342.592 158.826 342.67 159.257 342.826 159.54C342.986 159.82 343.24 159.96 343.588 159.96C343.933 159.96 344.182 159.825 344.335 159.555C344.488 159.285 344.568 158.871 344.574 158.314V156.625ZM350.316 159.13C350.316 158.863 350.242 158.651 350.092 158.495C349.945 158.336 349.695 158.189 349.34 158.056C348.985 157.922 348.679 157.79 348.422 157.66C348.165 157.527 347.943 157.375 347.758 157.206C347.576 157.034 347.432 156.832 347.328 156.601C347.227 156.369 347.177 156.094 347.177 155.775C347.177 155.225 347.353 154.774 347.704 154.423C348.056 154.071 348.523 153.866 349.105 153.808V152.763H349.887V153.822C350.463 153.904 350.914 154.145 351.239 154.545C351.565 154.942 351.728 155.458 351.728 156.093H350.316C350.316 155.702 350.235 155.411 350.072 155.219C349.913 155.023 349.698 154.926 349.428 154.926C349.161 154.926 348.954 155.002 348.808 155.155C348.661 155.305 348.588 155.513 348.588 155.78C348.588 156.028 348.66 156.226 348.803 156.376C348.946 156.526 349.211 156.679 349.599 156.835C349.989 156.991 350.31 157.139 350.561 157.279C350.811 157.416 351.023 157.572 351.195 157.748C351.368 157.921 351.5 158.119 351.591 158.344C351.682 158.565 351.728 158.824 351.728 159.12C351.728 159.674 351.555 160.123 351.21 160.468C350.865 160.813 350.39 161.016 349.784 161.078V162.05H349.008V161.083C348.34 161.011 347.823 160.775 347.455 160.375C347.09 159.971 346.908 159.436 346.908 158.769H348.319C348.319 159.156 348.41 159.454 348.593 159.662C348.778 159.867 349.044 159.97 349.389 159.97C349.675 159.97 349.901 159.895 350.067 159.745C350.233 159.592 350.316 159.387 350.316 159.13ZM355.297 158.109C355.297 157.364 355.396 156.654 355.595 155.98C355.793 155.307 356.086 154.711 356.474 154.193C356.861 153.673 357.281 153.311 357.733 153.109L358.007 153.871C357.532 154.223 357.16 154.766 356.894 155.502C356.627 156.238 356.493 157.097 356.493 158.08V158.231C356.493 159.218 356.625 160.08 356.889 160.819C357.152 161.558 357.525 162.11 358.007 162.475L357.733 163.222C357.291 163.023 356.877 162.672 356.493 162.167C356.112 161.666 355.821 161.086 355.619 160.429C355.417 159.771 355.31 159.084 355.297 158.368V158.109ZM362.118 161H360.707V155.561L359.022 156.083V154.936L361.967 153.881H362.118V161ZM364.857 162.782L364.12 162.396L364.296 162.079C364.514 161.682 364.626 161.286 364.633 160.893V159.799H365.824L365.819 160.775C365.816 161.137 365.725 161.501 365.546 161.869C365.367 162.237 365.137 162.541 364.857 162.782ZM367.084 157.504L367.494 153.891H371.479V155.067H368.651L368.476 156.596C368.811 156.417 369.167 156.327 369.545 156.327C370.222 156.327 370.753 156.537 371.137 156.957C371.521 157.377 371.713 157.965 371.713 158.72C371.713 159.179 371.615 159.59 371.42 159.955C371.228 160.316 370.951 160.598 370.59 160.8C370.229 160.998 369.802 161.098 369.311 161.098C368.881 161.098 368.482 161.011 368.114 160.839C367.746 160.663 367.455 160.417 367.24 160.102C367.029 159.786 366.916 159.426 366.903 159.022H368.3C368.329 159.319 368.432 159.55 368.607 159.716C368.786 159.879 369.019 159.96 369.306 159.96C369.625 159.96 369.87 159.846 370.043 159.618C370.215 159.387 370.302 159.062 370.302 158.642C370.302 158.238 370.202 157.929 370.004 157.714C369.805 157.499 369.524 157.392 369.159 157.392C368.824 157.392 368.552 157.479 368.344 157.655L368.207 157.782L367.084 157.504ZM372.597 155.258C372.597 154.822 372.738 154.468 373.021 154.198C373.305 153.925 373.676 153.788 374.135 153.788C374.6 153.788 374.975 153.923 375.258 154.193C375.541 154.46 375.683 154.823 375.683 155.282V155.634C375.683 156.073 375.541 156.426 375.258 156.693C374.975 156.96 374.604 157.094 374.145 157.094C373.682 157.094 373.308 156.96 373.021 156.693C372.738 156.423 372.597 156.06 372.597 155.604V155.258ZM373.534 155.634C373.534 155.829 373.59 155.987 373.7 156.107C373.814 156.225 373.962 156.283 374.145 156.283C374.327 156.283 374.472 156.223 374.579 156.103C374.687 155.982 374.74 155.821 374.74 155.619V155.258C374.74 155.062 374.687 154.905 374.579 154.784C374.472 154.664 374.324 154.604 374.135 154.604C373.956 154.604 373.811 154.664 373.7 154.784C373.59 154.901 373.534 155.066 373.534 155.277V155.634ZM375.995 159.257C375.995 158.817 376.138 158.464 376.425 158.197C376.711 157.927 377.082 157.792 377.538 157.792C378 157.792 378.373 157.925 378.656 158.192C378.943 158.456 379.086 158.821 379.086 159.286V159.638C379.086 160.074 378.946 160.427 378.666 160.697C378.386 160.964 378.013 161.098 377.548 161.098C377.079 161.098 376.703 160.963 376.42 160.692C376.137 160.422 375.995 160.064 375.995 159.618V159.257ZM376.933 159.638C376.933 159.817 376.991 159.97 377.108 160.097C377.226 160.224 377.372 160.287 377.548 160.287C377.945 160.287 378.144 160.067 378.144 159.628V159.257C378.144 159.062 378.088 158.905 377.978 158.788C377.867 158.668 377.72 158.607 377.538 158.607C377.356 158.607 377.209 158.668 377.099 158.788C376.988 158.905 376.933 159.066 376.933 159.271V159.638ZM374.423 160.468L373.734 160.097L377.206 154.54L377.895 154.911L374.423 160.468ZM382.489 158.222C382.489 158.957 382.383 159.665 382.172 160.346C381.96 161.026 381.656 161.627 381.259 162.147C380.862 162.668 380.437 163.026 379.984 163.222L379.711 162.475C380.173 162.126 380.538 161.589 380.805 160.863C381.072 160.137 381.21 159.302 381.22 158.358V158.1C381.22 157.126 381.086 156.269 380.819 155.526C380.556 154.784 380.186 154.228 379.711 153.856L379.984 153.109C380.427 153.301 380.844 153.65 381.234 154.154C381.628 154.659 381.933 155.246 382.147 155.917C382.366 156.588 382.479 157.283 382.489 158.002V158.222Z" fill="white"/>
<line x1="309" y1="529.5" x2="393" y2="529.5" stroke="#042E5E" stroke-width="3"/>
<rect x="230" y="519" width="38" height="19" fill="white"/>
<path d="M239.635 533V525.891H242.125C242.988 525.891 243.642 526.057 244.088 526.389C244.534 526.717 244.757 527.201 244.757 527.839C244.757 528.187 244.667 528.495 244.488 528.762C244.309 529.025 244.06 529.219 243.741 529.343C244.106 529.434 244.392 529.618 244.601 529.895C244.812 530.171 244.918 530.51 244.918 530.91C244.918 531.594 244.7 532.111 244.264 532.463C243.827 532.814 243.206 532.993 242.398 533H239.635ZM241.1 529.904V531.823H242.354C242.7 531.823 242.968 531.742 243.16 531.579C243.355 531.413 243.453 531.185 243.453 530.896C243.453 530.244 243.116 529.914 242.442 529.904H241.1ZM241.1 528.869H242.184C242.923 528.856 243.292 528.562 243.292 527.985C243.292 527.663 243.198 527.432 243.009 527.292C242.823 527.149 242.529 527.077 242.125 527.077H241.1V528.869ZM251.402 525.891V530.573C251.402 531.351 251.158 531.966 250.67 532.419C250.185 532.871 249.521 533.098 248.678 533.098C247.848 533.098 247.188 532.878 246.7 532.438C246.212 531.999 245.963 531.395 245.953 530.627V525.891H247.418V530.583C247.418 531.049 247.529 531.389 247.75 531.604C247.975 531.815 248.284 531.921 248.678 531.921C249.501 531.921 249.92 531.488 249.933 530.622V525.891H251.402ZM255.055 529.094L256.534 525.891H258.136L255.802 530.422V533H254.312V530.422L251.979 525.891H253.585L255.055 529.094Z" fill="#50BA92"/>
<rect x="420" y="156" width="38" height="19" fill="white"/>
<path d="M432.321 168.135C432.321 167.858 432.224 167.646 432.028 167.5C431.833 167.35 431.481 167.194 430.974 167.031C430.466 166.865 430.064 166.702 429.768 166.543C428.96 166.107 428.557 165.519 428.557 164.78C428.557 164.396 428.664 164.054 428.879 163.755C429.097 163.452 429.408 163.216 429.812 163.047C430.218 162.878 430.674 162.793 431.179 162.793C431.687 162.793 432.139 162.886 432.536 163.071C432.933 163.254 433.241 163.512 433.459 163.848C433.68 164.183 433.791 164.564 433.791 164.99H432.326C432.326 164.665 432.224 164.412 432.019 164.233C431.813 164.051 431.525 163.96 431.154 163.96C430.796 163.96 430.518 164.036 430.319 164.189C430.121 164.339 430.021 164.538 430.021 164.785C430.021 165.016 430.137 165.21 430.368 165.366C430.603 165.522 430.946 165.669 431.398 165.806C432.232 166.056 432.839 166.367 433.22 166.738C433.601 167.109 433.791 167.572 433.791 168.125C433.791 168.74 433.558 169.224 433.093 169.575C432.627 169.924 432.001 170.098 431.213 170.098C430.666 170.098 430.168 169.998 429.719 169.8C429.27 169.598 428.926 169.323 428.688 168.975C428.454 168.626 428.337 168.223 428.337 167.764H429.807C429.807 168.548 430.275 168.94 431.213 168.94C431.561 168.94 431.833 168.87 432.028 168.73C432.224 168.587 432.321 168.389 432.321 168.135ZM439.064 166.919H436.252V168.823H439.553V170H434.787V162.891H439.543V164.077H436.252V165.771H439.064V166.919ZM441.877 168.823H444.987V170H440.412V162.891H441.877V168.823ZM447.297 168.823H450.407V170H445.832V162.891H447.297V168.823Z" fill="#D44E57"/>
<line x1="3" y1="142.5" x2="792" y2="142.5" stroke="white" stroke-opacity="0.5" stroke-dasharray="3 3"/>
<path d="M724.319 131.666C725.435 130.597 726.922 130 728.468 130H788C791.314 130 794 132.686 794 136V149C794 152.314 791.314 155 788 155H728.468C726.922 155 725.435 154.403 724.319 153.334L717.528 146.834C715.06 144.472 715.06 140.528 717.528 138.166L724.319 131.666Z" fill="white"/>
<path d="M733.693 142.504L734.104 138.891H738.088V140.067H735.261L735.085 141.596C735.42 141.417 735.777 141.327 736.154 141.327C736.831 141.327 737.362 141.537 737.746 141.957C738.13 142.377 738.322 142.965 738.322 143.72C738.322 144.179 738.225 144.59 738.029 144.955C737.837 145.316 737.561 145.598 737.199 145.8C736.838 145.998 736.411 146.098 735.92 146.098C735.49 146.098 735.091 146.011 734.724 145.839C734.356 145.663 734.064 145.417 733.85 145.102C733.638 144.786 733.526 144.426 733.513 144.022H734.909C734.938 144.319 735.041 144.55 735.217 144.716C735.396 144.879 735.629 144.96 735.915 144.96C736.234 144.96 736.48 144.846 736.652 144.618C736.825 144.387 736.911 144.062 736.911 143.642C736.911 143.238 736.812 142.929 736.613 142.714C736.415 142.499 736.133 142.392 735.769 142.392C735.433 142.392 735.161 142.479 734.953 142.655L734.816 142.782L733.693 142.504ZM743.859 140.78C743.859 141.125 743.773 141.431 743.601 141.698C743.428 141.965 743.19 142.178 742.888 142.338C743.233 142.504 743.506 142.733 743.708 143.026C743.91 143.316 744.011 143.658 744.011 144.052C744.011 144.683 743.796 145.183 743.366 145.551C742.937 145.915 742.352 146.098 741.613 146.098C740.874 146.098 740.288 145.914 739.855 145.546C739.423 145.178 739.206 144.68 739.206 144.052C739.206 143.658 739.307 143.314 739.509 143.021C739.711 142.729 739.982 142.501 740.324 142.338C740.021 142.178 739.784 141.965 739.611 141.698C739.442 141.431 739.357 141.125 739.357 140.78C739.357 140.175 739.559 139.693 739.963 139.335C740.367 138.974 740.915 138.793 741.608 138.793C742.299 138.793 742.845 138.972 743.249 139.33C743.656 139.685 743.859 140.168 743.859 140.78ZM742.595 143.949C742.595 143.64 742.505 143.393 742.326 143.207C742.147 143.021 741.906 142.929 741.604 142.929C741.304 142.929 741.065 143.021 740.886 143.207C740.707 143.389 740.617 143.637 740.617 143.949C740.617 144.252 740.705 144.496 740.881 144.682C741.057 144.867 741.301 144.96 741.613 144.96C741.919 144.96 742.159 144.87 742.331 144.691C742.507 144.512 742.595 144.265 742.595 143.949ZM742.448 140.849C742.448 140.572 742.375 140.351 742.229 140.185C742.082 140.015 741.875 139.931 741.608 139.931C741.345 139.931 741.14 140.012 740.993 140.175C740.847 140.338 740.773 140.562 740.773 140.849C740.773 141.132 740.847 141.36 740.993 141.532C741.14 141.705 741.346 141.791 741.613 141.791C741.88 141.791 742.085 141.705 742.229 141.532C742.375 141.36 742.448 141.132 742.448 140.849ZM748.894 141.82H749.646C750.004 141.82 750.269 141.731 750.441 141.552C750.614 141.373 750.7 141.135 750.7 140.839C750.7 140.552 750.614 140.329 750.441 140.17C750.272 140.01 750.038 139.931 749.738 139.931C749.468 139.931 749.242 140.006 749.06 140.155C748.877 140.302 748.786 140.494 748.786 140.731H747.375C747.375 140.36 747.474 140.028 747.673 139.735C747.875 139.439 748.155 139.208 748.513 139.042C748.874 138.876 749.271 138.793 749.704 138.793C750.456 138.793 751.045 138.974 751.472 139.335C751.898 139.693 752.111 140.188 752.111 140.819C752.111 141.145 752.012 141.444 751.813 141.718C751.615 141.991 751.354 142.201 751.032 142.348C751.433 142.491 751.73 142.706 751.926 142.992C752.124 143.279 752.224 143.617 752.224 144.008C752.224 144.639 751.993 145.146 751.53 145.526C751.071 145.907 750.463 146.098 749.704 146.098C748.994 146.098 748.413 145.91 747.961 145.536C747.512 145.162 747.287 144.667 747.287 144.052H748.698C748.698 144.319 748.798 144.537 748.996 144.706C749.198 144.875 749.445 144.96 749.738 144.96C750.074 144.96 750.336 144.872 750.524 144.696C750.716 144.517 750.812 144.281 750.812 143.988C750.812 143.279 750.422 142.924 749.641 142.924H748.894V141.82ZM756.628 146H755.217V140.561L753.532 141.083V139.936L756.477 138.881H756.628V146ZM762.37 146H760.959V140.561L759.274 141.083V139.936L762.219 138.881H762.37V146ZM764.816 145.307C764.816 145.082 764.891 144.9 765.041 144.76C765.194 144.62 765.384 144.55 765.612 144.55C765.843 144.55 766.034 144.62 766.184 144.76C766.337 144.9 766.413 145.082 766.413 145.307C766.413 145.528 766.338 145.709 766.188 145.849C766.039 145.985 765.847 146.054 765.612 146.054C765.381 146.054 765.191 145.985 765.041 145.849C764.891 145.709 764.816 145.528 764.816 145.307ZM770.896 143.158C770.528 143.52 770.098 143.7 769.606 143.7C768.978 143.7 768.475 143.485 768.098 143.056C767.72 142.623 767.531 142.04 767.531 141.308C767.531 140.842 767.632 140.416 767.834 140.028C768.039 139.638 768.324 139.335 768.688 139.12C769.053 138.902 769.463 138.793 769.919 138.793C770.388 138.793 770.804 138.91 771.169 139.145C771.534 139.379 771.817 139.716 772.019 140.155C772.22 140.595 772.323 141.098 772.326 141.664V142.187C772.326 143.371 772.032 144.302 771.442 144.979C770.853 145.657 770.018 146.018 768.938 146.063L768.591 146.068V144.892L768.903 144.887C770.131 144.831 770.795 144.255 770.896 143.158ZM769.953 142.621C770.181 142.621 770.376 142.562 770.539 142.445C770.705 142.328 770.83 142.187 770.915 142.021V141.439C770.915 140.961 770.824 140.59 770.642 140.326C770.459 140.062 770.215 139.931 769.909 139.931C769.626 139.931 769.393 140.061 769.211 140.321C769.029 140.578 768.938 140.902 768.938 141.293C768.938 141.68 769.025 141.999 769.201 142.25C769.38 142.497 769.631 142.621 769.953 142.621ZM773.547 142.504L773.957 138.891H777.941V140.067H775.114L774.938 141.596C775.274 141.417 775.63 141.327 776.008 141.327C776.685 141.327 777.215 141.537 777.6 141.957C777.984 142.377 778.176 142.965 778.176 143.72C778.176 144.179 778.078 144.59 777.883 144.955C777.691 145.316 777.414 145.598 777.053 145.8C776.691 145.998 776.265 146.098 775.773 146.098C775.344 146.098 774.945 146.011 774.577 145.839C774.209 145.663 773.918 145.417 773.703 145.102C773.492 144.786 773.379 144.426 773.366 144.022H774.763C774.792 144.319 774.895 144.55 775.07 144.716C775.249 144.879 775.482 144.96 775.769 144.96C776.088 144.96 776.333 144.846 776.506 144.618C776.678 144.387 776.765 144.062 776.765 143.642C776.765 143.238 776.665 142.929 776.467 142.714C776.268 142.499 775.987 142.392 775.622 142.392C775.287 142.392 775.015 142.479 774.807 142.655L774.67 142.782L773.547 142.504ZM782.453 144.13C782.453 143.863 782.378 143.651 782.229 143.495C782.082 143.336 781.831 143.189 781.477 143.056C781.122 142.922 780.816 142.79 780.559 142.66C780.301 142.527 780.08 142.375 779.895 142.206C779.712 142.034 779.569 141.832 779.465 141.601C779.364 141.369 779.313 141.094 779.313 140.775C779.313 140.225 779.489 139.774 779.841 139.423C780.192 139.071 780.66 138.866 781.242 138.808V137.763H782.023V138.822C782.6 138.904 783.05 139.145 783.376 139.545C783.701 139.942 783.864 140.458 783.864 141.093H782.453C782.453 140.702 782.372 140.411 782.209 140.219C782.049 140.023 781.835 139.926 781.564 139.926C781.298 139.926 781.091 140.002 780.944 140.155C780.798 140.305 780.725 140.513 780.725 140.78C780.725 141.028 780.796 141.226 780.939 141.376C781.083 141.526 781.348 141.679 781.735 141.835C782.126 141.991 782.447 142.139 782.697 142.279C782.948 142.416 783.16 142.572 783.332 142.748C783.505 142.921 783.636 143.119 783.728 143.344C783.819 143.565 783.864 143.824 783.864 144.12C783.864 144.674 783.692 145.123 783.347 145.468C783.002 145.813 782.526 146.016 781.921 146.078V147.05H781.145V146.083C780.477 146.011 779.96 145.775 779.592 145.375C779.227 144.971 779.045 144.436 779.045 143.769H780.456C780.456 144.156 780.547 144.454 780.729 144.662C780.915 144.867 781.18 144.97 781.525 144.97C781.812 144.97 782.038 144.895 782.204 144.745C782.37 144.592 782.453 144.387 782.453 144.13Z" fill="#042E5E"/>
<path opacity="0.5" d="M733.693 494.504L734.104 490.891H738.088V492.067H735.261L735.085 493.596C735.42 493.417 735.777 493.327 736.154 493.327C736.831 493.327 737.362 493.537 737.746 493.957C738.13 494.377 738.322 494.965 738.322 495.72C738.322 496.179 738.225 496.59 738.029 496.955C737.837 497.316 737.561 497.598 737.199 497.8C736.838 497.998 736.411 498.098 735.92 498.098C735.49 498.098 735.091 498.011 734.724 497.839C734.356 497.663 734.064 497.417 733.85 497.102C733.638 496.786 733.526 496.426 733.513 496.022H734.909C734.938 496.319 735.041 496.55 735.217 496.716C735.396 496.879 735.629 496.96 735.915 496.96C736.234 496.96 736.48 496.846 736.652 496.618C736.825 496.387 736.911 496.062 736.911 495.642C736.911 495.238 736.812 494.929 736.613 494.714C736.415 494.499 736.133 494.392 735.769 494.392C735.433 494.392 735.161 494.479 734.953 494.655L734.816 494.782L733.693 494.504ZM744.011 495.061C744.011 496.044 743.807 496.796 743.4 497.316C742.993 497.837 742.398 498.098 741.613 498.098C740.839 498.098 740.246 497.842 739.836 497.331C739.426 496.82 739.216 496.088 739.206 495.134V493.825C739.206 492.832 739.411 492.079 739.821 491.564C740.235 491.05 740.829 490.793 741.604 490.793C742.378 490.793 742.971 491.049 743.381 491.56C743.791 492.067 744.001 492.798 744.011 493.752V495.061ZM742.6 493.625C742.6 493.036 742.518 492.608 742.355 492.341C742.196 492.071 741.945 491.936 741.604 491.936C741.271 491.936 741.026 492.064 740.866 492.321C740.71 492.575 740.627 492.974 740.617 493.518V495.246C740.617 495.826 740.695 496.257 740.852 496.54C741.011 496.82 741.265 496.96 741.613 496.96C741.958 496.96 742.207 496.825 742.36 496.555C742.513 496.285 742.593 495.871 742.6 495.314V493.625ZM752.243 495.061C752.243 496.044 752.04 496.796 751.633 497.316C751.226 497.837 750.63 498.098 749.846 498.098C749.071 498.098 748.479 497.842 748.068 497.331C747.658 496.82 747.448 496.088 747.438 495.134V493.825C747.438 492.832 747.644 492.079 748.054 491.564C748.467 491.05 749.061 490.793 749.836 490.793C750.611 490.793 751.203 491.049 751.613 491.56C752.023 492.067 752.233 492.798 752.243 493.752V495.061ZM750.832 493.625C750.832 493.036 750.751 492.608 750.588 492.341C750.428 492.071 750.178 491.936 749.836 491.936C749.504 491.936 749.258 492.064 749.099 492.321C748.942 492.575 748.859 492.974 748.85 493.518V495.246C748.85 495.826 748.928 496.257 749.084 496.54C749.243 496.82 749.497 496.96 749.846 496.96C750.191 496.96 750.44 496.825 750.593 496.555C750.746 496.285 750.826 495.871 750.832 495.314V493.625ZM757.985 495.061C757.985 496.044 757.782 496.796 757.375 497.316C756.968 497.837 756.372 498.098 755.588 498.098C754.813 498.098 754.221 497.842 753.811 497.331C753.4 496.82 753.19 496.088 753.181 495.134V493.825C753.181 492.832 753.386 492.079 753.796 491.564C754.209 491.05 754.803 490.793 755.578 490.793C756.353 490.793 756.945 491.049 757.355 491.56C757.766 492.067 757.976 492.798 757.985 493.752V495.061ZM756.574 493.625C756.574 493.036 756.493 492.608 756.33 492.341C756.171 492.071 755.92 491.936 755.578 491.936C755.246 491.936 755 492.064 754.841 492.321C754.685 492.575 754.602 492.974 754.592 493.518V495.246C754.592 495.826 754.67 496.257 754.826 496.54C754.986 496.82 755.24 496.96 755.588 496.96C755.933 496.96 756.182 496.825 756.335 496.555C756.488 496.285 756.568 495.871 756.574 495.314V493.625ZM763.728 495.061C763.728 496.044 763.524 496.796 763.117 497.316C762.71 497.837 762.115 498.098 761.33 498.098C760.555 498.098 759.963 497.842 759.553 497.331C759.143 496.82 758.933 496.088 758.923 495.134V493.825C758.923 492.832 759.128 492.079 759.538 491.564C759.951 491.05 760.546 490.793 761.32 490.793C762.095 490.793 762.688 491.049 763.098 491.56C763.508 492.067 763.718 492.798 763.728 493.752V495.061ZM762.316 493.625C762.316 493.036 762.235 492.608 762.072 492.341C761.913 492.071 761.662 491.936 761.32 491.936C760.988 491.936 760.743 492.064 760.583 492.321C760.427 492.575 760.344 492.974 760.334 493.518V495.246C760.334 495.826 760.412 496.257 760.568 496.54C760.728 496.82 760.982 496.96 761.33 496.96C761.675 496.96 761.924 496.825 762.077 496.555C762.23 496.285 762.31 495.871 762.316 495.314V493.625ZM764.816 497.307C764.816 497.082 764.891 496.9 765.041 496.76C765.194 496.62 765.384 496.55 765.612 496.55C765.843 496.55 766.034 496.62 766.184 496.76C766.337 496.9 766.413 497.082 766.413 497.307C766.413 497.528 766.338 497.709 766.188 497.849C766.039 497.985 765.847 498.054 765.612 498.054C765.381 498.054 765.191 497.985 765.041 497.849C764.891 497.709 764.816 497.528 764.816 497.307ZM772.38 495.061C772.38 496.044 772.176 496.796 771.77 497.316C771.363 497.837 770.767 498.098 769.982 498.098C769.208 498.098 768.615 497.842 768.205 497.331C767.795 496.82 767.585 496.088 767.575 495.134V493.825C767.575 492.832 767.78 492.079 768.19 491.564C768.604 491.05 769.198 490.793 769.973 490.793C770.747 490.793 771.34 491.049 771.75 491.56C772.16 492.067 772.37 492.798 772.38 493.752V495.061ZM770.969 493.625C770.969 493.036 770.887 492.608 770.725 492.341C770.565 492.071 770.314 491.936 769.973 491.936C769.641 491.936 769.395 492.064 769.235 492.321C769.079 492.575 768.996 492.974 768.986 493.518V495.246C768.986 495.826 769.064 496.257 769.221 496.54C769.38 496.82 769.634 496.96 769.982 496.96C770.327 496.96 770.576 496.825 770.729 496.555C770.882 496.285 770.962 495.871 770.969 495.314V493.625ZM778.122 495.061C778.122 496.044 777.919 496.796 777.512 497.316C777.105 497.837 776.509 498.098 775.725 498.098C774.95 498.098 774.357 497.842 773.947 497.331C773.537 496.82 773.327 496.088 773.317 495.134V493.825C773.317 492.832 773.522 492.079 773.933 491.564C774.346 491.05 774.94 490.793 775.715 490.793C776.49 490.793 777.082 491.049 777.492 491.56C777.902 492.067 778.112 492.798 778.122 493.752V495.061ZM776.711 493.625C776.711 493.036 776.63 492.608 776.467 492.341C776.307 492.071 776.057 491.936 775.715 491.936C775.383 491.936 775.137 492.064 774.978 492.321C774.821 492.575 774.738 492.974 774.729 493.518V495.246C774.729 495.826 774.807 496.257 774.963 496.54C775.122 496.82 775.376 496.96 775.725 496.96C776.07 496.96 776.319 496.825 776.472 496.555C776.625 496.285 776.704 495.871 776.711 495.314V493.625Z" fill="white"/>
<path opacity="0.5" d="M737.658 572.324H738.464V573.462H737.658V575H736.247V573.462H733.332L733.269 572.573L736.232 567.891H737.658V572.324ZM734.675 572.324H736.247V569.814L736.154 569.976L734.675 572.324ZM743.859 569.78C743.859 570.125 743.773 570.431 743.601 570.698C743.428 570.965 743.19 571.178 742.888 571.338C743.233 571.504 743.506 571.733 743.708 572.026C743.91 572.316 744.011 572.658 744.011 573.052C744.011 573.683 743.796 574.183 743.366 574.551C742.937 574.915 742.352 575.098 741.613 575.098C740.874 575.098 740.288 574.914 739.855 574.546C739.423 574.178 739.206 573.68 739.206 573.052C739.206 572.658 739.307 572.314 739.509 572.021C739.711 571.729 739.982 571.501 740.324 571.338C740.021 571.178 739.784 570.965 739.611 570.698C739.442 570.431 739.357 570.125 739.357 569.78C739.357 569.175 739.559 568.693 739.963 568.335C740.367 567.974 740.915 567.793 741.608 567.793C742.299 567.793 742.845 567.972 743.249 568.33C743.656 568.685 743.859 569.168 743.859 569.78ZM742.595 572.949C742.595 572.64 742.505 572.393 742.326 572.207C742.147 572.021 741.906 571.929 741.604 571.929C741.304 571.929 741.065 572.021 740.886 572.207C740.707 572.389 740.617 572.637 740.617 572.949C740.617 573.252 740.705 573.496 740.881 573.682C741.057 573.867 741.301 573.96 741.613 573.96C741.919 573.96 742.159 573.87 742.331 573.691C742.507 573.512 742.595 573.265 742.595 572.949ZM742.448 569.849C742.448 569.572 742.375 569.351 742.229 569.185C742.082 569.015 741.875 568.931 741.608 568.931C741.345 568.931 741.14 569.012 740.993 569.175C740.847 569.338 740.773 569.562 740.773 569.849C740.773 570.132 740.847 570.36 740.993 570.532C741.14 570.705 741.346 570.791 741.613 570.791C741.88 570.791 742.085 570.705 742.229 570.532C742.375 570.36 742.448 570.132 742.448 569.849ZM752.243 572.061C752.243 573.044 752.04 573.796 751.633 574.316C751.226 574.837 750.63 575.098 749.846 575.098C749.071 575.098 748.479 574.842 748.068 574.331C747.658 573.82 747.448 573.088 747.438 572.134V570.825C747.438 569.832 747.644 569.079 748.054 568.564C748.467 568.05 749.061 567.793 749.836 567.793C750.611 567.793 751.203 568.049 751.613 568.56C752.023 569.067 752.233 569.798 752.243 570.752V572.061ZM750.832 570.625C750.832 570.036 750.751 569.608 750.588 569.341C750.428 569.071 750.178 568.936 749.836 568.936C749.504 568.936 749.258 569.064 749.099 569.321C748.942 569.575 748.859 569.974 748.85 570.518V572.246C748.85 572.826 748.928 573.257 749.084 573.54C749.243 573.82 749.497 573.96 749.846 573.96C750.191 573.96 750.44 573.825 750.593 573.555C750.746 573.285 750.826 572.871 750.832 572.314V570.625ZM757.985 572.061C757.985 573.044 757.782 573.796 757.375 574.316C756.968 574.837 756.372 575.098 755.588 575.098C754.813 575.098 754.221 574.842 753.811 574.331C753.4 573.82 753.19 573.088 753.181 572.134V570.825C753.181 569.832 753.386 569.079 753.796 568.564C754.209 568.05 754.803 567.793 755.578 567.793C756.353 567.793 756.945 568.049 757.355 568.56C757.766 569.067 757.976 569.798 757.985 570.752V572.061ZM756.574 570.625C756.574 570.036 756.493 569.608 756.33 569.341C756.171 569.071 755.92 568.936 755.578 568.936C755.246 568.936 755 569.064 754.841 569.321C754.685 569.575 754.602 569.974 754.592 570.518V572.246C754.592 572.826 754.67 573.257 754.826 573.54C754.986 573.82 755.24 573.96 755.588 573.96C755.933 573.96 756.182 573.825 756.335 573.555C756.488 573.285 756.568 572.871 756.574 572.314V570.625ZM763.728 572.061C763.728 573.044 763.524 573.796 763.117 574.316C762.71 574.837 762.115 575.098 761.33 575.098C760.555 575.098 759.963 574.842 759.553 574.331C759.143 573.82 758.933 573.088 758.923 572.134V570.825C758.923 569.832 759.128 569.079 759.538 568.564C759.951 568.05 760.546 567.793 761.32 567.793C762.095 567.793 762.688 568.049 763.098 568.56C763.508 569.067 763.718 569.798 763.728 570.752V572.061ZM762.316 570.625C762.316 570.036 762.235 569.608 762.072 569.341C761.913 569.071 761.662 568.936 761.32 568.936C760.988 568.936 760.743 569.064 760.583 569.321C760.427 569.575 760.344 569.974 760.334 570.518V572.246C760.334 572.826 760.412 573.257 760.568 573.54C760.728 573.82 760.982 573.96 761.33 573.96C761.675 573.96 761.924 573.825 762.077 573.555C762.23 573.285 762.31 572.871 762.316 572.314V570.625ZM764.816 574.307C764.816 574.082 764.891 573.9 765.041 573.76C765.194 573.62 765.384 573.55 765.612 573.55C765.843 573.55 766.034 573.62 766.184 573.76C766.337 573.9 766.413 574.082 766.413 574.307C766.413 574.528 766.338 574.709 766.188 574.849C766.039 574.985 765.847 575.054 765.612 575.054C765.381 575.054 765.191 574.985 765.041 574.849C764.891 574.709 764.816 574.528 764.816 574.307ZM772.38 572.061C772.38 573.044 772.176 573.796 771.77 574.316C771.363 574.837 770.767 575.098 769.982 575.098C769.208 575.098 768.615 574.842 768.205 574.331C767.795 573.82 767.585 573.088 767.575 572.134V570.825C767.575 569.832 767.78 569.079 768.19 568.564C768.604 568.05 769.198 567.793 769.973 567.793C770.747 567.793 771.34 568.049 771.75 568.56C772.16 569.067 772.37 569.798 772.38 570.752V572.061ZM770.969 570.625C770.969 570.036 770.887 569.608 770.725 569.341C770.565 569.071 770.314 568.936 769.973 568.936C769.641 568.936 769.395 569.064 769.235 569.321C769.079 569.575 768.996 569.974 768.986 570.518V572.246C768.986 572.826 769.064 573.257 769.221 573.54C769.38 573.82 769.634 573.96 769.982 573.96C770.327 573.96 770.576 573.825 770.729 573.555C770.882 573.285 770.962 572.871 770.969 572.314V570.625ZM778.122 572.061C778.122 573.044 777.919 573.796 777.512 574.316C777.105 574.837 776.509 575.098 775.725 575.098C774.95 575.098 774.357 574.842 773.947 574.331C773.537 573.82 773.327 573.088 773.317 572.134V570.825C773.317 569.832 773.522 569.079 773.933 568.564C774.346 568.05 774.94 567.793 775.715 567.793C776.49 567.793 777.082 568.049 777.492 568.56C777.902 569.067 778.112 569.798 778.122 570.752V572.061ZM776.711 570.625C776.711 570.036 776.63 569.608 776.467 569.341C776.307 569.071 776.057 568.936 775.715 568.936C775.383 568.936 775.137 569.064 774.978 569.321C774.821 569.575 774.738 569.974 774.729 570.518V572.246C774.729 572.826 774.807 573.257 774.963 573.54C775.122 573.82 775.376 573.96 775.725 573.96C776.07 573.96 776.319 573.825 776.472 573.555C776.625 573.285 776.704 572.871 776.711 572.314V570.625Z" fill="white"/>
<path opacity="0.5" d="M737.658 654.324H738.464V655.462H737.658V657H736.247V655.462H733.332L733.269 654.573L736.232 649.891H737.658V654.324ZM734.675 654.324H736.247V651.814L736.154 651.976L734.675 654.324ZM743.054 649.817V650.979H742.917C742.279 650.989 741.765 651.155 741.374 651.478C740.987 651.8 740.754 652.247 740.676 652.82C741.053 652.436 741.53 652.244 742.106 652.244C742.725 652.244 743.216 652.465 743.581 652.908C743.946 653.351 744.128 653.934 744.128 654.656C744.128 655.118 744.027 655.537 743.825 655.911C743.627 656.285 743.343 656.577 742.976 656.785C742.611 656.993 742.198 657.098 741.735 657.098C740.987 657.098 740.381 656.837 739.919 656.316C739.46 655.796 739.23 655.101 739.23 654.231V653.724C739.23 652.952 739.375 652.272 739.665 651.683C739.958 651.09 740.376 650.633 740.92 650.311C741.467 649.985 742.1 649.821 742.819 649.817H743.054ZM741.677 653.377C741.449 653.377 741.242 653.437 741.057 653.558C740.871 653.675 740.734 653.831 740.646 654.026V654.456C740.646 654.928 740.739 655.298 740.925 655.564C741.11 655.828 741.371 655.96 741.706 655.96C742.009 655.96 742.253 655.841 742.438 655.604C742.627 655.363 742.722 655.052 742.722 654.671C742.722 654.284 742.627 653.971 742.438 653.733C742.25 653.496 741.996 653.377 741.677 653.377ZM752.243 654.061C752.243 655.044 752.04 655.796 751.633 656.316C751.226 656.837 750.63 657.098 749.846 657.098C749.071 657.098 748.479 656.842 748.068 656.331C747.658 655.82 747.448 655.088 747.438 654.134V652.825C747.438 651.832 747.644 651.079 748.054 650.564C748.467 650.05 749.061 649.793 749.836 649.793C750.611 649.793 751.203 650.049 751.613 650.56C752.023 651.067 752.233 651.798 752.243 652.752V654.061ZM750.832 652.625C750.832 652.036 750.751 651.608 750.588 651.341C750.428 651.071 750.178 650.936 749.836 650.936C749.504 650.936 749.258 651.064 749.099 651.321C748.942 651.575 748.859 651.974 748.85 652.518V654.246C748.85 654.826 748.928 655.257 749.084 655.54C749.243 655.82 749.497 655.96 749.846 655.96C750.191 655.96 750.44 655.825 750.593 655.555C750.746 655.285 750.826 654.871 750.832 654.314V652.625ZM757.985 654.061C757.985 655.044 757.782 655.796 757.375 656.316C756.968 656.837 756.372 657.098 755.588 657.098C754.813 657.098 754.221 656.842 753.811 656.331C753.4 655.82 753.19 655.088 753.181 654.134V652.825C753.181 651.832 753.386 651.079 753.796 650.564C754.209 650.05 754.803 649.793 755.578 649.793C756.353 649.793 756.945 650.049 757.355 650.56C757.766 651.067 757.976 651.798 757.985 652.752V654.061ZM756.574 652.625C756.574 652.036 756.493 651.608 756.33 651.341C756.171 651.071 755.92 650.936 755.578 650.936C755.246 650.936 755 651.064 754.841 651.321C754.685 651.575 754.602 651.974 754.592 652.518V654.246C754.592 654.826 754.67 655.257 754.826 655.54C754.986 655.82 755.24 655.96 755.588 655.96C755.933 655.96 756.182 655.825 756.335 655.555C756.488 655.285 756.568 654.871 756.574 654.314V652.625ZM763.728 654.061C763.728 655.044 763.524 655.796 763.117 656.316C762.71 656.837 762.115 657.098 761.33 657.098C760.555 657.098 759.963 656.842 759.553 656.331C759.143 655.82 758.933 655.088 758.923 654.134V652.825C758.923 651.832 759.128 651.079 759.538 650.564C759.951 650.05 760.546 649.793 761.32 649.793C762.095 649.793 762.688 650.049 763.098 650.56C763.508 651.067 763.718 651.798 763.728 652.752V654.061ZM762.316 652.625C762.316 652.036 762.235 651.608 762.072 651.341C761.913 651.071 761.662 650.936 761.32 650.936C760.988 650.936 760.743 651.064 760.583 651.321C760.427 651.575 760.344 651.974 760.334 652.518V654.246C760.334 654.826 760.412 655.257 760.568 655.54C760.728 655.82 760.982 655.96 761.33 655.96C761.675 655.96 761.924 655.825 762.077 655.555C762.23 655.285 762.31 654.871 762.316 654.314V652.625ZM764.816 656.307C764.816 656.082 764.891 655.9 765.041 655.76C765.194 655.62 765.384 655.55 765.612 655.55C765.843 655.55 766.034 655.62 766.184 655.76C766.337 655.9 766.413 656.082 766.413 656.307C766.413 656.528 766.338 656.709 766.188 656.849C766.039 656.985 765.847 657.054 765.612 657.054C765.381 657.054 765.191 656.985 765.041 656.849C764.891 656.709 764.816 656.528 764.816 656.307ZM772.38 654.061C772.38 655.044 772.176 655.796 771.77 656.316C771.363 656.837 770.767 657.098 769.982 657.098C769.208 657.098 768.615 656.842 768.205 656.331C767.795 655.82 767.585 655.088 767.575 654.134V652.825C767.575 651.832 767.78 651.079 768.19 650.564C768.604 650.05 769.198 649.793 769.973 649.793C770.747 649.793 771.34 650.049 771.75 650.56C772.16 651.067 772.37 651.798 772.38 652.752V654.061ZM770.969 652.625C770.969 652.036 770.887 651.608 770.725 651.341C770.565 651.071 770.314 650.936 769.973 650.936C769.641 650.936 769.395 651.064 769.235 651.321C769.079 651.575 768.996 651.974 768.986 652.518V654.246C768.986 654.826 769.064 655.257 769.221 655.54C769.38 655.82 769.634 655.96 769.982 655.96C770.327 655.96 770.576 655.825 770.729 655.555C770.882 655.285 770.962 654.871 770.969 654.314V652.625ZM778.122 654.061C778.122 655.044 777.919 655.796 777.512 656.316C777.105 656.837 776.509 657.098 775.725 657.098C774.95 657.098 774.357 656.842 773.947 656.331C773.537 655.82 773.327 655.088 773.317 654.134V652.825C773.317 651.832 773.522 651.079 773.933 650.564C774.346 650.05 774.94 649.793 775.715 649.793C776.49 649.793 777.082 650.049 777.492 650.56C777.902 651.067 778.112 651.798 778.122 652.752V654.061ZM776.711 652.625C776.711 652.036 776.63 651.608 776.467 651.341C776.307 651.071 776.057 650.936 775.715 650.936C775.383 650.936 775.137 651.064 774.978 651.321C774.821 651.575 774.738 651.974 774.729 652.518V654.246C774.729 654.826 774.807 655.257 774.963 655.54C775.122 655.82 775.376 655.96 775.725 655.96C776.07 655.96 776.319 655.825 776.472 655.555C776.625 655.285 776.704 654.871 776.711 654.314V652.625Z" fill="white"/>
<path opacity="0.5" d="M733.693 417.504L734.104 413.891H738.088V415.067H735.261L735.085 416.596C735.42 416.417 735.777 416.327 736.154 416.327C736.831 416.327 737.362 416.537 737.746 416.957C738.13 417.377 738.322 417.965 738.322 418.72C738.322 419.179 738.225 419.59 738.029 419.955C737.837 420.316 737.561 420.598 737.199 420.8C736.838 420.998 736.411 421.098 735.92 421.098C735.49 421.098 735.091 421.011 734.724 420.839C734.356 420.663 734.064 420.417 733.85 420.102C733.638 419.786 733.526 419.426 733.513 419.022H734.909C734.938 419.319 735.041 419.55 735.217 419.716C735.396 419.879 735.629 419.96 735.915 419.96C736.234 419.96 736.48 419.846 736.652 419.618C736.825 419.387 736.911 419.062 736.911 418.642C736.911 418.238 736.812 417.929 736.613 417.714C736.415 417.499 736.133 417.392 735.769 417.392C735.433 417.392 735.161 417.479 734.953 417.655L734.816 417.782L733.693 417.504ZM744.099 421H739.226V420.033L741.525 417.582C741.841 417.237 742.074 416.936 742.224 416.679C742.377 416.422 742.453 416.177 742.453 415.946C742.453 415.631 742.373 415.383 742.214 415.204C742.054 415.022 741.826 414.931 741.53 414.931C741.211 414.931 740.959 415.041 740.773 415.263C740.591 415.481 740.5 415.769 740.5 416.127H739.084C739.084 415.694 739.187 415.299 739.392 414.94C739.6 414.582 739.893 414.302 740.271 414.101C740.648 413.896 741.076 413.793 741.555 413.793C742.287 413.793 742.855 413.969 743.259 414.32C743.666 414.672 743.869 415.168 743.869 415.81C743.869 416.161 743.778 416.519 743.596 416.884C743.413 417.248 743.101 417.673 742.658 418.158L741.042 419.862H744.099V421ZM752.243 418.061C752.243 419.044 752.04 419.796 751.633 420.316C751.226 420.837 750.63 421.098 749.846 421.098C749.071 421.098 748.479 420.842 748.068 420.331C747.658 419.82 747.448 419.088 747.438 418.134V416.825C747.438 415.832 747.644 415.079 748.054 414.564C748.467 414.05 749.061 413.793 749.836 413.793C750.611 413.793 751.203 414.049 751.613 414.56C752.023 415.067 752.233 415.798 752.243 416.752V418.061ZM750.832 416.625C750.832 416.036 750.751 415.608 750.588 415.341C750.428 415.071 750.178 414.936 749.836 414.936C749.504 414.936 749.258 415.064 749.099 415.321C748.942 415.575 748.859 415.974 748.85 416.518V418.246C748.85 418.826 748.928 419.257 749.084 419.54C749.243 419.82 749.497 419.96 749.846 419.96C750.191 419.96 750.44 419.825 750.593 419.555C750.746 419.285 750.826 418.871 750.832 418.314V416.625ZM757.985 418.061C757.985 419.044 757.782 419.796 757.375 420.316C756.968 420.837 756.372 421.098 755.588 421.098C754.813 421.098 754.221 420.842 753.811 420.331C753.4 419.82 753.19 419.088 753.181 418.134V416.825C753.181 415.832 753.386 415.079 753.796 414.564C754.209 414.05 754.803 413.793 755.578 413.793C756.353 413.793 756.945 414.049 757.355 414.56C757.766 415.067 757.976 415.798 757.985 416.752V418.061ZM756.574 416.625C756.574 416.036 756.493 415.608 756.33 415.341C756.171 415.071 755.92 414.936 755.578 414.936C755.246 414.936 755 415.064 754.841 415.321C754.685 415.575 754.602 415.974 754.592 416.518V418.246C754.592 418.826 754.67 419.257 754.826 419.54C754.986 419.82 755.24 419.96 755.588 419.96C755.933 419.96 756.182 419.825 756.335 419.555C756.488 419.285 756.568 418.871 756.574 418.314V416.625ZM763.728 418.061C763.728 419.044 763.524 419.796 763.117 420.316C762.71 420.837 762.115 421.098 761.33 421.098C760.555 421.098 759.963 420.842 759.553 420.331C759.143 419.82 758.933 419.088 758.923 418.134V416.825C758.923 415.832 759.128 415.079 759.538 414.564C759.951 414.05 760.546 413.793 761.32 413.793C762.095 413.793 762.688 414.049 763.098 414.56C763.508 415.067 763.718 415.798 763.728 416.752V418.061ZM762.316 416.625C762.316 416.036 762.235 415.608 762.072 415.341C761.913 415.071 761.662 414.936 761.32 414.936C760.988 414.936 760.743 415.064 760.583 415.321C760.427 415.575 760.344 415.974 760.334 416.518V418.246C760.334 418.826 760.412 419.257 760.568 419.54C760.728 419.82 760.982 419.96 761.33 419.96C761.675 419.96 761.924 419.825 762.077 419.555C762.23 419.285 762.31 418.871 762.316 418.314V416.625ZM764.816 420.307C764.816 420.082 764.891 419.9 765.041 419.76C765.194 419.62 765.384 419.55 765.612 419.55C765.843 419.55 766.034 419.62 766.184 419.76C766.337 419.9 766.413 420.082 766.413 420.307C766.413 420.528 766.338 420.709 766.188 420.849C766.039 420.985 765.847 421.054 765.612 421.054C765.381 421.054 765.191 420.985 765.041 420.849C764.891 420.709 764.816 420.528 764.816 420.307ZM772.38 418.061C772.38 419.044 772.176 419.796 771.77 420.316C771.363 420.837 770.767 421.098 769.982 421.098C769.208 421.098 768.615 420.842 768.205 420.331C767.795 419.82 767.585 419.088 767.575 418.134V416.825C767.575 415.832 767.78 415.079 768.19 414.564C768.604 414.05 769.198 413.793 769.973 413.793C770.747 413.793 771.34 414.049 771.75 414.56C772.16 415.067 772.37 415.798 772.38 416.752V418.061ZM770.969 416.625C770.969 416.036 770.887 415.608 770.725 415.341C770.565 415.071 770.314 414.936 769.973 414.936C769.641 414.936 769.395 415.064 769.235 415.321C769.079 415.575 768.996 415.974 768.986 416.518V418.246C768.986 418.826 769.064 419.257 769.221 419.54C769.38 419.82 769.634 419.96 769.982 419.96C770.327 419.96 770.576 419.825 770.729 419.555C770.882 419.285 770.962 418.871 770.969 418.314V416.625ZM778.122 418.061C778.122 419.044 777.919 419.796 777.512 420.316C777.105 420.837 776.509 421.098 775.725 421.098C774.95 421.098 774.357 420.842 773.947 420.331C773.537 419.82 773.327 419.088 773.317 418.134V416.825C773.317 415.832 773.522 415.079 773.933 414.564C774.346 414.05 774.94 413.793 775.715 413.793C776.49 413.793 777.082 414.049 777.492 414.56C777.902 415.067 778.112 415.798 778.122 416.752V418.061ZM776.711 416.625C776.711 416.036 776.63 415.608 776.467 415.341C776.307 415.071 776.057 414.936 775.715 414.936C775.383 414.936 775.137 415.064 774.978 415.321C774.821 415.575 774.738 415.974 774.729 416.518V418.246C774.729 418.826 774.807 419.257 774.963 419.54C775.122 419.82 775.376 419.96 775.725 419.96C776.07 419.96 776.319 419.825 776.472 419.555C776.625 419.285 776.704 418.871 776.711 418.314V416.625Z" fill="white"/>
<path opacity="0.5" d="M733.693 330.504L734.104 326.891H738.088V328.067H735.261L735.085 329.596C735.42 329.417 735.777 329.327 736.154 329.327C736.831 329.327 737.362 329.537 737.746 329.957C738.13 330.377 738.322 330.965 738.322 331.72C738.322 332.179 738.225 332.59 738.029 332.955C737.837 333.316 737.561 333.598 737.199 333.8C736.838 333.998 736.411 334.098 735.92 334.098C735.49 334.098 735.091 334.011 734.724 333.839C734.356 333.663 734.064 333.417 733.85 333.102C733.638 332.786 733.526 332.426 733.513 332.022H734.909C734.938 332.319 735.041 332.55 735.217 332.716C735.396 332.879 735.629 332.96 735.915 332.96C736.234 332.96 736.48 332.846 736.652 332.618C736.825 332.387 736.911 332.062 736.911 331.642C736.911 331.238 736.812 330.929 736.613 330.714C736.415 330.499 736.133 330.392 735.769 330.392C735.433 330.392 735.161 330.479 734.953 330.655L734.816 330.782L733.693 330.504ZM743.4 331.324H744.206V332.462H743.4V334H741.989V332.462H739.074L739.011 331.573L741.975 326.891H743.4V331.324ZM740.417 331.324H741.989V328.814L741.896 328.976L740.417 331.324ZM752.243 331.061C752.243 332.044 752.04 332.796 751.633 333.316C751.226 333.837 750.63 334.098 749.846 334.098C749.071 334.098 748.479 333.842 748.068 333.331C747.658 332.82 747.448 332.088 747.438 331.134V329.825C747.438 328.832 747.644 328.079 748.054 327.564C748.467 327.05 749.061 326.793 749.836 326.793C750.611 326.793 751.203 327.049 751.613 327.56C752.023 328.067 752.233 328.798 752.243 329.752V331.061ZM750.832 329.625C750.832 329.036 750.751 328.608 750.588 328.341C750.428 328.071 750.178 327.936 749.836 327.936C749.504 327.936 749.258 328.064 749.099 328.321C748.942 328.575 748.859 328.974 748.85 329.518V331.246C748.85 331.826 748.928 332.257 749.084 332.54C749.243 332.82 749.497 332.96 749.846 332.96C750.191 332.96 750.44 332.825 750.593 332.555C750.746 332.285 750.826 331.871 750.832 331.314V329.625ZM757.985 331.061C757.985 332.044 757.782 332.796 757.375 333.316C756.968 333.837 756.372 334.098 755.588 334.098C754.813 334.098 754.221 333.842 753.811 333.331C753.4 332.82 753.19 332.088 753.181 331.134V329.825C753.181 328.832 753.386 328.079 753.796 327.564C754.209 327.05 754.803 326.793 755.578 326.793C756.353 326.793 756.945 327.049 757.355 327.56C757.766 328.067 757.976 328.798 757.985 329.752V331.061ZM756.574 329.625C756.574 329.036 756.493 328.608 756.33 328.341C756.171 328.071 755.92 327.936 755.578 327.936C755.246 327.936 755 328.064 754.841 328.321C754.685 328.575 754.602 328.974 754.592 329.518V331.246C754.592 331.826 754.67 332.257 754.826 332.54C754.986 332.82 755.24 332.96 755.588 332.96C755.933 332.96 756.182 332.825 756.335 332.555C756.488 332.285 756.568 331.871 756.574 331.314V329.625ZM763.728 331.061C763.728 332.044 763.524 332.796 763.117 333.316C762.71 333.837 762.115 334.098 761.33 334.098C760.555 334.098 759.963 333.842 759.553 333.331C759.143 332.82 758.933 332.088 758.923 331.134V329.825C758.923 328.832 759.128 328.079 759.538 327.564C759.951 327.05 760.546 326.793 761.32 326.793C762.095 326.793 762.688 327.049 763.098 327.56C763.508 328.067 763.718 328.798 763.728 329.752V331.061ZM762.316 329.625C762.316 329.036 762.235 328.608 762.072 328.341C761.913 328.071 761.662 327.936 761.32 327.936C760.988 327.936 760.743 328.064 760.583 328.321C760.427 328.575 760.344 328.974 760.334 329.518V331.246C760.334 331.826 760.412 332.257 760.568 332.54C760.728 332.82 760.982 332.96 761.33 332.96C761.675 332.96 761.924 332.825 762.077 332.555C762.23 332.285 762.31 331.871 762.316 331.314V329.625ZM764.816 333.307C764.816 333.082 764.891 332.9 765.041 332.76C765.194 332.62 765.384 332.55 765.612 332.55C765.843 332.55 766.034 332.62 766.184 332.76C766.337 332.9 766.413 333.082 766.413 333.307C766.413 333.528 766.338 333.709 766.188 333.849C766.039 333.985 765.847 334.054 765.612 334.054C765.381 334.054 765.191 333.985 765.041 333.849C764.891 333.709 764.816 333.528 764.816 333.307ZM772.38 331.061C772.38 332.044 772.176 332.796 771.77 333.316C771.363 333.837 770.767 334.098 769.982 334.098C769.208 334.098 768.615 333.842 768.205 333.331C767.795 332.82 767.585 332.088 767.575 331.134V329.825C767.575 328.832 767.78 328.079 768.19 327.564C768.604 327.05 769.198 326.793 769.973 326.793C770.747 326.793 771.34 327.049 771.75 327.56C772.16 328.067 772.37 328.798 772.38 329.752V331.061ZM770.969 329.625C770.969 329.036 770.887 328.608 770.725 328.341C770.565 328.071 770.314 327.936 769.973 327.936C769.641 327.936 769.395 328.064 769.235 328.321C769.079 328.575 768.996 328.974 768.986 329.518V331.246C768.986 331.826 769.064 332.257 769.221 332.54C769.38 332.82 769.634 332.96 769.982 332.96C770.327 332.96 770.576 332.825 770.729 332.555C770.882 332.285 770.962 331.871 770.969 331.314V329.625ZM778.122 331.061C778.122 332.044 777.919 332.796 777.512 333.316C777.105 333.837 776.509 334.098 775.725 334.098C774.95 334.098 774.357 333.842 773.947 333.331C773.537 332.82 773.327 332.088 773.317 331.134V329.825C773.317 328.832 773.522 328.079 773.933 327.564C774.346 327.05 774.94 326.793 775.715 326.793C776.49 326.793 777.082 327.049 777.492 327.56C777.902 328.067 778.112 328.798 778.122 329.752V331.061ZM776.711 329.625C776.711 329.036 776.63 328.608 776.467 328.341C776.307 328.071 776.057 327.936 775.715 327.936C775.383 327.936 775.137 328.064 774.978 328.321C774.821 328.575 774.738 328.974 774.729 329.518V331.246C774.729 331.826 774.807 332.257 774.963 332.54C775.122 332.82 775.376 332.96 775.725 332.96C776.07 332.96 776.319 332.825 776.472 332.555C776.625 332.285 776.704 331.871 776.711 331.314V329.625Z" fill="white"/>
<path opacity="0.5" d="M733.693 248.504L734.104 244.891H738.088V246.067H735.261L735.085 247.596C735.42 247.417 735.777 247.327 736.154 247.327C736.831 247.327 737.362 247.537 737.746 247.957C738.13 248.377 738.322 248.965 738.322 249.72C738.322 250.179 738.225 250.59 738.029 250.955C737.837 251.316 737.561 251.598 737.199 251.8C736.838 251.998 736.411 252.098 735.92 252.098C735.49 252.098 735.091 252.011 734.724 251.839C734.356 251.663 734.064 251.417 733.85 251.102C733.638 250.786 733.526 250.426 733.513 250.022H734.909C734.938 250.319 735.041 250.55 735.217 250.716C735.396 250.879 735.629 250.96 735.915 250.96C736.234 250.96 736.48 250.846 736.652 250.618C736.825 250.387 736.911 250.062 736.911 249.642C736.911 249.238 736.812 248.929 736.613 248.714C736.415 248.499 736.133 248.392 735.769 248.392C735.433 248.392 735.161 248.479 734.953 248.655L734.816 248.782L733.693 248.504ZM743.054 244.817V245.979H742.917C742.279 245.989 741.765 246.155 741.374 246.478C740.987 246.8 740.754 247.247 740.676 247.82C741.053 247.436 741.53 247.244 742.106 247.244C742.725 247.244 743.216 247.465 743.581 247.908C743.946 248.351 744.128 248.934 744.128 249.656C744.128 250.118 744.027 250.537 743.825 250.911C743.627 251.285 743.343 251.577 742.976 251.785C742.611 251.993 742.198 252.098 741.735 252.098C740.987 252.098 740.381 251.837 739.919 251.316C739.46 250.796 739.23 250.101 739.23 249.231V248.724C739.23 247.952 739.375 247.272 739.665 246.683C739.958 246.09 740.376 245.633 740.92 245.311C741.467 244.985 742.1 244.821 742.819 244.817H743.054ZM741.677 248.377C741.449 248.377 741.242 248.437 741.057 248.558C740.871 248.675 740.734 248.831 740.646 249.026V249.456C740.646 249.928 740.739 250.298 740.925 250.564C741.11 250.828 741.371 250.96 741.706 250.96C742.009 250.96 742.253 250.841 742.438 250.604C742.627 250.363 742.722 250.052 742.722 249.671C742.722 249.284 742.627 248.971 742.438 248.733C742.25 248.496 741.996 248.377 741.677 248.377ZM752.243 249.061C752.243 250.044 752.04 250.796 751.633 251.316C751.226 251.837 750.63 252.098 749.846 252.098C749.071 252.098 748.479 251.842 748.068 251.331C747.658 250.82 747.448 250.088 747.438 249.134V247.825C747.438 246.832 747.644 246.079 748.054 245.564C748.467 245.05 749.061 244.793 749.836 244.793C750.611 244.793 751.203 245.049 751.613 245.56C752.023 246.067 752.233 246.798 752.243 247.752V249.061ZM750.832 247.625C750.832 247.036 750.751 246.608 750.588 246.341C750.428 246.071 750.178 245.936 749.836 245.936C749.504 245.936 749.258 246.064 749.099 246.321C748.942 246.575 748.859 246.974 748.85 247.518V249.246C748.85 249.826 748.928 250.257 749.084 250.54C749.243 250.82 749.497 250.96 749.846 250.96C750.191 250.96 750.44 250.825 750.593 250.555C750.746 250.285 750.826 249.871 750.832 249.314V247.625ZM757.985 249.061C757.985 250.044 757.782 250.796 757.375 251.316C756.968 251.837 756.372 252.098 755.588 252.098C754.813 252.098 754.221 251.842 753.811 251.331C753.4 250.82 753.19 250.088 753.181 249.134V247.825C753.181 246.832 753.386 246.079 753.796 245.564C754.209 245.05 754.803 244.793 755.578 244.793C756.353 244.793 756.945 245.049 757.355 245.56C757.766 246.067 757.976 246.798 757.985 247.752V249.061ZM756.574 247.625C756.574 247.036 756.493 246.608 756.33 246.341C756.171 246.071 755.92 245.936 755.578 245.936C755.246 245.936 755 246.064 754.841 246.321C754.685 246.575 754.602 246.974 754.592 247.518V249.246C754.592 249.826 754.67 250.257 754.826 250.54C754.986 250.82 755.24 250.96 755.588 250.96C755.933 250.96 756.182 250.825 756.335 250.555C756.488 250.285 756.568 249.871 756.574 249.314V247.625ZM763.728 249.061C763.728 250.044 763.524 250.796 763.117 251.316C762.71 251.837 762.115 252.098 761.33 252.098C760.555 252.098 759.963 251.842 759.553 251.331C759.143 250.82 758.933 250.088 758.923 249.134V247.825C758.923 246.832 759.128 246.079 759.538 245.564C759.951 245.05 760.546 244.793 761.32 244.793C762.095 244.793 762.688 245.049 763.098 245.56C763.508 246.067 763.718 246.798 763.728 247.752V249.061ZM762.316 247.625C762.316 247.036 762.235 246.608 762.072 246.341C761.913 246.071 761.662 245.936 761.32 245.936C760.988 245.936 760.743 246.064 760.583 246.321C760.427 246.575 760.344 246.974 760.334 247.518V249.246C760.334 249.826 760.412 250.257 760.568 250.54C760.728 250.82 760.982 250.96 761.33 250.96C761.675 250.96 761.924 250.825 762.077 250.555C762.23 250.285 762.31 249.871 762.316 249.314V247.625ZM764.816 251.307C764.816 251.082 764.891 250.9 765.041 250.76C765.194 250.62 765.384 250.55 765.612 250.55C765.843 250.55 766.034 250.62 766.184 250.76C766.337 250.9 766.413 251.082 766.413 251.307C766.413 251.528 766.338 251.709 766.188 251.849C766.039 251.985 765.847 252.054 765.612 252.054C765.381 252.054 765.191 251.985 765.041 251.849C764.891 251.709 764.816 251.528 764.816 251.307ZM772.38 249.061C772.38 250.044 772.176 250.796 771.77 251.316C771.363 251.837 770.767 252.098 769.982 252.098C769.208 252.098 768.615 251.842 768.205 251.331C767.795 250.82 767.585 250.088 767.575 249.134V247.825C767.575 246.832 767.78 246.079 768.19 245.564C768.604 245.05 769.198 244.793 769.973 244.793C770.747 244.793 771.34 245.049 771.75 245.56C772.16 246.067 772.37 246.798 772.38 247.752V249.061ZM770.969 247.625C770.969 247.036 770.887 246.608 770.725 246.341C770.565 246.071 770.314 245.936 769.973 245.936C769.641 245.936 769.395 246.064 769.235 246.321C769.079 246.575 768.996 246.974 768.986 247.518V249.246C768.986 249.826 769.064 250.257 769.221 250.54C769.38 250.82 769.634 250.96 769.982 250.96C770.327 250.96 770.576 250.825 770.729 250.555C770.882 250.285 770.962 249.871 770.969 249.314V247.625ZM778.122 249.061C778.122 250.044 777.919 250.796 777.512 251.316C777.105 251.837 776.509 252.098 775.725 252.098C774.95 252.098 774.357 251.842 773.947 251.331C773.537 250.82 773.327 250.088 773.317 249.134V247.825C773.317 246.832 773.522 246.079 773.933 245.564C774.346 245.05 774.94 244.793 775.715 244.793C776.49 244.793 777.082 245.049 777.492 245.56C777.902 246.067 778.112 246.798 778.122 247.752V249.061ZM776.711 247.625C776.711 247.036 776.63 246.608 776.467 246.341C776.307 246.071 776.057 245.936 775.715 245.936C775.383 245.936 775.137 246.064 774.978 246.321C774.821 246.575 774.738 246.974 774.729 247.518V249.246C774.729 249.826 774.807 250.257 774.963 250.54C775.122 250.82 775.376 250.96 775.725 250.96C776.07 250.96 776.319 250.825 776.472 250.555C776.625 250.285 776.704 249.871 776.711 249.314V247.625Z" fill="white"/>
<path opacity="0.5" d="M733.693 166.504L734.104 162.891H738.088V164.067H735.261L735.085 165.596C735.42 165.417 735.777 165.327 736.154 165.327C736.831 165.327 737.362 165.537 737.746 165.957C738.13 166.377 738.322 166.965 738.322 167.72C738.322 168.179 738.225 168.59 738.029 168.955C737.837 169.316 737.561 169.598 737.199 169.8C736.838 169.998 736.411 170.098 735.92 170.098C735.49 170.098 735.091 170.011 734.724 169.839C734.356 169.663 734.064 169.417 733.85 169.102C733.638 168.786 733.526 168.426 733.513 168.022H734.909C734.938 168.319 735.041 168.55 735.217 168.716C735.396 168.879 735.629 168.96 735.915 168.96C736.234 168.96 736.48 168.846 736.652 168.618C736.825 168.387 736.911 168.062 736.911 167.642C736.911 167.238 736.812 166.929 736.613 166.714C736.415 166.499 736.133 166.392 735.769 166.392C735.433 166.392 735.161 166.479 734.953 166.655L734.816 166.782L733.693 166.504ZM743.859 164.78C743.859 165.125 743.773 165.431 743.601 165.698C743.428 165.965 743.19 166.178 742.888 166.338C743.233 166.504 743.506 166.733 743.708 167.026C743.91 167.316 744.011 167.658 744.011 168.052C744.011 168.683 743.796 169.183 743.366 169.551C742.937 169.915 742.352 170.098 741.613 170.098C740.874 170.098 740.288 169.914 739.855 169.546C739.423 169.178 739.206 168.68 739.206 168.052C739.206 167.658 739.307 167.314 739.509 167.021C739.711 166.729 739.982 166.501 740.324 166.338C740.021 166.178 739.784 165.965 739.611 165.698C739.442 165.431 739.357 165.125 739.357 164.78C739.357 164.175 739.559 163.693 739.963 163.335C740.367 162.974 740.915 162.793 741.608 162.793C742.299 162.793 742.845 162.972 743.249 163.33C743.656 163.685 743.859 164.168 743.859 164.78ZM742.595 167.949C742.595 167.64 742.505 167.393 742.326 167.207C742.147 167.021 741.906 166.929 741.604 166.929C741.304 166.929 741.065 167.021 740.886 167.207C740.707 167.389 740.617 167.637 740.617 167.949C740.617 168.252 740.705 168.496 740.881 168.682C741.057 168.867 741.301 168.96 741.613 168.96C741.919 168.96 742.159 168.87 742.331 168.691C742.507 168.512 742.595 168.265 742.595 167.949ZM742.448 164.849C742.448 164.572 742.375 164.351 742.229 164.185C742.082 164.015 741.875 163.931 741.608 163.931C741.345 163.931 741.14 164.012 740.993 164.175C740.847 164.338 740.773 164.562 740.773 164.849C740.773 165.132 740.847 165.36 740.993 165.532C741.14 165.705 741.346 165.791 741.613 165.791C741.88 165.791 742.085 165.705 742.229 165.532C742.375 165.36 742.448 165.132 742.448 164.849ZM752.243 167.061C752.243 168.044 752.04 168.796 751.633 169.316C751.226 169.837 750.63 170.098 749.846 170.098C749.071 170.098 748.479 169.842 748.068 169.331C747.658 168.82 747.448 168.088 747.438 167.134V165.825C747.438 164.832 747.644 164.079 748.054 163.564C748.467 163.05 749.061 162.793 749.836 162.793C750.611 162.793 751.203 163.049 751.613 163.56C752.023 164.067 752.233 164.798 752.243 165.752V167.061ZM750.832 165.625C750.832 165.036 750.751 164.608 750.588 164.341C750.428 164.071 750.178 163.936 749.836 163.936C749.504 163.936 749.258 164.064 749.099 164.321C748.942 164.575 748.859 164.974 748.85 165.518V167.246C748.85 167.826 748.928 168.257 749.084 168.54C749.243 168.82 749.497 168.96 749.846 168.96C750.191 168.96 750.44 168.825 750.593 168.555C750.746 168.285 750.826 167.871 750.832 167.314V165.625ZM757.985 167.061C757.985 168.044 757.782 168.796 757.375 169.316C756.968 169.837 756.372 170.098 755.588 170.098C754.813 170.098 754.221 169.842 753.811 169.331C753.4 168.82 753.19 168.088 753.181 167.134V165.825C753.181 164.832 753.386 164.079 753.796 163.564C754.209 163.05 754.803 162.793 755.578 162.793C756.353 162.793 756.945 163.049 757.355 163.56C757.766 164.067 757.976 164.798 757.985 165.752V167.061ZM756.574 165.625C756.574 165.036 756.493 164.608 756.33 164.341C756.171 164.071 755.92 163.936 755.578 163.936C755.246 163.936 755 164.064 754.841 164.321C754.685 164.575 754.602 164.974 754.592 165.518V167.246C754.592 167.826 754.67 168.257 754.826 168.54C754.986 168.82 755.24 168.96 755.588 168.96C755.933 168.96 756.182 168.825 756.335 168.555C756.488 168.285 756.568 167.871 756.574 167.314V165.625ZM763.728 167.061C763.728 168.044 763.524 168.796 763.117 169.316C762.71 169.837 762.115 170.098 761.33 170.098C760.555 170.098 759.963 169.842 759.553 169.331C759.143 168.82 758.933 168.088 758.923 167.134V165.825C758.923 164.832 759.128 164.079 759.538 163.564C759.951 163.05 760.546 162.793 761.32 162.793C762.095 162.793 762.688 163.049 763.098 163.56C763.508 164.067 763.718 164.798 763.728 165.752V167.061ZM762.316 165.625C762.316 165.036 762.235 164.608 762.072 164.341C761.913 164.071 761.662 163.936 761.32 163.936C760.988 163.936 760.743 164.064 760.583 164.321C760.427 164.575 760.344 164.974 760.334 165.518V167.246C760.334 167.826 760.412 168.257 760.568 168.54C760.728 168.82 760.982 168.96 761.33 168.96C761.675 168.96 761.924 168.825 762.077 168.555C762.23 168.285 762.31 167.871 762.316 167.314V165.625ZM764.816 169.307C764.816 169.082 764.891 168.9 765.041 168.76C765.194 168.62 765.384 168.55 765.612 168.55C765.843 168.55 766.034 168.62 766.184 168.76C766.337 168.9 766.413 169.082 766.413 169.307C766.413 169.528 766.338 169.709 766.188 169.849C766.039 169.985 765.847 170.054 765.612 170.054C765.381 170.054 765.191 169.985 765.041 169.849C764.891 169.709 764.816 169.528 764.816 169.307ZM772.38 167.061C772.38 168.044 772.176 168.796 771.77 169.316C771.363 169.837 770.767 170.098 769.982 170.098C769.208 170.098 768.615 169.842 768.205 169.331C767.795 168.82 767.585 168.088 767.575 167.134V165.825C767.575 164.832 767.78 164.079 768.19 163.564C768.604 163.05 769.198 162.793 769.973 162.793C770.747 162.793 771.34 163.049 771.75 163.56C772.16 164.067 772.37 164.798 772.38 165.752V167.061ZM770.969 165.625C770.969 165.036 770.887 164.608 770.725 164.341C770.565 164.071 770.314 163.936 769.973 163.936C769.641 163.936 769.395 164.064 769.235 164.321C769.079 164.575 768.996 164.974 768.986 165.518V167.246C768.986 167.826 769.064 168.257 769.221 168.54C769.38 168.82 769.634 168.96 769.982 168.96C770.327 168.96 770.576 168.825 770.729 168.555C770.882 168.285 770.962 167.871 770.969 167.314V165.625ZM778.122 167.061C778.122 168.044 777.919 168.796 777.512 169.316C777.105 169.837 776.509 170.098 775.725 170.098C774.95 170.098 774.357 169.842 773.947 169.331C773.537 168.82 773.327 168.088 773.317 167.134V165.825C773.317 164.832 773.522 164.079 773.933 163.564C774.346 163.05 774.94 162.793 775.715 162.793C776.49 162.793 777.082 163.049 777.492 163.56C777.902 164.067 778.112 164.798 778.122 165.752V167.061ZM776.711 165.625C776.711 165.036 776.63 164.608 776.467 164.341C776.307 164.071 776.057 163.936 775.715 163.936C775.383 163.936 775.137 164.064 774.978 164.321C774.821 164.575 774.738 164.974 774.729 165.518V167.246C774.729 167.826 774.807 168.257 774.963 168.54C775.122 168.82 775.376 168.96 775.725 168.96C776.07 168.96 776.319 168.825 776.472 168.555C776.625 168.285 776.704 167.871 776.711 167.314V165.625Z" fill="white"/>
<defs>
<filter id="filter0_i" x="528" y="189" width="10" height="14" filterUnits="userSpaceOnUse" color-interpolation-filters="sRGB">
<feFlood flood-opacity="0" result="BackgroundImageFix"/>
<feBlend mode="normal" in="SourceGraphic" in2="BackgroundImageFix" result="shape"/>
<feColorMatrix in="SourceAlpha" type="matrix" values="0 0 0 0 0 0 0 0 0 0 0 0 0 0 0 0 0 0 127 0" result="hardAlpha"/>
<feOffset dy="4"/>
<feGaussianBlur stdDeviation="6.5"/>
<feComposite in2="hardAlpha" operator="arithmetic" k2="-1" k3="1"/>
<feColorMatrix type="matrix" values="0 0 0 0 1 0 0 0 0 1 0 0 0 0 1 0 0 0 0.35 0"/>
<feBlend mode="normal" in2="shape" result="effect1_innerShadow"/>
</filter>
<filter id="filter1_b" x="307" y="162" width="88" height="369" filterUnits="userSpaceOnUse" color-interpolation-filters="sRGB">
<feFlood flood-opacity="0" result="BackgroundImageFix"/>
<feGaussianBlur in="BackgroundImage" stdDeviation="1"/>
<feComposite in2="SourceAlpha" operator="in" result="effect1_backgroundBlur"/>
<feBlend mode="normal" in="SourceGraphic" in2="effect1_backgroundBlur" result="shape"/>
</filter>
<radialGradient id="paint0_radial" cx="0" cy="0" r="1" gradientUnits="userSpaceOnUse" gradientTransform="translate(536 195.9) rotate(-136.614) scale(10.0449)">
<stop offset="0.197499" stop-color="#29282A"/>
<stop offset="1" stop-color="#1F1F1F"/>
</radialGradient>
<radialGradient id="paint1_radial" cx="0" cy="0" r="1" gradientUnits="userSpaceOnUse" gradientTransform="translate(533.6 194.9) rotate(83.7289) scale(9.15478)">
<stop offset="0.478766" stop-color="white" stop-opacity="0"/>
<stop offset="0.510018" stop-color="white"/>
<stop offset="1" stop-color="white"/>
</radialGradient>
<radialGradient id="paint2_radial" cx="0" cy="0" r="1" gradientUnits="userSpaceOnUse" gradientTransform="translate(533.676 194.045) rotate(84.6953) scale(9.99777)">
<stop offset="0.478766" stop-color="white" stop-opacity="0"/>
<stop offset="0.510018" stop-color="white"/>
<stop offset="1" stop-color="white"/>
</radialGradient>
</defs>
</svg>
