<svg width="12" height="17" viewBox="0 0 12 17" fill="none" xmlns="http://www.w3.org/2000/svg">
<path d="M0.364686 9.13771C0.386598 9.59502 0.851605 9.37967 1.05368 9.23934C1.25575 9.099 1.29714 9.21756 1.32635 8.94898C1.3443 8.77376 1.35162 8.59762 1.34826 8.42151C1.04145 8.39033 0.733463 8.46835 0.479112 8.6417C0.352513 8.73364 0.116358 9.02399 0.362252 9.12562" fill="#F6D2A2"/>
<path d="M0.602907 9.46922C0.557407 9.46985 0.512388 9.45991 0.471439 9.44019C0.424599 9.41333 0.385879 9.37446 0.359326 9.32764C0.332773 9.28082 0.319361 9.22777 0.320494 9.17404C0.290376 9.15913 0.26454 9.13689 0.245386 9.10939C0.226232 9.0819 0.214382 9.05004 0.210938 9.01677C0.219666 8.93625 0.245974 8.85859 0.288024 8.78922C0.330074 8.71985 0.386853 8.66044 0.454397 8.61513C0.717049 8.43543 1.03561 8.35478 1.35276 8.38769H1.38928V8.42399C1.39437 8.56201 1.3903 8.70023 1.37711 8.83773V8.9587C1.36493 9.14743 1.32842 9.17646 1.23103 9.20066C1.17908 9.21664 1.12984 9.24029 1.08496 9.27082C0.944873 9.37836 0.778478 9.44685 0.602907 9.46922ZM1.22129 8.46996C0.965611 8.46603 0.715177 8.54222 0.505523 8.68771C0.451048 8.7251 0.404816 8.77313 0.369654 8.82888C0.334492 8.88463 0.311137 8.94691 0.301017 9.01193C0.304006 9.03454 0.313362 9.05585 0.328008 9.0734C0.342653 9.09095 0.361992 9.10403 0.383794 9.11113H0.408139V9.13775C0.404622 9.17975 0.412206 9.22194 0.430141 9.26013C0.448076 9.29833 0.47574 9.3312 0.510392 9.35551C0.602608 9.36972 0.69684 9.36366 0.78644 9.33774C0.876041 9.31182 0.958827 9.26667 1.02896 9.20549C1.07975 9.1701 1.13554 9.14238 1.19451 9.12323C1.25781 9.10145 1.27242 9.09662 1.28216 8.9466V8.82563C1.29355 8.705 1.29843 8.58385 1.29677 8.4627H1.22129V8.46996Z" fill="#010101"/>
<path d="M0.364258 9.13776C0.433846 9.12245 0.497354 9.0871 0.546852 9.03613L0.364258 9.13776Z" fill="#C7B199"/>
<path d="M0.363714 9.18137C0.352415 9.1849 0.340167 9.18382 0.329666 9.17837C0.319165 9.17293 0.31127 9.16356 0.307719 9.15233C0.304167 9.1411 0.30525 9.12893 0.310729 9.11849C0.316208 9.10806 0.325634 9.10021 0.336934 9.09668H0.366149C0.417594 9.08482 0.464254 9.05784 0.500051 9.01925C0.503568 9.01465 0.507964 9.01077 0.512987 9.00785C0.51801 9.00493 0.523563 9.00303 0.529328 9.00224C0.535093 9.00145 0.540957 9.0018 0.546586 9.00327C0.552215 9.00474 0.557498 9.00729 0.562134 9.01078C0.566769 9.01428 0.570667 9.01865 0.573604 9.02364C0.576541 9.02863 0.57846 9.03415 0.579252 9.03988C0.580043 9.04561 0.579691 9.05144 0.578216 9.05703C0.576741 9.06263 0.574172 9.06788 0.570655 9.07248C0.524632 9.12504 0.463421 9.16222 0.395364 9.17895H0.363714V9.18137Z" fill="#010101"/>
<path d="M1.42607 3.69612C-0.334137 3.21221 0.975674 0.978959 2.39991 1.89355L1.42607 3.69612Z" fill="#74CDDD"/>
<path d="M1.44763 3.74706H1.41355C0.912022 3.60672 0.602829 3.31154 0.544399 2.91715C0.523688 2.70272 0.563517 2.4868 0.659417 2.29362C0.755317 2.10044 0.903492 1.93765 1.08731 1.82351C1.28701 1.69795 1.52009 1.63496 1.75626 1.64273C1.99244 1.6505 2.22082 1.72866 2.41173 1.86706L2.44581 1.88884L1.44763 3.74706ZM1.69109 1.71947C1.4913 1.71972 1.2959 1.77773 1.1287 1.88642C0.958562 1.99134 0.821256 2.14137 0.732225 2.31961C0.643194 2.49785 0.60597 2.69725 0.624741 2.89537C0.678302 3.24621 0.950976 3.51236 1.39651 3.64543L2.32165 1.91061C2.13451 1.7943 1.91908 1.73073 1.69839 1.72673L1.69109 1.71947Z" fill="#010101"/>
<path d="M9.24609 1.72661C10.6387 0.75879 11.8974 2.93639 10.2784 3.50015L9.24609 1.72661Z" fill="#74CDDD"/>
<path d="M10.2587 3.55335L9.1875 1.71449L9.21915 1.69271C9.39741 1.5507 9.61423 1.46473 9.84189 1.44576C10.0696 1.4268 10.2977 1.47571 10.4973 1.58625C10.6856 1.69585 10.8397 1.85517 10.9424 2.04651C11.0451 2.23785 11.0924 2.45374 11.0792 2.67021C11.0548 2.91217 10.9234 3.32591 10.2928 3.54125L10.2587 3.55335ZM9.30436 1.73868L10.2977 3.44689C10.478 3.3983 10.6399 3.29806 10.7633 3.15866C10.8867 3.01926 10.966 2.84687 10.9915 2.66295C11.0043 2.46247 10.9607 2.26242 10.8657 2.08511C10.7707 1.90781 10.628 1.76022 10.4535 1.65884C10.2756 1.55746 10.0713 1.51092 9.86671 1.52514C9.66211 1.53936 9.46637 1.61369 9.30436 1.73868Z" fill="#010101"/>
<path d="M9.54471 14.7609C9.89773 14.9786 10.5453 15.6367 10.0146 15.9561C9.50575 16.4207 9.21847 15.4456 8.77051 15.3125C8.85656 15.1744 8.96926 15.0545 9.10214 14.9598C9.23501 14.8651 9.38542 14.7975 9.54471 14.7609Z" fill="#F6D2A2"/>
<path d="M9.74463 16.1231H9.72515C9.52308 16.111 9.35753 15.915 9.19685 15.7287C9.08583 15.5682 8.93484 15.439 8.75862 15.3537L8.7002 15.3367L8.73671 15.2762C8.91782 14.9892 9.2057 14.7848 9.53769 14.7076H9.56934C9.79576 14.848 10.2632 15.2545 10.2608 15.6222C10.2594 15.6949 10.2383 15.7658 10.1997 15.8276C10.1611 15.8893 10.1065 15.9396 10.0417 15.9731C9.96621 16.0598 9.85958 16.1136 9.74463 16.1231ZM8.83897 15.2908C9.00412 15.3873 9.14749 15.5166 9.26015 15.6706C9.36659 15.8444 9.53258 15.9741 9.72759 16.036C9.77373 16.034 9.81902 16.023 9.86082 16.0034C9.90261 15.9839 9.94009 15.9563 9.97105 15.9223C10.0241 15.8965 10.069 15.8566 10.1008 15.8071C10.1326 15.7576 10.15 15.7003 10.1512 15.6416C10.1512 15.3464 9.77628 14.9762 9.51578 14.8093C9.23825 14.8802 8.9976 15.052 8.8414 15.2908H8.83897Z" fill="#010101"/>
<path d="M10.0147 16.0021C10.0066 16.0021 9.99864 15.9998 9.99176 15.9955C9.98488 15.9912 9.97933 15.9851 9.97573 15.9779C9.94998 15.9244 9.92722 15.8694 9.90756 15.8134C9.87794 15.7039 9.8229 15.6028 9.74687 15.5182C9.74272 15.5142 9.73939 15.5095 9.73708 15.5042C9.73477 15.499 9.73352 15.4933 9.73341 15.4876C9.73329 15.4819 9.73432 15.4762 9.73642 15.4708C9.73852 15.4655 9.74166 15.4606 9.74566 15.4565C9.74965 15.4524 9.75443 15.4491 9.75971 15.4468C9.76499 15.4445 9.77068 15.4432 9.77645 15.4431C9.78221 15.443 9.78794 15.444 9.79331 15.4461C9.79868 15.4482 9.80358 15.4513 9.80774 15.4553C9.8918 15.5465 9.95347 15.6558 9.9879 15.7747C10.007 15.8274 10.0289 15.8791 10.0536 15.9295C10.0587 15.9398 10.0595 15.9517 10.0559 15.9625C10.0522 15.9734 10.0444 15.9824 10.0342 15.9876L10.0147 16.0021Z" fill="#010101"/>
<path d="M3.22248 15.5035C2.80616 15.5664 2.57244 15.9391 2.22673 16.1278C2.19046 16.1611 2.14652 16.185 2.09878 16.1975C2.05104 16.21 2.00095 16.2106 1.95289 16.1994C1.90483 16.1882 1.86028 16.1654 1.82313 16.1331C1.78598 16.1008 1.75737 16.0599 1.73981 16.0141C1.71565 16.0146 1.69167 16.0097 1.66973 15.9996C1.64778 15.9896 1.62845 15.9746 1.61321 15.956C1.31132 15.4721 1.92727 15.1358 2.25107 14.8986C2.70634 14.8115 2.98632 15.1962 3.22248 15.5035Z" fill="#F6D2A2"/>
<path d="M2.00735 16.244C1.98149 16.2474 1.9553 16.2474 1.92944 16.244C1.88375 16.2293 1.84147 16.2057 1.8051 16.1745C1.76872 16.1433 1.73898 16.1053 1.71763 16.0625C1.69412 16.0624 1.671 16.0565 1.65023 16.0456C1.62946 16.0346 1.61166 16.0189 1.59833 15.9996C1.30618 15.5423 1.80284 15.1963 2.13151 14.9664L2.24594 14.8842C2.70607 14.7922 2.99822 15.1697 3.23195 15.4746L3.29768 15.5617H3.22464C2.98971 15.6175 2.77588 15.7392 2.60869 15.9125C2.49656 16.015 2.3742 16.1058 2.2435 16.1835C2.17122 16.2232 2.08995 16.2441 2.00735 16.244ZM1.71519 15.9633C1.73204 15.9596 1.74948 15.9596 1.76632 15.9633H1.77849L1.79797 16.002C1.8138 16.0363 1.83641 16.067 1.86443 16.0923C1.89245 16.1177 1.92533 16.1372 1.96109 16.1496C2.04675 16.1624 2.13406 16.1416 2.20455 16.0916C2.33081 16.0165 2.44909 15.929 2.55756 15.8302C2.7219 15.667 2.92304 15.5451 3.1443 15.4746C2.92032 15.1842 2.65738 14.8697 2.27515 14.9423L2.16559 15.0197C1.82962 15.2616 1.41331 15.5472 1.65433 15.9319C1.65973 15.941 1.66714 15.9488 1.67599 15.9546C1.68484 15.9605 1.69492 15.9643 1.70546 15.9657L1.71519 15.9633Z" fill="#010101"/>
<path d="M1.74755 16.0601C1.74033 16.0605 1.73312 16.0591 1.72656 16.0561C1.72001 16.0531 1.7143 16.0485 1.70996 16.0427C1.70562 16.037 1.70278 16.0302 1.7017 16.0231C1.70061 16.016 1.70131 16.0088 1.70373 16.002C1.72168 15.8858 1.77042 15.7764 1.84494 15.685C1.88018 15.637 1.91114 15.586 1.93745 15.5326C1.94229 15.522 1.95117 15.5138 1.96213 15.5097C1.97309 15.5056 1.98523 15.506 1.99588 15.5108C2.00654 15.5156 2.01483 15.5245 2.01894 15.5354C2.02305 15.5462 2.02264 15.5583 2.01779 15.5689C1.98952 15.6274 1.95612 15.6832 1.91798 15.7359C1.85369 15.8181 1.81252 15.9157 1.79868 16.0189C1.79842 16.0251 1.79684 16.0312 1.79405 16.0367C1.79125 16.0422 1.78731 16.0471 1.78247 16.051C1.77763 16.0549 1.77202 16.0577 1.766 16.0593C1.75998 16.0608 1.75369 16.0611 1.74755 16.0601ZM1.49923 3.08156C1.25577 2.96058 1.09752 2.79363 1.23872 2.52748C1.37993 2.26133 1.61365 2.3073 1.84737 2.42828L1.49923 3.08156ZM9.91074 2.84928C10.1542 2.7283 10.3124 2.56135 10.1712 2.2952C10.03 2.02905 9.79631 2.07502 9.56259 2.196L9.91074 2.84928Z" fill="#010101"/>
<path d="M11.5098 9.07972C11.4878 9.53702 11.0228 9.32168 10.8208 9.18134C10.6187 9.04101 10.5773 9.15957 10.5481 8.891C10.5301 8.71577 10.5228 8.53963 10.5262 8.36353C10.833 8.33235 11.141 8.41037 11.3953 8.58371C11.5219 8.67565 11.7581 8.966 11.5122 9.06762" fill="#F6D2A2"/>
<path d="M11.2714 9.4015C11.1041 9.38342 10.9441 9.32348 10.8064 9.22729C10.7616 9.19676 10.7123 9.17311 10.6604 9.15712C10.563 9.12325 10.5265 9.09422 10.5143 8.91517V8.79419C10.5011 8.6567 10.497 8.51848 10.5021 8.38045V8.32238H10.5386C10.8558 8.28947 11.1743 8.37012 11.437 8.54982C11.5045 8.59513 11.5613 8.65454 11.6034 8.72392C11.6454 8.79329 11.6717 8.87094 11.6805 8.95146C11.677 8.98473 11.6652 9.01659 11.646 9.04409C11.6269 9.07158 11.601 9.09382 11.5709 9.10873C11.572 9.16247 11.5586 9.21551 11.5321 9.26233C11.5055 9.30915 11.4668 9.34802 11.42 9.37488C11.3736 9.39642 11.3224 9.40559 11.2714 9.4015ZM10.563 8.40465C10.5613 8.5258 10.5662 8.64695 10.5776 8.76758V8.88856C10.5776 9.03615 10.5995 9.04099 10.6652 9.06518C10.7242 9.08433 10.78 9.11205 10.8308 9.14745C10.9008 9.20877 10.9836 9.254 11.0732 9.27993C11.1629 9.30586 11.2571 9.31184 11.3494 9.29746C11.384 9.27316 11.4117 9.24028 11.4296 9.20209C11.4475 9.16389 11.4551 9.1217 11.4516 9.0797V9.05067H11.476C11.4978 9.04356 11.5171 9.03048 11.5317 9.01293C11.5464 8.99538 11.5557 8.97407 11.5587 8.95146C11.5486 8.88644 11.5253 8.82416 11.4901 8.76841C11.4549 8.71267 11.4087 8.66463 11.3542 8.62725C11.1236 8.46588 10.8445 8.38738 10.563 8.40465Z" fill="#010101"/>
<path d="M11.5097 9.07971C11.441 9.06643 11.3776 9.03366 11.3271 8.98535L11.5097 9.07971Z" fill="#C7B199"/>
<path d="M11.5099 9.12327H11.4636C11.3954 9.10172 11.3358 9.05939 11.2932 9.00229C11.2897 8.99768 11.2871 8.99243 11.2856 8.98684C11.2842 8.98125 11.2838 8.97542 11.2846 8.96969C11.2854 8.96396 11.2873 8.95844 11.2902 8.95345C11.2932 8.94846 11.2971 8.94409 11.3017 8.94059C11.3063 8.9371 11.3116 8.93455 11.3173 8.93308C11.3229 8.93161 11.3288 8.93126 11.3345 8.93205C11.3403 8.93284 11.3458 8.93474 11.3509 8.93766C11.3559 8.94058 11.3603 8.94445 11.3638 8.94906C11.3996 8.98765 11.4462 9.01463 11.4977 9.02649H11.5269C11.5398 9.02873 11.5513 9.03598 11.5588 9.04665C11.5664 9.05731 11.5693 9.07051 11.5671 9.08335C11.5648 9.09618 11.5575 9.1076 11.5468 9.11508C11.5361 9.12257 11.5228 9.12551 11.5099 9.12327Z" fill="#010101"/>
<path d="M5.76234 0.802368C7.52498 0.802368 9.17077 1.04432 10.0375 2.73801C10.8092 4.62285 10.5244 6.6577 10.6534 8.64899C10.7557 10.3596 10.9797 12.3364 10.1811 13.9236C9.34606 15.5883 7.2377 16.002 5.50914 15.9464C4.15064 15.898 2.50972 15.4625 1.74283 14.2237C0.842028 12.7719 1.26808 10.6233 1.33382 9.01434C1.41172 7.10773 0.812813 5.19386 1.44337 3.32597C2.09828 1.39032 3.86092 0.952381 5.7599 0.802368" fill="#74CDDD"/>
<path d="M5.80816 16.002H5.50627C4.78057 15.9818 4.06357 15.8394 3.38574 15.581C2.69563 15.3324 2.10531 14.868 1.70344 14.2575C0.97306 13.0865 1.10453 11.4702 1.21652 10.0427C1.24573 9.68458 1.27252 9.34342 1.28469 9.02404C1.29759 8.34702 1.26832 7.66987 1.19704 6.99645C1.09479 5.78667 0.987668 4.53576 1.39668 3.32356C1.52864 2.89768 1.7483 2.50373 2.04168 2.16676C2.33507 1.82978 2.69578 1.55713 3.10089 1.36614C3.75823 1.04675 4.56165 0.862868 5.74243 0.770925C7.48072 0.758827 9.19468 1.00078 10.076 2.71625C10.6408 4.0954 10.6481 5.57617 10.6579 7.00855C10.6579 7.54569 10.6579 8.09977 10.6968 8.64175C10.6968 8.80628 10.7163 8.97323 10.7285 9.14018C10.8307 10.7105 10.9476 12.4937 10.2196 13.9357C9.3091 15.7407 7.02059 16.002 5.80816 16.002ZM5.7619 0.845931C3.92866 1.00078 2.14166 1.39275 1.48432 3.3405C1.08018 4.53576 1.1873 5.77699 1.28712 6.96983C1.35864 7.64647 1.38791 8.32686 1.37477 9.0071C1.3626 9.3289 1.33338 9.67006 1.3066 10.0306C1.19461 11.4436 1.06314 13.0478 1.77648 14.1922C2.07593 14.6761 3.04003 15.8061 5.50871 15.8859C6.57749 15.9246 9.16059 15.8036 10.1344 13.8825C10.8502 12.4598 10.7358 10.6911 10.6335 9.1305C10.6335 8.96113 10.6116 8.79418 10.6019 8.63207C10.5751 8.10461 10.5629 7.54811 10.5629 7.01097C10.5629 5.58826 10.5483 4.1075 9.98835 2.75254C9.62817 2.01599 8.99053 1.45009 8.21354 1.17741C7.42135 0.928691 6.59216 0.816579 5.7619 0.845931Z" fill="#010101"/>
<path d="M6.07143 3.15178C6.38792 4.97854 9.39221 4.49705 8.96129 2.65335C8.57419 1.00079 5.96674 1.45808 6.07143 3.15178Z" fill="white"/>
<path d="M7.49973 4.3446C7.31259 4.34539 7.12663 4.31513 6.94951 4.25508C6.70853 4.17585 6.49465 4.03122 6.33202 3.83754C6.1694 3.64385 6.06452 3.40883 6.02924 3.15902C6.01288 2.96347 6.03825 2.7667 6.1037 2.58157C6.16915 2.39645 6.2732 2.22714 6.40903 2.08474C6.66958 1.81908 7.0127 1.64858 7.38287 1.60083C7.72213 1.54746 8.06962 1.60701 8.37131 1.7702C8.53225 1.86361 8.67158 1.98967 8.78022 2.14017C8.88887 2.29066 8.96439 2.46222 9.00187 2.64366C9.0674 2.87306 9.06701 3.11611 9.00075 3.3453C8.93449 3.5745 8.80501 3.78069 8.62695 3.94054C8.31281 4.2064 7.9123 4.34997 7.49973 4.3446ZM6.11445 3.14692C6.14777 3.38134 6.24636 3.60184 6.39907 3.78354C6.55179 3.96523 6.75256 4.1009 6.97873 4.17524C7.24818 4.26479 7.53623 4.28423 7.81539 4.23171C8.09455 4.17918 8.35552 4.05645 8.57339 3.87521C8.73749 3.72469 8.85677 3.53222 8.91817 3.31884C8.97958 3.10547 8.98074 2.87942 8.92153 2.66543C8.84681 2.33637 8.64556 2.0494 8.36077 1.86585C8.07599 1.68229 7.73027 1.6167 7.39748 1.68309C7.03431 1.71399 6.69745 1.88396 6.45805 2.1571C6.21864 2.43025 6.09543 2.78518 6.11445 3.14692Z" fill="#010101"/>
<path d="M2.48 3.44937C2.88902 5.03902 5.45021 4.63011 5.35526 3.03563C5.24083 1.12418 2.08804 1.48469 2.48 3.44937Z" fill="white"/>
<path d="M3.84819 4.49705C3.58777 4.49899 3.33095 4.43664 3.10077 4.31558C2.93599 4.22684 2.792 4.10441 2.67828 3.95636C2.56456 3.80831 2.48369 3.638 2.44099 3.45664C2.3775 3.20914 2.38689 2.94873 2.46803 2.70638C2.54917 2.46403 2.69865 2.24994 2.8987 2.08959C3.14057 1.90618 3.42687 1.78945 3.72867 1.75122C4.03047 1.71298 4.33708 1.75459 4.61752 1.87183C4.84564 1.97096 5.04033 2.13309 5.17844 2.33898C5.31654 2.54486 5.39226 2.78582 5.39659 3.03322C5.44771 3.88006 4.7709 4.37365 4.1233 4.48495C4.03204 4.49604 3.94007 4.50008 3.84819 4.49705ZM2.52864 3.4397C2.6129 3.77604 2.82679 4.06598 3.12419 4.24703C3.42159 4.42808 3.77866 4.48572 4.11843 4.40753C4.73194 4.31074 5.37224 3.84619 5.32355 3.05016C5.32061 2.81734 5.25013 2.59032 5.12058 2.39633C4.99103 2.20234 4.8079 2.04963 4.59317 1.95652C4.32653 1.84529 4.03508 1.80596 3.74824 1.84249C3.46141 1.87903 3.18936 1.99014 2.95956 2.1646C2.77346 2.31465 2.63412 2.5142 2.55782 2.73997C2.48152 2.96575 2.4714 3.20843 2.52864 3.4397Z" fill="#010101"/>
<path d="M6.42427 5.35592C6.4477 5.60782 6.4477 5.86134 6.42427 6.11324C6.35299 6.20292 6.25209 6.26463 6.13942 6.28745C6.07013 6.27688 6.00462 6.24918 5.9489 6.20691C5.89317 6.16464 5.84902 6.10913 5.82049 6.0455C5.80485 5.75986 5.81218 5.47344 5.8424 5.18896L6.42427 5.35592Z" fill="white"/>
<path d="M6.16551 6.32379H6.15334C6.07595 6.31184 6.0029 6.28046 5.94113 6.23261C5.87935 6.18477 5.83089 6.12204 5.80032 6.05038C5.7801 5.85491 5.7801 5.6579 5.80032 5.46243C5.80032 5.37291 5.81493 5.27854 5.81736 5.1866V5.11401L6.4747 5.31484V5.35597C6.4747 5.43339 6.4747 5.51566 6.48688 5.59792C6.50885 5.77064 6.50885 5.94541 6.48688 6.11813V6.13022C6.46136 6.17163 6.42774 6.20752 6.38801 6.23579C6.34829 6.26405 6.30326 6.2841 6.25559 6.29475L6.18012 6.32379H6.16551ZM5.8831 6.01892C5.90745 6.07418 5.94503 6.12269 5.99255 6.16022C6.04008 6.19775 6.09611 6.22317 6.15577 6.23426L6.22394 6.20765C6.29731 6.1901 6.361 6.14501 6.40167 6.08183C6.42099 5.9211 6.42099 5.75865 6.40167 5.59792C6.40167 5.52292 6.40167 5.45033 6.38949 5.37774L5.90258 5.23015C5.90258 5.30516 5.90257 5.38016 5.88797 5.45275C5.8664 5.63994 5.86395 5.82882 5.88066 6.0165L5.8831 6.01892Z" fill="#010101"/>
<path d="M3.18629 3.65501C3.42562 3.65501 3.61964 3.44594 3.61964 3.18804C3.61964 2.93014 3.42562 2.72107 3.18629 2.72107C2.94695 2.72107 2.75293 2.93014 2.75293 3.18804C2.75293 3.44594 2.94695 3.65501 3.18629 3.65501Z" fill="#010101"/>
<path d="M3.3835 3.41302C3.43998 3.41302 3.48575 3.35994 3.48575 3.29446C3.48575 3.22898 3.43998 3.1759 3.3835 3.1759C3.32703 3.1759 3.28125 3.22898 3.28125 3.29446C3.28125 3.35994 3.32703 3.41302 3.3835 3.41302Z" fill="white"/>
<path d="M6.81375 3.53893C7.04906 3.53893 7.23981 3.32986 7.23981 3.07195C7.23981 2.81405 7.04906 2.60498 6.81375 2.60498C6.57845 2.60498 6.3877 2.81405 6.3877 3.07195C6.3877 3.32986 6.57845 3.53893 6.81375 3.53893Z" fill="#010101"/>
<path d="M7.00607 3.29693C7.0612 3.29693 7.10589 3.24385 7.10589 3.17837C7.10589 3.11289 7.0612 3.05981 7.00607 3.05981C6.95094 3.05981 6.90625 3.11289 6.90625 3.17837C6.90625 3.24385 6.95094 3.29693 7.00607 3.29693Z" fill="white"/>
<path d="M5.20644 5.3197C5.01654 5.77457 5.31113 6.68432 5.82482 6.01411C5.80919 5.72848 5.81651 5.44206 5.84673 5.15759L5.20644 5.3197Z" fill="white"/>
<path d="M5.47179 6.29723C5.42727 6.29766 5.38348 6.28594 5.34519 6.26336C5.13825 6.1448 5.00922 5.65847 5.15529 5.29553V5.27617L5.88567 5.09229V5.15035C5.88567 5.24472 5.88567 5.33908 5.86863 5.42861C5.84881 5.61844 5.84881 5.8098 5.86863 5.99963V6.03108C5.8292 6.10413 5.77246 6.16654 5.70332 6.21291C5.63417 6.25928 5.55471 6.28822 5.47179 6.29723ZM5.23077 5.35602C5.12608 5.63911 5.20885 6.08189 5.39145 6.18593C5.52292 6.26094 5.66899 6.13028 5.77125 5.99963C5.75273 5.80973 5.75273 5.6185 5.77125 5.42861C5.77125 5.35844 5.77125 5.28343 5.78585 5.21084L5.23077 5.35602Z" fill="#010101"/>
<path d="M5.26252 4.44388C5.17472 4.45218 5.09015 4.48107 5.01577 4.52816C4.94139 4.57526 4.87931 4.63922 4.83463 4.71479C4.78996 4.79037 4.76396 4.8754 4.75878 4.9629C4.75359 5.0504 4.76937 5.13787 4.80482 5.21813C5.04827 5.65365 5.58875 5.17942 5.92473 5.21813C6.31183 5.21813 6.63076 5.62461 6.94238 5.29072C7.2881 4.91811 6.79387 4.56485 6.40677 4.39307L5.26252 4.44388Z" fill="#F6D2A2"/>
<path d="M6.66695 5.47463C6.54318 5.46439 6.42253 5.43072 6.3115 5.37543C6.1911 5.31635 6.06062 5.28023 5.92683 5.26896C5.7874 5.26891 5.64958 5.29861 5.52269 5.35607C5.25002 5.45043 4.94082 5.55689 4.76553 5.24477C4.72204 5.16707 4.69922 5.07963 4.69922 4.99072C4.69922 4.9018 4.72204 4.81436 4.76553 4.73666C4.81282 4.64573 4.88204 4.56786 4.96701 4.51001C5.05198 4.45216 5.15005 4.41615 5.25245 4.40518L6.42349 4.35437C6.71077 4.47535 7.03944 4.69553 7.09543 4.952C7.10391 5.01462 7.09937 5.0783 7.08211 5.1391C7.06485 5.19991 7.03522 5.25655 6.99507 5.30553C6.95491 5.35451 6.90507 5.39479 6.84864 5.42387C6.7922 5.45296 6.73036 5.47023 6.66695 5.47463ZM5.93657 5.18186C6.08051 5.19347 6.22095 5.23206 6.35045 5.29558C6.56956 5.38752 6.74242 5.45769 6.91771 5.26896C6.95774 5.23241 6.98786 5.18644 7.0053 5.13527C7.02275 5.08411 7.02695 5.0294 7.01753 4.9762C6.96883 4.7536 6.65964 4.55035 6.40645 4.44389L5.27436 4.48987C5.18723 4.50047 5.10401 4.53202 5.0319 4.58176C4.95979 4.63151 4.90095 4.69796 4.86048 4.77537C4.82446 4.8402 4.80557 4.91304 4.80557 4.98709C4.80557 5.06114 4.82446 5.13398 4.86048 5.1988C4.99925 5.44075 5.24758 5.36091 5.51295 5.27138C5.6462 5.21211 5.79058 5.1816 5.93657 5.18186Z" fill="#231F20"/>
<path d="M5.20651 4.42692C5.17973 3.82202 6.34346 3.7446 6.4798 4.25271C6.61613 4.76082 5.26251 4.87696 5.20651 4.42692Z" fill="#010101"/>
</svg>
