<svg width="466" height="31" viewBox="0 0 466 31" fill="none" xmlns="http://www.w3.org/2000/svg">
<path d="M14.1057 9L1 26V29C1 30.1046 1.89543 31 3 31H231.5C232.605 31 233.5 30.1046 233.5 29V26L226.5 17L218.5 20L202.5 7.5L195 11.5L184 3.5L171.5 11.5L160 5.5L151.5 13.5L141 7.5L132 2L125 5.5L120.463 1L112.398 13.5H107.358L99.2927 9L91.2276 12L82.6585 18L77.6179 23.5L72.5772 21H66.5285L55.439 9L43.3415 15L29.2276 9L20.1545 15L14.1057 9Z" fill="url(#paint0_linear)"/>
<path d="M1 26L14.1057 9L20.1545 15L29.2276 9L43.3415 15L55.439 9L66.5285 21H72.5772L77.6179 23.5L82.6585 18L91.2276 12L99.2927 9L107.358 13.5H112.398L120.463 1L125 5.5L132 2L141 7.5L151.5 13.5L160 5.5L171.5 11.5L184 3.5L195 11.5L202.5 7.5L218.5 20L226.5 17L233.5 26" stroke="#EFD9AF" stroke-opacity="0.5"/>
<path d="M246.106 9L233 26V29C233 30.1046 233.895 31 235 31H463.5C464.605 31 465.5 30.1046 465.5 29V26L458.5 17L450.5 20L434.5 7.5L427 11.5L416 3.5L403.5 11.5L392 5.5L383.5 13.5L373 7.5L364 2L357 5.5L352.463 1L344.398 13.5H339.358L331.293 9L323.228 12L314.659 18L309.618 23.5L304.577 21H298.528L287.439 9L275.341 15L261.228 9L252.154 15L246.106 9Z" fill="url(#paint1_linear)"/>
<path d="M233 26L246.106 9L252.154 15L261.228 9L275.341 15L287.439 9L298.528 21H304.577L309.618 23.5L314.659 18L323.228 12L331.293 9L339.358 13.5H344.398L352.463 1L357 5.5L364 2L373 7.5L383.5 13.5L392 5.5L403.5 11.5L416 3.5L427 11.5L434.5 7.5L450.5 20L458.5 17L465.5 26" stroke="#EFD9AF" stroke-opacity="0.5"/>
<defs>
<linearGradient id="paint0_linear" x1="63" y1="1" x2="63" y2="31" gradientUnits="userSpaceOnUse">
<stop stop-color="#FFEA7A" stop-opacity="0.33"/>
<stop offset="1" stop-color="#C4C4C4" stop-opacity="0"/>
</linearGradient>
<linearGradient id="paint1_linear" x1="295" y1="1" x2="295" y2="31" gradientUnits="userSpaceOnUse">
<stop stop-color="#FFEA7A" stop-opacity="0.33"/>
<stop offset="1" stop-color="#C4C4C4" stop-opacity="0"/>
</linearGradient>
</defs>
</svg>
