<svg width="466" height="31" viewBox="0 0 466 31" fill="none" xmlns="http://www.w3.org/2000/svg">
<path d="M8.5 2L1 25.5V28C1 29.6569 2.34315 31 4 31H230C231.657 31 233 29.6569 233 28V25.5L226.5 14.5L222 19.0833L211.5 15.5L197.5 21.0694L188 17.7083L180 22.9028L174 14.5L168 21.0694L160 24L155 19.0833L147 11L135.5 16.1042L125 14.5L122 11L118.5 15.5L114 17L107 15.5L98.5 18.5L79.5 11L74 14.5L61 11.5L51 26.5L41 15L31 23L21.5 12H17L8.5 2Z" fill="url(#paint0_linear)"/>
<path d="M1 25.5L8.5 2L17 12H21.5L31 23L41 15L51 26.5L61 11.5L74 14.5L79.5 11L98.5 18.5L107 15.5L114 17L118.5 15.5L122 11L125 14.5L135.5 16.1042L147 11L155 19.0833L160 24L168 21.0694L174 14.5L180 22.9028L188 17.7083L197.5 21.0694L211.5 15.5L222 19.0833L226.5 14.5L233 25.5" stroke="#7A5CF0" stroke-opacity="0.5"/>
<path d="M240.5 2L233 25.5V28C233 29.6569 234.343 31 236 31H462C463.657 31 465 29.6569 465 28V25.5L458.5 14.5L454 19.0833L443.5 15.5L429.5 21.0694L420 17.7083L412 22.9028L406 14.5L400 21.0694L392 24L387 19.0833L379 11L367.5 16.1042L357 14.5L354 11L350.5 15.5L346 17L339 15.5L330.5 18.5L311.5 11L306 14.5L293 11.5L283 26.5L273 15L263 23L253.5 12H249L240.5 2Z" fill="url(#paint1_linear)"/>
<path d="M233 25.5L240.5 2L249 12H253.5L263 23L273 15L283 26.5L293 11.5L306 14.5L311.5 11L330.5 18.5L339 15.5L346 17L350.5 15.5L354 11L357 14.5L367.5 16.1042L379 11L387 19.0833L392 24L400 21.0694L406 14.5L412 22.9028L420 17.7083L429.5 21.0694L443.5 15.5L454 19.0833L458.5 14.5L465 25.5" stroke="#7A5CF0" stroke-opacity="0.5"/>
<defs>
<linearGradient id="paint0_linear" x1="63" y1="6.37153e-08" x2="63" y2="31" gradientUnits="userSpaceOnUse">
<stop stop-color="#5736DD" stop-opacity="0.33"/>
<stop offset="1" stop-color="#C4C4C4" stop-opacity="0"/>
</linearGradient>
<linearGradient id="paint1_linear" x1="295" y1="6.37153e-08" x2="295" y2="31" gradientUnits="userSpaceOnUse">
<stop stop-color="#5736DD" stop-opacity="0.33"/>
<stop offset="1" stop-color="#C4C4C4" stop-opacity="0"/>
</linearGradient>
</defs>
</svg>
