<svg width="466" height="32" viewBox="0 0 466 32" fill="none" xmlns="http://www.w3.org/2000/svg">
<path d="M8 17.5L1 26.5V29C1 30.6569 2.34315 32 4 32H230C231.657 32 233 30.6569 233 29V26.5L226.5 21.5L217.5 23L204.5 14L198 17L184 10.5L178 16.589L174 4.5L165 12.5H158L154 6.5L139.5 14L134 12.5L125 15.5L120 10.5L115 7L108 6.5L100.5 10.5L88.5 1.5L82.6585 18.5L75.5 12.5L68 12L56 22L45 1L29.5 6L22.5 3L15.5 18.5L8 17.5Z" fill="url(#paint0_linear)"/>
<path d="M1 27L8 18L15.5 19L22.5 3.5L29.5 6.5L45 1.5L56 22.5L68 12.5L75.5 13L82.6585 19L88.5 2L100.5 11L108 7L115 7.5L120 11L125 16L134 13L139.5 14.5L154 7L158 13H165L174 5L178 17.089L184 11L198 17.5L204.5 14.5L217.5 23.5L226.5 22L233 27" stroke="#AFC1EF" stroke-opacity="0.5"/>
<path d="M240 17.5L233 26.5V29C233 30.6569 234.343 32 236 32H462C463.657 32 465 30.6569 465 29V26.5L458.5 21.5L449.5 23L436.5 14L430 17L416 10.5L410 16.589L406 4.5L397 12.5H390L386 6.5L371.5 14L366 12.5L357 15.5L352 10.5L347 7L340 6.5L332.5 10.5L320.5 1.5L314.659 18.5L307.5 12.5L300 12L288 22L277 1L261.5 6L254.5 3L247.5 18.5L240 17.5Z" fill="url(#paint1_linear)"/>
<path d="M233 27L240 18L247.5 19L254.5 3.5L261.5 6.5L277 1.5L288 22.5L300 12.5L307.5 13L314.659 19L320.5 2L332.5 11L340 7L347 7.5L352 11L357 16L366 13L371.5 14.5L386 7L390 13H397L406 5L410 17.089L416 11L430 17.5L436.5 14.5L449.5 23.5L458.5 22L465 27" stroke="#AFC1EF" stroke-opacity="0.5"/>
<defs>
<linearGradient id="paint0_linear" x1="63" y1="1" x2="63" y2="32" gradientUnits="userSpaceOnUse">
<stop stop-color="#7AB7FF" stop-opacity="0.33"/>
<stop offset="1" stop-color="#C4C4C4" stop-opacity="0"/>
</linearGradient>
<linearGradient id="paint1_linear" x1="295" y1="1" x2="295" y2="32" gradientUnits="userSpaceOnUse">
<stop stop-color="#7AB7FF" stop-opacity="0.33"/>
<stop offset="1" stop-color="#C4C4C4" stop-opacity="0"/>
</linearGradient>
</defs>
</svg>
