<svg width="541" height="311" viewBox="0 0 541 311" fill="none" xmlns="http://www.w3.org/2000/svg">
<g filter="url(#filter0_b)">
<rect x="313" y="45" width="126" height="41" fill="#052E5E" fill-opacity="0.29"/>
<rect x="313.5" y="45.5" width="125" height="40" stroke="#194170"/>
</g>
<g filter="url(#filter1_b)">
<rect x="313" y="115" width="126" height="41" fill="#052E5E" fill-opacity="0.29"/>
<rect x="313.5" y="115.5" width="125" height="40" stroke="#194170"/>
</g>
<g filter="url(#filter2_b)">
<rect x="313" y="194" width="126" height="41" fill="#052E5E" fill-opacity="0.29"/>
<rect x="313.5" y="194.5" width="125" height="40" stroke="#194170"/>
</g>
<g clip-path="url(#clip0)">
<path d="M327.106 63L314 80V83C314 84.1046 314.895 85 316 85H544.5C545.605 85 546.5 84.1046 546.5 83V80L539.5 71L531.5 74L515.5 61.5L508 65.5L497 57.5L484.5 65.5L473 59.5L464.5 67.5L454 61.5L445 56L438 59.5L433.463 55L425.398 67.5H420.358L412.293 63L404.228 66L395.659 72L390.618 77.5L385.577 75H379.528L368.439 63L356.341 69L342.228 63L333.154 69L327.106 63Z" fill="url(#paint0_linear)"/>
<path d="M314 80L327.106 63L333.154 69L342.228 63L356.341 69L368.439 63L379.528 75H385.577L390.618 77.5L395.659 72L404.228 66L412.293 63L420.358 67.5H425.398L433.463 55L438 59.5L445 56L454 61.5L464.5 67.5L473 59.5L484.5 65.5L497 57.5L508 65.5L515.5 61.5L531.5 74L539.5 71L546.5 80" stroke="#EFD9AF" stroke-opacity="0.5"/>
</g>
<g clip-path="url(#clip1)">
<path d="M321 141L314 150V152.5C314 154.157 315.343 155.5 317 155.5H543C544.657 155.5 546 154.157 546 152.5V150L539.5 145L530.5 146.5L517.5 137.5L511 140.5L497 134L491 140.089L487 128L478 136H471L467 130L452.5 137.5L447 136L438 139L433 134L428 130.5L421 130L413.5 134L401.5 125L395.659 142L388.5 136L381 135.5L369 145.5L358 124.5L342.5 129.5L335.5 126.5L328.5 142L321 141Z" fill="url(#paint1_linear)"/>
<path d="M314 150.5L321 141.5L328.5 142.5L335.5 127L342.5 130L358 125L369 146L381 136L388.5 136.5L395.659 142.5L401.5 125.5L413.5 134.5L421 130.5L428 131L433 134.5L438 139.5L447 136.5L452.5 138L467 130.5L471 136.5H478L487 128.5L491 140.589L497 134.5L511 141L517.5 138L530.5 147L539.5 145.5L546 150.5" stroke="#AFC1EF" stroke-opacity="0.5"/>
</g>
<g clip-path="url(#clip2)">
<path d="M321.5 205L314 228.5V231C314 232.657 315.343 234 317 234H543C544.657 234 546 232.657 546 231V228.5L539.5 217.5L535 222.083L524.5 218.5L510.5 224.069L501 220.708L493 225.903L487 217.5L481 224.069L473 227L468 222.083L460 214L448.5 219.104L438 217.5L435 214L431.5 218.5L427 220L420 218.5L411.5 221.5L392.5 214L387 217.5L374 214.5L364 229.5L354 218L344 226L334.5 215H330L321.5 205Z" fill="url(#paint2_linear)"/>
<path d="M314 228.5L321.5 205L330 215H334.5L344 226L354 218L364 229.5L374 214.5L387 217.5L392.5 214L411.5 221.5L420 218.5L427 220L431.5 218.5L435 214L438 217.5L448.5 219.104L460 214L468 222.083L473 227L481 224.069L487 217.5L493 225.903L501 220.708L510.5 224.069L524.5 218.5L535 222.083L539.5 217.5L546 228.5" stroke="#7A5CF0" stroke-opacity="0.5"/>
</g>
<path d="M452.698 72V62.7578H456.018C457.207 62.7578 458.111 62.9757 458.729 63.4116C459.351 63.8475 459.662 64.4801 459.662 65.3096C459.662 65.7878 459.552 66.1961 459.332 66.5347C459.111 66.8732 458.788 67.1229 458.36 67.2837C458.843 67.4106 459.213 67.6476 459.471 67.9946C459.729 68.3416 459.858 68.7648 459.858 69.2642C459.858 70.1698 459.571 70.8511 458.995 71.3081C458.424 71.7609 457.575 71.9915 456.45 72H452.698ZM454.926 68.0708V70.2861H456.386C456.788 70.2861 457.097 70.1951 457.313 70.0132C457.529 69.827 457.637 69.5667 457.637 69.2324C457.637 68.4622 457.254 68.075 456.488 68.0708H454.926ZM454.926 66.6108H456.088C456.575 66.6066 456.922 66.5177 457.129 66.3442C457.336 66.1707 457.44 65.9147 457.44 65.5762C457.44 65.1868 457.328 64.9076 457.104 64.7383C456.879 64.5648 456.517 64.478 456.018 64.478H454.926V66.6108ZM463.464 72H461.242V62.7578H463.464V72ZM472.731 72H470.516L467.241 66.249V72H465.013V62.7578H467.241L470.51 68.5088V62.7578H472.731V72ZM479.504 70.2734H476.451L475.918 72H473.538L476.927 62.7578H479.022L482.437 72H480.044L479.504 70.2734ZM476.984 68.5532H478.971L477.975 65.3477L476.984 68.5532ZM490.835 72H488.62L485.344 66.249V72H483.116V62.7578H485.344L488.613 68.5088V62.7578H490.835V72ZM499.722 68.8706C499.692 69.5138 499.519 70.083 499.201 70.5781C498.884 71.069 498.437 71.4499 497.862 71.7207C497.291 71.9915 496.637 72.127 495.9 72.127C494.686 72.127 493.729 71.7313 493.031 70.9399C492.333 70.1486 491.984 69.0314 491.984 67.5884V67.1313C491.984 66.2257 492.14 65.4344 492.454 64.7573C492.771 64.076 493.226 63.5513 493.818 63.1831C494.411 62.8107 495.096 62.6245 495.875 62.6245C496.996 62.6245 497.898 62.9207 498.579 63.5132C499.26 64.1014 499.648 64.9139 499.741 65.9507H497.519C497.502 65.3879 497.36 64.9837 497.094 64.7383C496.827 64.4928 496.421 64.3701 495.875 64.3701C495.321 64.3701 494.914 64.5775 494.656 64.9922C494.398 65.4069 494.263 66.0692 494.25 66.979V67.6328C494.25 68.6188 494.373 69.3234 494.618 69.7466C494.868 70.1698 495.295 70.3813 495.9 70.3813C496.412 70.3813 496.804 70.2607 497.075 70.0195C497.346 69.7783 497.489 69.3953 497.506 68.8706H499.722ZM506.507 68.0835H503.003V70.2861H507.142V72H500.775V62.7578H507.155V64.478H503.003V66.4268H506.507V68.0835ZM509.275 69.9243C509.613 69.9243 509.895 70.0259 510.119 70.229C510.343 70.4279 510.456 70.6839 510.456 70.9971C510.456 71.3102 510.343 71.5684 510.119 71.7715C509.895 71.9704 509.613 72.0698 509.275 72.0698C508.932 72.0698 508.649 71.9683 508.424 71.7651C508.204 71.562 508.094 71.306 508.094 70.9971C508.094 70.6882 508.204 70.4321 508.424 70.229C508.649 70.0259 508.932 69.9243 509.275 69.9243ZM519.463 68.8706C519.433 69.5138 519.26 70.083 518.942 70.5781C518.625 71.069 518.179 71.4499 517.603 71.7207C517.032 71.9915 516.378 72.127 515.642 72.127C514.427 72.127 513.471 71.7313 512.772 70.9399C512.074 70.1486 511.725 69.0314 511.725 67.5884V67.1313C511.725 66.2257 511.882 65.4344 512.195 64.7573C512.512 64.076 512.967 63.5513 513.56 63.1831C514.152 62.8107 514.838 62.6245 515.616 62.6245C516.738 62.6245 517.639 62.9207 518.32 63.5132C519.002 64.1014 519.389 64.9139 519.482 65.9507H517.26C517.243 65.3879 517.102 64.9837 516.835 64.7383C516.568 64.4928 516.162 64.3701 515.616 64.3701C515.062 64.3701 514.656 64.5775 514.397 64.9922C514.139 65.4069 514.004 66.0692 513.991 66.979V67.6328C513.991 68.6188 514.114 69.3234 514.359 69.7466C514.609 70.1698 515.036 70.3813 515.642 70.3813C516.154 70.3813 516.545 70.2607 516.816 70.0195C517.087 69.7783 517.231 69.3953 517.248 68.8706H519.463ZM528.343 67.5693C528.343 68.4707 528.176 69.2684 527.842 69.9624C527.507 70.6564 527.031 71.1917 526.414 71.5684C525.8 71.9408 525.1 72.127 524.312 72.127C523.525 72.127 522.827 71.9471 522.218 71.5874C521.608 71.2235 521.132 70.7051 520.79 70.0322C520.451 69.3594 520.273 68.5871 520.256 67.7153V67.1948C520.256 66.2892 520.421 65.4915 520.751 64.8018C521.086 64.1077 521.562 63.5724 522.18 63.1958C522.802 62.8192 523.508 62.6309 524.3 62.6309C525.083 62.6309 525.781 62.8171 526.395 63.1895C527.008 63.5618 527.484 64.0929 527.823 64.7827C528.166 65.4683 528.339 66.2554 528.343 67.144V67.5693ZM526.077 67.1821C526.077 66.2638 525.923 65.5677 525.614 65.0938C525.309 64.6156 524.871 64.3765 524.3 64.3765C523.183 64.3765 522.592 65.2144 522.529 66.8901L522.522 67.5693C522.522 68.4749 522.673 69.1711 522.973 69.6577C523.274 70.1444 523.72 70.3877 524.312 70.3877C524.875 70.3877 525.309 70.1486 525.614 69.6704C525.918 69.1922 526.073 68.5046 526.077 67.6074V67.1821ZM532.418 62.7578L534.481 69.188L536.538 62.7578H539.471V72H537.236V69.8418L537.452 65.4238L535.218 72H533.745L531.504 65.4175L531.72 69.8418V72H529.492V62.7578H532.418Z" fill="white"/>
<path d="M460.423 143H458.208V139.141H454.926V143H452.698V133.758H454.926V137.427H458.208V133.758H460.423V143ZM469.088 133.758V139.807C469.088 140.493 468.942 141.087 468.65 141.591C468.358 142.09 467.939 142.471 467.393 142.733C466.847 142.996 466.202 143.127 465.457 143.127C464.331 143.127 463.445 142.835 462.797 142.251C462.15 141.667 461.82 140.867 461.807 139.852V133.758H464.048V139.896C464.073 140.907 464.543 141.413 465.457 141.413C465.918 141.413 466.267 141.286 466.504 141.032C466.741 140.778 466.86 140.366 466.86 139.794V133.758H469.088ZM478.311 138.569C478.311 139.471 478.144 140.268 477.81 140.962C477.475 141.656 476.999 142.192 476.381 142.568C475.768 142.941 475.067 143.127 474.28 143.127C473.493 143.127 472.795 142.947 472.186 142.587C471.576 142.223 471.1 141.705 470.757 141.032C470.419 140.359 470.241 139.587 470.224 138.715V138.195C470.224 137.289 470.389 136.492 470.719 135.802C471.054 135.108 471.53 134.572 472.147 134.196C472.77 133.819 473.476 133.631 474.268 133.631C475.05 133.631 475.749 133.817 476.362 134.189C476.976 134.562 477.452 135.093 477.791 135.783C478.133 136.468 478.307 137.255 478.311 138.144V138.569ZM476.045 138.182C476.045 137.264 475.89 136.568 475.582 136.094C475.277 135.616 474.839 135.376 474.268 135.376C473.15 135.376 472.56 136.214 472.497 137.89L472.49 138.569C472.49 139.475 472.64 140.171 472.941 140.658C473.241 141.144 473.688 141.388 474.28 141.388C474.843 141.388 475.277 141.149 475.582 140.67C475.886 140.192 476.041 139.505 476.045 138.607V138.182ZM479.46 143V133.758H482.78C483.969 133.758 484.872 133.976 485.49 134.412C486.112 134.847 486.423 135.48 486.423 136.31C486.423 136.788 486.313 137.196 486.093 137.535C485.873 137.873 485.549 138.123 485.122 138.284C485.604 138.411 485.975 138.648 486.233 138.995C486.491 139.342 486.62 139.765 486.62 140.264C486.62 141.17 486.332 141.851 485.757 142.308C485.186 142.761 484.337 142.992 483.211 143H479.46ZM481.688 139.071V141.286H483.148C483.55 141.286 483.859 141.195 484.075 141.013C484.291 140.827 484.398 140.567 484.398 140.232C484.398 139.462 484.015 139.075 483.25 139.071H481.688ZM481.688 137.611H482.85C483.336 137.607 483.683 137.518 483.891 137.344C484.098 137.171 484.202 136.915 484.202 136.576C484.202 136.187 484.09 135.908 483.865 135.738C483.641 135.565 483.279 135.478 482.78 135.478H481.688V137.611ZM490.226 143H488.004V133.758H490.226V143ZM493 140.924C493.338 140.924 493.619 141.026 493.844 141.229C494.068 141.428 494.18 141.684 494.18 141.997C494.18 142.31 494.068 142.568 493.844 142.771C493.619 142.97 493.338 143.07 493 143.07C492.657 143.07 492.373 142.968 492.149 142.765C491.929 142.562 491.819 142.306 491.819 141.997C491.819 141.688 491.929 141.432 492.149 141.229C492.373 141.026 492.657 140.924 493 140.924ZM503.188 139.871C503.158 140.514 502.984 141.083 502.667 141.578C502.35 142.069 501.903 142.45 501.328 142.721C500.756 142.992 500.103 143.127 499.366 143.127C498.152 143.127 497.195 142.731 496.497 141.94C495.799 141.149 495.45 140.031 495.45 138.588V138.131C495.45 137.226 495.606 136.434 495.919 135.757C496.237 135.076 496.692 134.551 497.284 134.183C497.877 133.811 498.562 133.625 499.341 133.625C500.462 133.625 501.364 133.921 502.045 134.513C502.726 135.101 503.113 135.914 503.207 136.951H500.985C500.968 136.388 500.826 135.984 500.56 135.738C500.293 135.493 499.887 135.37 499.341 135.37C498.786 135.37 498.38 135.577 498.122 135.992C497.864 136.407 497.729 137.069 497.716 137.979V138.633C497.716 139.619 497.839 140.323 498.084 140.747C498.334 141.17 498.761 141.381 499.366 141.381C499.878 141.381 500.27 141.261 500.541 141.02C500.811 140.778 500.955 140.395 500.972 139.871H503.188ZM512.068 138.569C512.068 139.471 511.901 140.268 511.566 140.962C511.232 141.656 510.756 142.192 510.138 142.568C509.525 142.941 508.824 143.127 508.037 143.127C507.25 143.127 506.552 142.947 505.942 142.587C505.333 142.223 504.857 141.705 504.514 141.032C504.176 140.359 503.998 139.587 503.981 138.715V138.195C503.981 137.289 504.146 136.492 504.476 135.802C504.81 135.108 505.286 134.572 505.904 134.196C506.526 133.819 507.233 133.631 508.024 133.631C508.807 133.631 509.506 133.817 510.119 134.189C510.733 134.562 511.209 135.093 511.547 135.783C511.89 136.468 512.064 137.255 512.068 138.144V138.569ZM509.802 138.182C509.802 137.264 509.647 136.568 509.338 136.094C509.034 135.616 508.596 135.376 508.024 135.376C506.907 135.376 506.317 136.214 506.253 137.89L506.247 138.569C506.247 139.475 506.397 140.171 506.698 140.658C506.998 141.144 507.445 141.388 508.037 141.388C508.6 141.388 509.034 141.149 509.338 140.67C509.643 140.192 509.798 139.505 509.802 138.607V138.182ZM516.143 133.758L518.206 140.188L520.263 133.758H523.195V143H520.961V140.842L521.177 136.424L518.942 143H517.47L515.229 136.417L515.445 140.842V143H513.217V133.758H516.143Z" fill="white"/>
<path d="M460.417 219H458.202L454.926 213.249V219H452.698V209.758H454.926L458.195 215.509V209.758H460.417V219ZM465.032 213.77L466.733 209.758H469.139L466.162 215.68V219H463.902V215.68L460.931 209.758H463.324L465.032 213.77ZM474.477 216.543C474.477 216.218 474.361 215.964 474.128 215.782C473.899 215.6 473.495 215.411 472.916 215.217C472.336 215.022 471.862 214.834 471.494 214.652C470.296 214.064 469.697 213.255 469.697 212.227C469.697 211.715 469.845 211.264 470.142 210.875C470.442 210.481 470.865 210.177 471.411 209.961C471.957 209.741 472.571 209.631 473.252 209.631C473.916 209.631 474.511 209.749 475.036 209.986C475.565 210.223 475.975 210.562 476.267 211.002C476.559 211.438 476.705 211.937 476.705 212.5H474.483C474.483 212.123 474.367 211.831 474.134 211.624C473.906 211.417 473.595 211.313 473.201 211.313C472.803 211.313 472.488 211.402 472.255 211.58C472.027 211.753 471.913 211.975 471.913 212.246C471.913 212.483 472.04 212.699 472.293 212.894C472.547 213.084 472.994 213.283 473.633 213.49C474.272 213.693 474.797 213.913 475.207 214.15C476.206 214.726 476.705 215.519 476.705 216.531C476.705 217.339 476.4 217.974 475.791 218.435C475.182 218.896 474.346 219.127 473.284 219.127C472.535 219.127 471.855 218.994 471.246 218.727C470.641 218.456 470.184 218.088 469.875 217.623C469.57 217.153 469.418 216.613 469.418 216.004H471.652C471.652 216.499 471.779 216.865 472.033 217.102C472.291 217.335 472.708 217.451 473.284 217.451C473.652 217.451 473.942 217.373 474.153 217.216C474.369 217.056 474.477 216.831 474.477 216.543ZM483.58 215.083H480.076V217.286H484.214V219H477.848V209.758H484.227V211.478H480.076V213.427H483.58V215.083ZM486.347 216.924C486.686 216.924 486.967 217.026 487.191 217.229C487.416 217.428 487.528 217.684 487.528 217.997C487.528 218.31 487.416 218.568 487.191 218.771C486.967 218.97 486.686 219.07 486.347 219.07C486.004 219.07 485.721 218.968 485.497 218.765C485.277 218.562 485.167 218.306 485.167 217.997C485.167 217.688 485.277 217.432 485.497 217.229C485.721 217.026 486.004 216.924 486.347 216.924ZM496.535 215.871C496.506 216.514 496.332 217.083 496.015 217.578C495.697 218.069 495.251 218.45 494.675 218.721C494.104 218.992 493.45 219.127 492.714 219.127C491.499 219.127 490.543 218.731 489.845 217.94C489.146 217.149 488.797 216.031 488.797 214.588V214.131C488.797 213.226 488.954 212.434 489.267 211.757C489.584 211.076 490.039 210.551 490.632 210.183C491.224 209.811 491.91 209.625 492.688 209.625C493.81 209.625 494.711 209.921 495.393 210.513C496.074 211.101 496.461 211.914 496.554 212.951H494.333C494.316 212.388 494.174 211.984 493.907 211.738C493.641 211.493 493.234 211.37 492.688 211.37C492.134 211.37 491.728 211.577 491.47 211.992C491.212 212.407 491.076 213.069 491.063 213.979V214.633C491.063 215.619 491.186 216.323 491.432 216.747C491.681 217.17 492.109 217.381 492.714 217.381C493.226 217.381 493.617 217.261 493.888 217.02C494.159 216.778 494.303 216.395 494.32 215.871H496.535ZM505.416 214.569C505.416 215.471 505.248 216.268 504.914 216.962C504.58 217.656 504.104 218.192 503.486 218.568C502.872 218.941 502.172 219.127 501.385 219.127C500.598 219.127 499.899 218.947 499.29 218.587C498.681 218.223 498.205 217.705 497.862 217.032C497.523 216.359 497.346 215.587 497.329 214.715V214.195C497.329 213.289 497.494 212.492 497.824 211.802C498.158 211.108 498.634 210.572 499.252 210.196C499.874 209.819 500.581 209.631 501.372 209.631C502.155 209.631 502.853 209.817 503.467 210.189C504.08 210.562 504.556 211.093 504.895 211.783C505.238 212.468 505.411 213.255 505.416 214.144V214.569ZM503.149 214.182C503.149 213.264 502.995 212.568 502.686 212.094C502.381 211.616 501.943 211.376 501.372 211.376C500.255 211.376 499.665 212.214 499.601 213.89L499.595 214.569C499.595 215.475 499.745 216.171 500.045 216.658C500.346 217.144 500.792 217.388 501.385 217.388C501.948 217.388 502.381 217.149 502.686 216.67C502.991 216.192 503.145 215.505 503.149 214.607V214.182ZM509.491 209.758L511.554 216.188L513.61 209.758H516.543V219H514.309V216.842L514.524 212.424L512.29 219H510.817L508.577 212.417L508.792 216.842V219H506.564V209.758H509.491Z" fill="white"/>
<path d="M240.322 60.2734H237.269L236.735 62H234.355L237.745 52.7578H239.839L243.254 62H240.861L240.322 60.2734ZM237.802 58.5532H239.789L238.792 55.3477L237.802 58.5532ZM246.162 58.8643V62H243.934V52.7578H247.622C248.328 52.7578 248.952 52.889 249.494 53.1514C250.04 53.4095 250.461 53.7798 250.757 54.2622C251.058 54.7404 251.208 55.2842 251.208 55.8936C251.208 56.7949 250.884 57.5164 250.237 58.0581C249.594 58.5955 248.709 58.8643 247.583 58.8643H246.162ZM246.162 57.144H247.622C248.053 57.144 248.381 57.0361 248.605 56.8203C248.834 56.6045 248.948 56.2998 248.948 55.9062C248.948 55.4746 248.832 55.1297 248.599 54.8716C248.366 54.6134 248.049 54.4823 247.647 54.478H246.162V57.144ZM254.775 62H252.554V52.7578H254.775V62Z" fill="white"/>
<path d="M240.322 129.273H237.269L236.735 131H234.355L237.745 121.758H239.839L243.254 131H240.861L240.322 129.273ZM237.802 127.553H239.789L238.792 124.348L237.802 127.553ZM246.162 127.864V131H243.934V121.758H247.622C248.328 121.758 248.952 121.889 249.494 122.151C250.04 122.41 250.461 122.78 250.757 123.262C251.058 123.74 251.208 124.284 251.208 124.894C251.208 125.795 250.884 126.516 250.237 127.058C249.594 127.596 248.709 127.864 247.583 127.864H246.162ZM246.162 126.144H247.622C248.053 126.144 248.381 126.036 248.605 125.82C248.834 125.604 248.948 125.3 248.948 124.906C248.948 124.475 248.832 124.13 248.599 123.872C248.366 123.613 248.049 123.482 247.647 123.478H246.162V126.144ZM254.775 131H252.554V121.758H254.775V131Z" fill="white"/>
<path d="M240.322 207.273H237.269L236.735 209H234.355L237.745 199.758H239.839L243.254 209H240.861L240.322 207.273ZM237.802 205.553H239.789L238.792 202.348L237.802 205.553ZM246.162 205.864V209H243.934V199.758H247.622C248.328 199.758 248.952 199.889 249.494 200.151C250.04 200.41 250.461 200.78 250.757 201.262C251.058 201.74 251.208 202.284 251.208 202.894C251.208 203.795 250.884 204.516 250.237 205.058C249.594 205.596 248.709 205.864 247.583 205.864H246.162ZM246.162 204.144H247.622C248.053 204.144 248.381 204.036 248.605 203.82C248.834 203.604 248.948 203.3 248.948 202.906C248.948 202.475 248.832 202.13 248.599 201.872C248.366 201.613 248.049 201.482 247.647 201.478H246.162V204.144ZM254.775 209H252.554V199.758H254.775V209Z" fill="white"/>
<circle cx="310" cy="67" r="3" fill="#BCBAC4"/>
<circle cx="310" cy="136" r="3" fill="#BCBAC4"/>
<g filter="url(#filter3_b)">
<rect y="31" width="191" height="280" fill="#052E5E" fill-opacity="0.29"/>
<rect x="0.5" y="31.5" width="190" height="279" stroke="#194170"/>
</g>
<g filter="url(#filter4_b)">
<rect x="127" y="45" width="49.6538" height="41.0183" rx="5" fill="#EEE979" fill-opacity="0.24"/>
<rect x="127.5" y="45.5" width="48.6538" height="40.0183" rx="4.5" stroke="#E8E8ED" stroke-opacity="0.19"/>
</g>
<g filter="url(#filter5_b)">
<path d="M127 50C127 47.2386 129.239 45 132 45H136.376C138.242 45 139.953 46.0395 140.813 47.6959L142.871 51.6591C143.731 53.3156 145.442 54.3551 147.309 54.3551H171.654C174.415 54.3551 176.654 56.5936 176.654 59.3551V81.0183C176.654 83.7798 174.415 86.0183 171.654 86.0183H132C129.239 86.0183 127 83.7798 127 81.0183V50Z" fill="#EEE979" fill-opacity="0.24"/>
<path d="M127.5 50C127.5 47.5147 129.515 45.5 132 45.5H136.376C138.056 45.5 139.595 46.4356 140.37 47.9263L142.427 51.8895C143.373 53.7116 145.256 54.8551 147.309 54.8551H171.654C174.139 54.8551 176.154 56.8698 176.154 59.3551V81.0183C176.154 83.5036 174.139 85.5183 171.654 85.5183H132C129.515 85.5183 127.5 83.5036 127.5 81.0183V50Z" stroke="#E8E8ED" stroke-opacity="0.19"/>
</g>
<path d="M136.729 70.7437V74H134.825V64.7578H138.431C139.125 64.7578 139.734 64.8848 140.259 65.1387C140.788 65.3926 141.194 65.7544 141.478 66.2241C141.761 66.6896 141.903 67.2207 141.903 67.8174C141.903 68.723 141.592 69.4382 140.97 69.9629C140.352 70.4834 139.495 70.7437 138.399 70.7437H136.729ZM136.729 69.2012H138.431C138.934 69.2012 139.317 69.0827 139.58 68.8457C139.846 68.6087 139.979 68.2702 139.979 67.8301C139.979 67.3773 139.846 67.0112 139.58 66.7319C139.313 66.4526 138.945 66.3088 138.475 66.3003H136.729V69.2012ZM146.111 70.293L145.121 71.3594V74H143.217V64.7578H145.121V68.9473L145.959 67.7983L148.314 64.7578H150.656L147.375 68.8647L150.751 74H148.485L146.111 70.293ZM158.578 72.832C158.235 73.2425 157.751 73.562 157.125 73.7905C156.498 74.0148 155.804 74.127 155.042 74.127C154.243 74.127 153.54 73.9535 152.935 73.6064C152.334 73.2552 151.869 72.7474 151.539 72.083C151.213 71.4186 151.046 70.6379 151.037 69.7407V69.1123C151.037 68.1898 151.192 67.3921 151.5 66.7192C151.814 66.0422 152.262 65.5259 152.846 65.1704C153.434 64.8107 154.122 64.6309 154.909 64.6309C156.005 64.6309 156.862 64.8932 157.48 65.418C158.098 65.9385 158.464 66.6981 158.578 67.6968H156.725C156.64 67.1678 156.452 66.7806 156.16 66.5352C155.872 66.2897 155.474 66.167 154.966 66.167C154.319 66.167 153.826 66.4103 153.487 66.897C153.149 67.3836 152.977 68.1073 152.973 69.0679V69.6582C152.973 70.6273 153.157 71.3594 153.525 71.8545C153.894 72.3496 154.433 72.5972 155.144 72.5972C155.859 72.5972 156.369 72.4448 156.674 72.1401V70.5469H154.941V69.144H158.578V72.832ZM167.624 74H165.789V66.9287L163.599 67.6079V66.1162L167.427 64.7451H167.624V74Z" fill="white"/>
<g filter="url(#filter6_b)">
<rect x="127" y="115.018" width="49.6538" height="41.0183" rx="5" fill="#6A9AF6" fill-opacity="0.24"/>
<rect x="127.5" y="115.518" width="48.6538" height="40.0183" rx="4.5" stroke="#E8E8ED" stroke-opacity="0.19"/>
</g>
<g filter="url(#filter7_b)">
<path d="M127 120.018C127 117.257 129.239 115.018 132 115.018H136.376C138.242 115.018 139.953 116.058 140.813 117.714L142.871 121.677C143.731 123.334 145.442 124.373 147.309 124.373H171.654C174.415 124.373 176.654 126.612 176.654 129.373V151.037C176.654 153.798 174.415 156.037 171.654 156.037H132C129.239 156.037 127 153.798 127 151.037V120.018Z" fill="#6A9AF6" fill-opacity="0.24"/>
<path d="M127.5 120.018C127.5 117.533 129.515 115.518 132 115.518H136.376C138.056 115.518 139.595 116.454 140.37 117.945L142.427 121.908C143.373 123.73 145.256 124.873 147.309 124.873H171.654C174.139 124.873 176.154 126.888 176.154 129.373V151.037C176.154 153.522 174.139 155.537 171.654 155.537H132C129.515 155.537 127.5 153.522 127.5 151.037V120.018Z" stroke="#E8E8ED" stroke-opacity="0.19"/>
</g>
<g filter="url(#filter8_b)">
<rect x="127" y="192" width="49.6538" height="41.0183" rx="5" fill="#9179EE" fill-opacity="0.24"/>
<rect x="127.5" y="192.5" width="48.6538" height="40.0183" rx="4.5" stroke="#E8E8ED" stroke-opacity="0.19"/>
</g>
<g filter="url(#filter9_b)">
<path d="M127 197C127 194.239 129.239 192 132 192H136.376C138.242 192 139.953 193.04 140.813 194.696L142.871 198.659C143.731 200.316 145.442 201.355 147.309 201.355H171.654C174.415 201.355 176.654 203.594 176.654 206.355V228.018C176.654 230.78 174.415 233.018 171.654 233.018H132C129.239 233.018 127 230.78 127 228.018V197Z" fill="#9179EE" fill-opacity="0.24"/>
<path d="M127.5 197C127.5 194.515 129.515 192.5 132 192.5H136.376C138.056 192.5 139.595 193.436 140.37 194.926L142.427 198.89C143.373 200.712 145.256 201.855 147.309 201.855H171.654C174.139 201.855 176.154 203.87 176.154 206.355V228.018C176.154 230.504 174.139 232.518 171.654 232.518H132C129.515 232.518 127.5 230.504 127.5 228.018V197Z" stroke="#E8E8ED" stroke-opacity="0.19"/>
</g>
<g filter="url(#filter10_b)">
<rect x="127" y="256" width="49.6538" height="41.0183" rx="5" fill="#DDDDDD" fill-opacity="0.24"/>
<rect x="127.5" y="256.5" width="48.6538" height="40.0183" rx="4.5" stroke="#E8E8ED" stroke-opacity="0.19"/>
</g>
<g filter="url(#filter11_b)">
<path d="M127 261C127 258.239 129.239 256 132 256H136.376C138.242 256 139.953 257.04 140.813 258.696L142.871 262.659C143.731 264.316 145.442 265.355 147.309 265.355H171.654C174.415 265.355 176.654 267.594 176.654 270.355V292.018C176.654 294.78 174.415 297.018 171.654 297.018H132C129.239 297.018 127 294.78 127 292.018V261Z" fill="#DDDDDD" fill-opacity="0.24"/>
<path d="M127.5 261C127.5 258.515 129.515 256.5 132 256.5H136.376C138.056 256.5 139.595 257.436 140.37 258.926L142.427 262.89C143.373 264.712 145.256 265.855 147.309 265.855H171.654C174.139 265.855 176.154 267.87 176.154 270.355V292.018C176.154 294.504 174.139 296.518 171.654 296.518H132C129.515 296.518 127.5 294.504 127.5 292.018V261Z" stroke="#E8E8ED" stroke-opacity="0.19"/>
</g>
<path d="M138.41 278.827H140.701V280.483H138.41V283.073H136.664V280.483H134.366V278.827H136.664V276.345H138.41V278.827ZM150.381 282.096H147.042L146.408 284H144.383L147.823 274.758H149.588L153.047 284H151.022L150.381 282.096ZM147.557 280.553H149.867L148.706 277.094L147.557 280.553ZM153.911 284V274.758H156.754C157.567 274.758 158.293 274.942 158.932 275.31C159.575 275.674 160.076 276.194 160.436 276.872C160.796 277.544 160.976 278.31 160.976 279.169V279.595C160.976 280.454 160.798 281.218 160.442 281.886C160.091 282.555 159.594 283.073 158.951 283.441C158.307 283.81 157.582 283.996 156.773 284H153.911ZM155.815 276.3V282.47H156.735C157.48 282.47 158.049 282.227 158.443 281.74C158.836 281.254 159.037 280.557 159.046 279.652V279.163C159.046 278.224 158.851 277.513 158.462 277.03C158.073 276.544 157.503 276.3 156.754 276.3H155.815ZM162.366 284V274.758H165.209C166.022 274.758 166.748 274.942 167.387 275.31C168.03 275.674 168.531 276.194 168.891 276.872C169.251 277.544 169.431 278.31 169.431 279.169V279.595C169.431 280.454 169.253 281.218 168.897 281.886C168.546 282.555 168.049 283.073 167.406 283.441C166.763 283.81 166.037 283.996 165.229 284H162.366ZM164.27 276.3V282.47H165.19C165.935 282.47 166.504 282.227 166.898 281.74C167.292 281.254 167.493 280.557 167.501 279.652V279.163C167.501 278.224 167.306 277.513 166.917 277.03C166.528 276.544 165.958 276.3 165.209 276.3H164.27Z" fill="white"/>
<g filter="url(#filter12_b)">
<rect x="12" y="115" width="45" height="118" fill="#052E5E"/>
<rect x="12.5" y="115.5" width="44" height="117" stroke="#194170"/>
</g>
<path d="M36.8887 200.95C36.5013 200.95 36.2051 201.087 36 201.36C35.7904 201.634 35.5716 202.126 35.3437 202.837C35.1113 203.548 34.8835 204.111 34.6602 204.525C34.0495 205.656 33.2269 206.221 32.1924 206.221C31.6546 206.221 31.1761 206.07 30.7568 205.77C30.333 205.464 30.0026 205.029 29.7656 204.464C29.5286 203.894 29.4102 203.256 29.4102 202.55C29.4102 201.839 29.54 201.205 29.7998 200.649C30.055 200.093 30.4173 199.663 30.8867 199.357C31.3561 199.048 31.8893 198.893 32.4863 198.893L32.4863 200.943C32.0306 200.943 31.6774 201.087 31.4268 201.374C31.1715 201.661 31.0439 202.064 31.0439 202.584C31.0439 203.085 31.151 203.475 31.3652 203.753C31.5749 204.031 31.8529 204.17 32.1992 204.17C32.5228 204.17 32.7939 204.008 33.0127 203.685C33.2314 203.356 33.4365 202.876 33.6279 202.242C33.9788 201.076 34.4141 200.226 34.9336 199.692C35.4531 199.159 36.1003 198.893 36.875 198.893C37.7363 198.893 38.4131 199.218 38.9053 199.87C39.3929 200.522 39.6367 201.399 39.6367 202.502C39.6367 203.268 39.4977 203.965 39.2197 204.594C38.9372 205.223 38.5521 205.703 38.0645 206.036C37.5768 206.364 37.0117 206.528 36.3691 206.528L36.3691 204.471C37.4674 204.471 38.0166 203.814 38.0166 202.502C38.0166 202.014 37.9186 201.634 37.7227 201.36C37.5221 201.087 37.2441 200.95 36.8887 200.95ZM31.208 190.006L31.208 193.055L39.5 193.055L39.5 195.105L31.208 195.105L31.208 198.113L29.5469 198.113L29.5469 190.006L31.208 190.006ZM35.8564 185.146L35.8564 186.779L39.5 186.779L39.5 188.83L29.5469 188.83L29.5469 185.132C29.5469 183.956 29.8089 183.049 30.333 182.411C30.8571 181.773 31.5977 181.454 32.5547 181.454C33.2337 181.454 33.8011 181.602 34.2568 181.898C34.708 182.19 35.068 182.634 35.3369 183.231L39.4043 181.078L39.5 181.078L39.5 183.279L35.8564 185.146ZM34.1953 186.779L34.1953 185.125C34.1953 184.61 34.0654 184.211 33.8057 183.929C33.5413 183.646 33.179 183.505 32.7187 183.505C32.2493 183.505 31.8802 183.639 31.6113 183.908C31.3424 184.173 31.208 184.58 31.208 185.132L31.208 186.779L34.1953 186.779ZM37.4492 174.27L37.4492 177.865L39.5 178.549L39.5 180.729L29.5469 177.024L29.5469 175.124L39.5 171.398L39.5 173.579L37.4492 174.27ZM35.7881 177.312L35.7881 174.823L32.0625 176.074L35.7881 177.312ZM31.208 163.797L31.208 166.846L39.5 166.846L39.5 168.896L31.208 168.896L31.208 171.904L29.5469 171.904L29.5469 163.797L31.208 163.797ZM35.1865 156.633L35.1865 160.57L37.8525 160.57L37.8525 155.949L39.5 155.949L39.5 162.621L29.5469 162.621L29.5469 155.963L31.208 155.963L31.208 160.57L33.5801 160.57L33.5801 156.633L35.1865 156.633ZM38.2422 146.871C38.6842 147.24 39.0283 147.762 39.2744 148.437C39.5159 149.111 39.6367 149.858 39.6367 150.679C39.6367 151.54 39.4499 152.297 39.0762 152.948C38.6979 153.595 38.151 154.097 37.4355 154.452C36.72 154.803 35.8792 154.983 34.9131 154.992L34.2363 154.992C33.2428 154.992 32.3838 154.826 31.6592 154.493C30.93 154.156 30.374 153.673 29.9912 153.044C29.6038 152.41 29.4102 151.67 29.4102 150.822C29.4102 149.642 29.6927 148.719 30.2578 148.054C30.8184 147.388 31.6364 146.994 32.7119 146.871L32.7119 148.867C32.1423 148.958 31.7253 149.161 31.4609 149.476C31.1966 149.785 31.0645 150.214 31.0645 150.761C31.0645 151.458 31.3265 151.989 31.8506 152.354C32.3747 152.718 33.154 152.903 34.1885 152.907L34.8242 152.907C35.8678 152.907 36.6562 152.709 37.1895 152.312C37.7227 151.916 37.9893 151.335 37.9893 150.569C37.9893 149.799 37.8252 149.25 37.4971 148.922L35.7812 148.922L35.7812 150.788L34.2705 150.788L34.2705 146.871L38.2422 146.871ZM34.0312 141.771L29.5469 139.7L29.5469 137.458L35.8906 140.726L39.5 140.726L39.5 142.811L35.8906 142.811L29.5469 146.078L29.5469 143.829L34.0312 141.771Z" fill="white"/>
<path d="M56.9727 6.1543L52.6172 6.1543V18H49.6875V6.1543L45.3906 6.1543V3.78125L56.9727 3.78125V6.1543ZM63.916 12.7949H61.582V18H58.6523V3.78125L63.9355 3.78125C65.6152 3.78125 66.9108 4.1556 67.8223 4.9043C68.7337 5.65299 69.1895 6.71094 69.1895 8.07813C69.1895 9.04818 68.9779 9.85872 68.5547 10.5098C68.138 11.1543 67.5033 11.6686 66.6504 12.0527L69.7266 17.8633V18H66.582L63.916 12.7949ZM61.582 10.4219H63.9453C64.681 10.4219 65.2507 10.2363 65.6543 9.86523C66.0579 9.48763 66.2598 8.97005 66.2598 8.3125C66.2598 7.64193 66.0677 7.11458 65.6836 6.73047C65.306 6.34635 64.7233 6.1543 63.9355 6.1543H61.582V10.4219ZM79.4531 15.0703H74.3164L73.3398 18H70.2246L75.5176 3.78125L78.2324 3.78125L83.5547 18H80.4395L79.4531 15.0703ZM75.1074 12.6973H78.6621L76.875 7.375L75.1074 12.6973ZM84.8828 18V3.78125L89.2578 3.78125C90.5078 3.78125 91.6243 4.06445 92.6074 4.63086C93.597 5.19076 94.3685 5.99154 94.9219 7.0332C95.4753 8.06836 95.752 9.24674 95.752 10.5684V11.2227C95.752 12.5443 95.4785 13.7194 94.9316 14.748C94.3913 15.7767 93.6263 16.5742 92.6367 17.1406C91.6471 17.707 90.5306 17.9935 89.2871 18H84.8828ZM87.8125 6.1543V15.6465H89.2285C90.3743 15.6465 91.25 15.2721 91.8555 14.5234C92.4609 13.7747 92.7702 12.7038 92.7832 11.3105V10.5586C92.7832 9.11328 92.4837 8.01953 91.8848 7.27734C91.2858 6.52865 90.4102 6.1543 89.2578 6.1543H87.8125ZM106.445 11.8379L100.82 11.8379V15.6465L107.422 15.6465V18L97.8906 18V3.78125L107.402 3.78125V6.1543L100.82 6.1543V9.54297L106.445 9.54297V11.8379ZM109.141 18V3.78125L114.121 3.78125C115.846 3.78125 117.155 4.11328 118.047 4.77734C118.939 5.4349 119.385 6.40169 119.385 7.67773C119.385 8.37435 119.206 8.98958 118.848 9.52344C118.49 10.0508 117.992 10.4382 117.354 10.6855C118.083 10.8678 118.656 11.2357 119.072 11.7891C119.495 12.3424 119.707 13.0195 119.707 13.8203C119.707 15.1875 119.271 16.2227 118.398 16.9258C117.526 17.6289 116.283 17.987 114.668 18H109.141ZM112.07 11.8086V15.6465H114.58C115.27 15.6465 115.807 15.4837 116.191 15.1582C116.582 14.8262 116.777 14.3704 116.777 13.791C116.777 12.4889 116.104 11.8281 114.756 11.8086H112.07ZM112.07 9.73828H114.238C115.716 9.71224 116.455 9.12305 116.455 7.9707C116.455 7.32617 116.266 6.86393 115.889 6.58398C115.518 6.29753 114.928 6.1543 114.121 6.1543L112.07 6.1543V9.73828ZM133.594 11.2129C133.594 12.6126 133.346 13.8398 132.852 14.8945C132.357 15.9492 131.647 16.763 130.723 17.3359C129.805 17.9089 128.75 18.1953 127.559 18.1953C126.38 18.1953 125.329 17.9121 124.404 17.3457C123.48 16.7793 122.764 15.972 122.256 14.9238C121.748 13.8691 121.491 12.6582 121.484 11.291V10.5879C121.484 9.18815 121.735 7.95768 122.236 6.89648C122.744 5.82878 123.457 5.01172 124.375 4.44531C125.299 3.8724 126.354 3.58594 127.539 3.58594C128.724 3.58594 129.775 3.8724 130.693 4.44531C131.618 5.01172 132.331 5.82878 132.832 6.89648C133.34 7.95768 133.594 9.1849 133.594 10.5781V11.2129ZM130.625 10.5684C130.625 9.07747 130.358 7.94466 129.824 7.16992C129.29 6.39518 128.529 6.00781 127.539 6.00781C126.556 6.00781 125.798 6.39193 125.264 7.16016C124.73 7.92188 124.46 9.04167 124.453 10.5195V11.2129C124.453 12.6647 124.72 13.791 125.254 14.5918C125.788 15.3926 126.556 15.793 127.559 15.793C128.542 15.793 129.297 15.4089 129.824 14.6406C130.352 13.8659 130.618 12.7396 130.625 11.2617V10.5684ZM145.586 6.1543L141.23 6.1543V18H138.301V6.1543L134.004 6.1543V3.78125L145.586 3.78125V6.1543Z" fill="white"/>
<path d="M126.5 278H96C93.2386 278 91 275.761 91 273V198.5C91 195.739 88.7614 193.5 86 193.5H73" stroke="white" stroke-opacity="0.5" stroke-dasharray="7 7"/>
<path d="M126.5 67H96C93.2386 67 91 69.2386 91 72V145.5C91 148.261 88.7614 150.5 86 150.5H73" stroke="white" stroke-opacity="0.7"/>
<path d="M127 136H110.842C108.081 136 105.842 138.239 105.842 141V163C105.842 165.761 103.604 168 100.842 168H73" stroke="white" stroke-opacity="0.7"/>
<path d="M127 213H110.842C108.081 213 105.842 210.761 105.842 208V186C105.842 183.239 103.604 181 100.842 181H73" stroke="white" stroke-opacity="0.7"/>
<line x1="177" y1="66.5" x2="313" y2="66.5" stroke="white" stroke-opacity="0.7"/>
<line x1="177" y1="135.5" x2="313" y2="135.5" stroke="white" stroke-opacity="0.7"/>
<line x1="177" y1="212.5" x2="313" y2="212.5" stroke="white" stroke-opacity="0.7"/>
<path d="M136.729 140.744V144H134.825V134.758H138.431C139.125 134.758 139.734 134.885 140.259 135.139C140.788 135.393 141.194 135.754 141.478 136.224C141.761 136.69 141.903 137.221 141.903 137.817C141.903 138.723 141.592 139.438 140.97 139.963C140.352 140.483 139.495 140.744 138.399 140.744H136.729ZM136.729 139.201H138.431C138.934 139.201 139.317 139.083 139.58 138.846C139.846 138.609 139.979 138.27 139.979 137.83C139.979 137.377 139.846 137.011 139.58 136.732C139.313 136.453 138.945 136.309 138.475 136.3H136.729V139.201ZM146.111 140.293L145.121 141.359V144H143.217V134.758H145.121V138.947L145.959 137.798L148.314 134.758H150.656L147.375 138.865L150.751 144H148.485L146.111 140.293ZM158.578 142.832C158.235 143.243 157.751 143.562 157.125 143.791C156.498 144.015 155.804 144.127 155.042 144.127C154.243 144.127 153.54 143.953 152.935 143.606C152.334 143.255 151.869 142.747 151.539 142.083C151.213 141.419 151.046 140.638 151.037 139.741V139.112C151.037 138.19 151.192 137.392 151.5 136.719C151.814 136.042 152.262 135.526 152.846 135.17C153.434 134.811 154.122 134.631 154.909 134.631C156.005 134.631 156.862 134.893 157.48 135.418C158.098 135.938 158.464 136.698 158.578 137.697H156.725C156.64 137.168 156.452 136.781 156.16 136.535C155.872 136.29 155.474 136.167 154.966 136.167C154.319 136.167 153.826 136.41 153.487 136.897C153.149 137.384 152.977 138.107 152.973 139.068V139.658C152.973 140.627 153.157 141.359 153.525 141.854C153.894 142.35 154.433 142.597 155.144 142.597C155.859 142.597 156.369 142.445 156.674 142.14V140.547H154.941V139.144H158.578V142.832ZM167.624 144H165.789V136.929L163.599 137.608V136.116L167.427 134.745H167.624V144Z" fill="white"/>
<path d="M136.729 215.744V219H134.825V209.758H138.431C139.125 209.758 139.734 209.885 140.259 210.139C140.788 210.393 141.194 210.754 141.478 211.224C141.761 211.69 141.903 212.221 141.903 212.817C141.903 213.723 141.592 214.438 140.97 214.963C140.352 215.483 139.495 215.744 138.399 215.744H136.729ZM136.729 214.201H138.431C138.934 214.201 139.317 214.083 139.58 213.846C139.846 213.609 139.979 213.27 139.979 212.83C139.979 212.377 139.846 212.011 139.58 211.732C139.313 211.453 138.945 211.309 138.475 211.3H136.729V214.201ZM146.111 215.293L145.121 216.359V219H143.217V209.758H145.121V213.947L145.959 212.798L148.314 209.758H150.656L147.375 213.865L150.751 219H148.485L146.111 215.293ZM158.578 217.832C158.235 218.243 157.751 218.562 157.125 218.791C156.498 219.015 155.804 219.127 155.042 219.127C154.243 219.127 153.54 218.953 152.935 218.606C152.334 218.255 151.869 217.747 151.539 217.083C151.213 216.419 151.046 215.638 151.037 214.741V214.112C151.037 213.19 151.192 212.392 151.5 211.719C151.814 211.042 152.262 210.526 152.846 210.17C153.434 209.811 154.122 209.631 154.909 209.631C156.005 209.631 156.862 209.893 157.48 210.418C158.098 210.938 158.464 211.698 158.578 212.697H156.725C156.64 212.168 156.452 211.781 156.16 211.535C155.872 211.29 155.474 211.167 154.966 211.167C154.319 211.167 153.826 211.41 153.487 211.897C153.149 212.384 152.977 213.107 152.973 214.068V214.658C152.973 215.627 153.157 216.359 153.525 216.854C153.894 217.35 154.433 217.597 155.144 217.597C155.859 217.597 156.369 217.445 156.674 217.14V215.547H154.941V214.144H158.578V217.832ZM167.624 219H165.789V211.929L163.599 212.608V211.116L167.427 209.745H167.624V219Z" fill="white"/>
<circle cx="124" cy="67" r="3" fill="#BCBAC4"/>
<circle cx="180" cy="67" r="3" fill="#BCBAC4"/>
<circle cx="124" cy="136" r="3" fill="#BCBAC4"/>
<circle cx="180" cy="136" r="3" fill="#BCBAC4"/>
<circle cx="124" cy="213" r="3" fill="#BCBAC4"/>
<circle cx="180" cy="213" r="3" fill="#BCBAC4"/>
<circle cx="310" cy="213" r="3" fill="#BCBAC4"/>
<defs>
<filter id="filter0_b" x="311" y="43" width="130" height="45" filterUnits="userSpaceOnUse" color-interpolation-filters="sRGB">
<feFlood flood-opacity="0" result="BackgroundImageFix"/>
<feGaussianBlur in="BackgroundImage" stdDeviation="1"/>
<feComposite in2="SourceAlpha" operator="in" result="effect1_backgroundBlur"/>
<feBlend mode="normal" in="SourceGraphic" in2="effect1_backgroundBlur" result="shape"/>
</filter>
<filter id="filter1_b" x="311" y="113" width="130" height="45" filterUnits="userSpaceOnUse" color-interpolation-filters="sRGB">
<feFlood flood-opacity="0" result="BackgroundImageFix"/>
<feGaussianBlur in="BackgroundImage" stdDeviation="1"/>
<feComposite in2="SourceAlpha" operator="in" result="effect1_backgroundBlur"/>
<feBlend mode="normal" in="SourceGraphic" in2="effect1_backgroundBlur" result="shape"/>
</filter>
<filter id="filter2_b" x="311" y="192" width="130" height="45" filterUnits="userSpaceOnUse" color-interpolation-filters="sRGB">
<feFlood flood-opacity="0" result="BackgroundImageFix"/>
<feGaussianBlur in="BackgroundImage" stdDeviation="1"/>
<feComposite in2="SourceAlpha" operator="in" result="effect1_backgroundBlur"/>
<feBlend mode="normal" in="SourceGraphic" in2="effect1_backgroundBlur" result="shape"/>
</filter>
<filter id="filter3_b" x="-2" y="29" width="195" height="284" filterUnits="userSpaceOnUse" color-interpolation-filters="sRGB">
<feFlood flood-opacity="0" result="BackgroundImageFix"/>
<feGaussianBlur in="BackgroundImage" stdDeviation="1"/>
<feComposite in2="SourceAlpha" operator="in" result="effect1_backgroundBlur"/>
<feBlend mode="normal" in="SourceGraphic" in2="effect1_backgroundBlur" result="shape"/>
</filter>
<filter id="filter4_b" x="125" y="43" width="53.6538" height="45.0183" filterUnits="userSpaceOnUse" color-interpolation-filters="sRGB">
<feFlood flood-opacity="0" result="BackgroundImageFix"/>
<feGaussianBlur in="BackgroundImage" stdDeviation="1"/>
<feComposite in2="SourceAlpha" operator="in" result="effect1_backgroundBlur"/>
<feBlend mode="normal" in="SourceGraphic" in2="effect1_backgroundBlur" result="shape"/>
</filter>
<filter id="filter5_b" x="125" y="43" width="53.6538" height="45.0183" filterUnits="userSpaceOnUse" color-interpolation-filters="sRGB">
<feFlood flood-opacity="0" result="BackgroundImageFix"/>
<feGaussianBlur in="BackgroundImage" stdDeviation="1"/>
<feComposite in2="SourceAlpha" operator="in" result="effect1_backgroundBlur"/>
<feBlend mode="normal" in="SourceGraphic" in2="effect1_backgroundBlur" result="shape"/>
</filter>
<filter id="filter6_b" x="125" y="113.018" width="53.6538" height="45.0183" filterUnits="userSpaceOnUse" color-interpolation-filters="sRGB">
<feFlood flood-opacity="0" result="BackgroundImageFix"/>
<feGaussianBlur in="BackgroundImage" stdDeviation="1"/>
<feComposite in2="SourceAlpha" operator="in" result="effect1_backgroundBlur"/>
<feBlend mode="normal" in="SourceGraphic" in2="effect1_backgroundBlur" result="shape"/>
</filter>
<filter id="filter7_b" x="125" y="113.018" width="53.6538" height="45.0183" filterUnits="userSpaceOnUse" color-interpolation-filters="sRGB">
<feFlood flood-opacity="0" result="BackgroundImageFix"/>
<feGaussianBlur in="BackgroundImage" stdDeviation="1"/>
<feComposite in2="SourceAlpha" operator="in" result="effect1_backgroundBlur"/>
<feBlend mode="normal" in="SourceGraphic" in2="effect1_backgroundBlur" result="shape"/>
</filter>
<filter id="filter8_b" x="125" y="190" width="53.6538" height="45.0183" filterUnits="userSpaceOnUse" color-interpolation-filters="sRGB">
<feFlood flood-opacity="0" result="BackgroundImageFix"/>
<feGaussianBlur in="BackgroundImage" stdDeviation="1"/>
<feComposite in2="SourceAlpha" operator="in" result="effect1_backgroundBlur"/>
<feBlend mode="normal" in="SourceGraphic" in2="effect1_backgroundBlur" result="shape"/>
</filter>
<filter id="filter9_b" x="125" y="190" width="53.6538" height="45.0183" filterUnits="userSpaceOnUse" color-interpolation-filters="sRGB">
<feFlood flood-opacity="0" result="BackgroundImageFix"/>
<feGaussianBlur in="BackgroundImage" stdDeviation="1"/>
<feComposite in2="SourceAlpha" operator="in" result="effect1_backgroundBlur"/>
<feBlend mode="normal" in="SourceGraphic" in2="effect1_backgroundBlur" result="shape"/>
</filter>
<filter id="filter10_b" x="125" y="254" width="53.6538" height="45.0183" filterUnits="userSpaceOnUse" color-interpolation-filters="sRGB">
<feFlood flood-opacity="0" result="BackgroundImageFix"/>
<feGaussianBlur in="BackgroundImage" stdDeviation="1"/>
<feComposite in2="SourceAlpha" operator="in" result="effect1_backgroundBlur"/>
<feBlend mode="normal" in="SourceGraphic" in2="effect1_backgroundBlur" result="shape"/>
</filter>
<filter id="filter11_b" x="125" y="254" width="53.6538" height="45.0183" filterUnits="userSpaceOnUse" color-interpolation-filters="sRGB">
<feFlood flood-opacity="0" result="BackgroundImageFix"/>
<feGaussianBlur in="BackgroundImage" stdDeviation="1"/>
<feComposite in2="SourceAlpha" operator="in" result="effect1_backgroundBlur"/>
<feBlend mode="normal" in="SourceGraphic" in2="effect1_backgroundBlur" result="shape"/>
</filter>
<filter id="filter12_b" x="10" y="113" width="49" height="122" filterUnits="userSpaceOnUse" color-interpolation-filters="sRGB">
<feFlood flood-opacity="0" result="BackgroundImageFix"/>
<feGaussianBlur in="BackgroundImage" stdDeviation="1"/>
<feComposite in2="SourceAlpha" operator="in" result="effect1_backgroundBlur"/>
<feBlend mode="normal" in="SourceGraphic" in2="effect1_backgroundBlur" result="shape"/>
</filter>
<linearGradient id="paint0_linear" x1="376" y1="55" x2="376" y2="85" gradientUnits="userSpaceOnUse">
<stop stop-color="#FFEA7A" stop-opacity="0.33"/>
<stop offset="1" stop-color="#C4C4C4" stop-opacity="0"/>
</linearGradient>
<linearGradient id="paint1_linear" x1="376" y1="124.5" x2="376" y2="155.5" gradientUnits="userSpaceOnUse">
<stop stop-color="#7AB7FF" stop-opacity="0.33"/>
<stop offset="1" stop-color="#C4C4C4" stop-opacity="0"/>
</linearGradient>
<linearGradient id="paint2_linear" x1="376" y1="203" x2="376" y2="234" gradientUnits="userSpaceOnUse">
<stop stop-color="#5736DD" stop-opacity="0.33"/>
<stop offset="1" stop-color="#C4C4C4" stop-opacity="0"/>
</linearGradient>
<clipPath id="clip0">
<rect width="124" height="30" fill="white" transform="translate(314 55)"/>
</clipPath>
<clipPath id="clip1">
<rect width="124" height="31" fill="white" transform="translate(314 125)"/>
</clipPath>
<clipPath id="clip2">
<rect width="124" height="29" fill="white" transform="translate(314 205)"/>
</clipPath>
</defs>
</svg>
