<svg width="541" height="280" viewBox="0 0 541 280" fill="none" xmlns="http://www.w3.org/2000/svg">
<g filter="url(#filter0_b)">
<rect x="313" y="14" width="126" height="41" fill="#052E5E" fill-opacity="0.29"/>
<rect x="313.5" y="14.5" width="125" height="40" stroke="#194170"/>
</g>
<g filter="url(#filter1_b)">
<rect x="313" y="84" width="126" height="41" fill="#052E5E" fill-opacity="0.29"/>
<rect x="313.5" y="84.5" width="125" height="40" stroke="#194170"/>
</g>
<g filter="url(#filter2_b)">
<rect x="313" y="163" width="126" height="41" fill="#052E5E" fill-opacity="0.29"/>
<rect x="313.5" y="163.5" width="125" height="40" stroke="#194170"/>
</g>
<g clip-path="url(#clip0)">
<path d="M327.106 32L314 49V52C314 53.1046 314.895 54 316 54H544.5C545.605 54 546.5 53.1046 546.5 52V49L539.5 40L531.5 43L515.5 30.5L508 34.5L497 26.5L484.5 34.5L473 28.5L464.5 36.5L454 30.5L445 25L438 28.5L433.463 24L425.398 36.5H420.358L412.293 32L404.228 35L395.659 41L390.618 46.5L385.577 44H379.528L368.439 32L356.341 38L342.228 32L333.154 38L327.106 32Z" fill="url(#paint0_linear)"/>
<path d="M314 49L327.106 32L333.154 38L342.228 32L356.341 38L368.439 32L379.528 44H385.577L390.618 46.5L395.659 41L404.228 35L412.293 32L420.358 36.5H425.398L433.463 24L438 28.5L445 25L454 30.5L464.5 36.5L473 28.5L484.5 34.5L497 26.5L508 34.5L515.5 30.5L531.5 43L539.5 40L546.5 49" stroke="#EFD9AF" stroke-opacity="0.5"/>
</g>
<g clip-path="url(#clip1)">
<path d="M321 110L314 119V121.5C314 123.157 315.343 124.5 317 124.5H543C544.657 124.5 546 123.157 546 121.5V119L539.5 114L530.5 115.5L517.5 106.5L511 109.5L497 103L491 109.089L487 97L478 105H471L467 99L452.5 106.5L447 105L438 108L433 103L428 99.5L421 99L413.5 103L401.5 94L395.659 111L388.5 105L381 104.5L369 114.5L358 93.5L342.5 98.5L335.5 95.5L328.5 111L321 110Z" fill="url(#paint1_linear)"/>
<path d="M314 119.5L321 110.5L328.5 111.5L335.5 96L342.5 99L358 94L369 115L381 105L388.5 105.5L395.659 111.5L401.5 94.5L413.5 103.5L421 99.5L428 100L433 103.5L438 108.5L447 105.5L452.5 107L467 99.5L471 105.5H478L487 97.5L491 109.589L497 103.5L511 110L517.5 107L530.5 116L539.5 114.5L546 119.5" stroke="#AFC1EF" stroke-opacity="0.5"/>
</g>
<g clip-path="url(#clip2)">
<path d="M321.5 174L314 197.5V200C314 201.657 315.343 203 317 203H543C544.657 203 546 201.657 546 200V197.5L539.5 186.5L535 191.083L524.5 187.5L510.5 193.069L501 189.708L493 194.903L487 186.5L481 193.069L473 196L468 191.083L460 183L448.5 188.104L438 186.5L435 183L431.5 187.5L427 189L420 187.5L411.5 190.5L392.5 183L387 186.5L374 183.5L364 198.5L354 187L344 195L334.5 184H330L321.5 174Z" fill="url(#paint2_linear)"/>
<path d="M314 197.5L321.5 174L330 184H334.5L344 195L354 187L364 198.5L374 183.5L387 186.5L392.5 183L411.5 190.5L420 187.5L427 189L431.5 187.5L435 183L438 186.5L448.5 188.104L460 183L468 191.083L473 196L481 193.069L487 186.5L493 194.903L501 189.708L510.5 193.069L524.5 187.5L535 191.083L539.5 186.5L546 197.5" stroke="#7A5CF0" stroke-opacity="0.5"/>
</g>
<path d="M452.698 41V31.7578H456.018C457.207 31.7578 458.111 31.9757 458.729 32.4116C459.351 32.8475 459.662 33.4801 459.662 34.3096C459.662 34.7878 459.552 35.1961 459.332 35.5347C459.111 35.8732 458.788 36.1229 458.36 36.2837C458.843 36.4106 459.213 36.6476 459.471 36.9946C459.729 37.3416 459.858 37.7648 459.858 38.2642C459.858 39.1698 459.571 39.8511 458.995 40.3081C458.424 40.7609 457.575 40.9915 456.45 41H452.698ZM454.926 37.0708V39.2861H456.386C456.788 39.2861 457.097 39.1951 457.313 39.0132C457.529 38.827 457.637 38.5667 457.637 38.2324C457.637 37.4622 457.254 37.075 456.488 37.0708H454.926ZM454.926 35.6108H456.088C456.575 35.6066 456.922 35.5177 457.129 35.3442C457.336 35.1707 457.44 34.9147 457.44 34.5762C457.44 34.1868 457.328 33.9076 457.104 33.7383C456.879 33.5648 456.517 33.478 456.018 33.478H454.926V35.6108ZM463.464 41H461.242V31.7578H463.464V41ZM472.731 41H470.516L467.241 35.249V41H465.013V31.7578H467.241L470.51 37.5088V31.7578H472.731V41ZM479.504 39.2734H476.451L475.918 41H473.538L476.927 31.7578H479.022L482.437 41H480.044L479.504 39.2734ZM476.984 37.5532H478.971L477.975 34.3477L476.984 37.5532ZM490.835 41H488.62L485.344 35.249V41H483.116V31.7578H485.344L488.613 37.5088V31.7578H490.835V41ZM499.722 37.8706C499.692 38.5138 499.519 39.083 499.201 39.5781C498.884 40.069 498.437 40.4499 497.862 40.7207C497.291 40.9915 496.637 41.127 495.9 41.127C494.686 41.127 493.729 40.7313 493.031 39.9399C492.333 39.1486 491.984 38.0314 491.984 36.5884V36.1313C491.984 35.2257 492.14 34.4344 492.454 33.7573C492.771 33.076 493.226 32.5513 493.818 32.1831C494.411 31.8107 495.096 31.6245 495.875 31.6245C496.996 31.6245 497.898 31.9207 498.579 32.5132C499.26 33.1014 499.648 33.9139 499.741 34.9507H497.519C497.502 34.3879 497.36 33.9837 497.094 33.7383C496.827 33.4928 496.421 33.3701 495.875 33.3701C495.321 33.3701 494.914 33.5775 494.656 33.9922C494.398 34.4069 494.263 35.0692 494.25 35.979V36.6328C494.25 37.6188 494.373 38.3234 494.618 38.7466C494.868 39.1698 495.295 39.3813 495.9 39.3813C496.412 39.3813 496.804 39.2607 497.075 39.0195C497.346 38.7783 497.489 38.3953 497.506 37.8706H499.722ZM506.507 37.0835H503.003V39.2861H507.142V41H500.775V31.7578H507.155V33.478H503.003V35.4268H506.507V37.0835ZM509.275 38.9243C509.613 38.9243 509.895 39.0259 510.119 39.229C510.343 39.4279 510.456 39.6839 510.456 39.9971C510.456 40.3102 510.343 40.5684 510.119 40.7715C509.895 40.9704 509.613 41.0698 509.275 41.0698C508.932 41.0698 508.649 40.9683 508.424 40.7651C508.204 40.562 508.094 40.306 508.094 39.9971C508.094 39.6882 508.204 39.4321 508.424 39.229C508.649 39.0259 508.932 38.9243 509.275 38.9243ZM519.463 37.8706C519.433 38.5138 519.26 39.083 518.942 39.5781C518.625 40.069 518.179 40.4499 517.603 40.7207C517.032 40.9915 516.378 41.127 515.642 41.127C514.427 41.127 513.471 40.7313 512.772 39.9399C512.074 39.1486 511.725 38.0314 511.725 36.5884V36.1313C511.725 35.2257 511.882 34.4344 512.195 33.7573C512.512 33.076 512.967 32.5513 513.56 32.1831C514.152 31.8107 514.838 31.6245 515.616 31.6245C516.738 31.6245 517.639 31.9207 518.32 32.5132C519.002 33.1014 519.389 33.9139 519.482 34.9507H517.26C517.243 34.3879 517.102 33.9837 516.835 33.7383C516.568 33.4928 516.162 33.3701 515.616 33.3701C515.062 33.3701 514.656 33.5775 514.397 33.9922C514.139 34.4069 514.004 35.0692 513.991 35.979V36.6328C513.991 37.6188 514.114 38.3234 514.359 38.7466C514.609 39.1698 515.036 39.3813 515.642 39.3813C516.154 39.3813 516.545 39.2607 516.816 39.0195C517.087 38.7783 517.231 38.3953 517.248 37.8706H519.463ZM528.343 36.5693C528.343 37.4707 528.176 38.2684 527.842 38.9624C527.507 39.6564 527.031 40.1917 526.414 40.5684C525.8 40.9408 525.1 41.127 524.312 41.127C523.525 41.127 522.827 40.9471 522.218 40.5874C521.608 40.2235 521.132 39.7051 520.79 39.0322C520.451 38.3594 520.273 37.5871 520.256 36.7153V36.1948C520.256 35.2892 520.421 34.4915 520.751 33.8018C521.086 33.1077 521.562 32.5724 522.18 32.1958C522.802 31.8192 523.508 31.6309 524.3 31.6309C525.083 31.6309 525.781 31.8171 526.395 32.1895C527.008 32.5618 527.484 33.0929 527.823 33.7827C528.166 34.4683 528.339 35.2554 528.343 36.144V36.5693ZM526.077 36.1821C526.077 35.2638 525.923 34.5677 525.614 34.0938C525.309 33.6156 524.871 33.3765 524.3 33.3765C523.183 33.3765 522.592 34.2144 522.529 35.8901L522.522 36.5693C522.522 37.4749 522.673 38.1711 522.973 38.6577C523.274 39.1444 523.72 39.3877 524.312 39.3877C524.875 39.3877 525.309 39.1486 525.614 38.6704C525.918 38.1922 526.073 37.5046 526.077 36.6074V36.1821ZM532.418 31.7578L534.481 38.188L536.538 31.7578H539.471V41H537.236V38.8418L537.452 34.4238L535.218 41H533.745L531.504 34.4175L531.72 38.8418V41H529.492V31.7578H532.418Z" fill="white"/>
<path d="M460.423 112H458.208V108.141H454.926V112H452.698V102.758H454.926V106.427H458.208V102.758H460.423V112ZM469.088 102.758V108.807C469.088 109.493 468.942 110.087 468.65 110.591C468.358 111.09 467.939 111.471 467.393 111.733C466.847 111.996 466.202 112.127 465.457 112.127C464.331 112.127 463.445 111.835 462.797 111.251C462.15 110.667 461.82 109.867 461.807 108.852V102.758H464.048V108.896C464.073 109.907 464.543 110.413 465.457 110.413C465.918 110.413 466.267 110.286 466.504 110.032C466.741 109.778 466.86 109.366 466.86 108.794V102.758H469.088ZM478.311 107.569C478.311 108.471 478.144 109.268 477.81 109.962C477.475 110.656 476.999 111.192 476.381 111.568C475.768 111.941 475.067 112.127 474.28 112.127C473.493 112.127 472.795 111.947 472.186 111.587C471.576 111.223 471.1 110.705 470.757 110.032C470.419 109.359 470.241 108.587 470.224 107.715V107.195C470.224 106.289 470.389 105.492 470.719 104.802C471.054 104.108 471.53 103.572 472.147 103.196C472.77 102.819 473.476 102.631 474.268 102.631C475.05 102.631 475.749 102.817 476.362 103.189C476.976 103.562 477.452 104.093 477.791 104.783C478.133 105.468 478.307 106.255 478.311 107.144V107.569ZM476.045 107.182C476.045 106.264 475.89 105.568 475.582 105.094C475.277 104.616 474.839 104.376 474.268 104.376C473.15 104.376 472.56 105.214 472.497 106.89L472.49 107.569C472.49 108.475 472.64 109.171 472.941 109.658C473.241 110.144 473.688 110.388 474.28 110.388C474.843 110.388 475.277 110.149 475.582 109.67C475.886 109.192 476.041 108.505 476.045 107.607V107.182ZM479.46 112V102.758H482.78C483.969 102.758 484.872 102.976 485.49 103.412C486.112 103.847 486.423 104.48 486.423 105.31C486.423 105.788 486.313 106.196 486.093 106.535C485.873 106.873 485.549 107.123 485.122 107.284C485.604 107.411 485.975 107.648 486.233 107.995C486.491 108.342 486.62 108.765 486.62 109.264C486.62 110.17 486.332 110.851 485.757 111.308C485.186 111.761 484.337 111.992 483.211 112H479.46ZM481.688 108.071V110.286H483.148C483.55 110.286 483.859 110.195 484.075 110.013C484.291 109.827 484.398 109.567 484.398 109.232C484.398 108.462 484.015 108.075 483.25 108.071H481.688ZM481.688 106.611H482.85C483.336 106.607 483.683 106.518 483.891 106.344C484.098 106.171 484.202 105.915 484.202 105.576C484.202 105.187 484.09 104.908 483.865 104.738C483.641 104.565 483.279 104.478 482.78 104.478H481.688V106.611ZM490.226 112H488.004V102.758H490.226V112ZM493 109.924C493.338 109.924 493.619 110.026 493.844 110.229C494.068 110.428 494.18 110.684 494.18 110.997C494.18 111.31 494.068 111.568 493.844 111.771C493.619 111.97 493.338 112.07 493 112.07C492.657 112.07 492.373 111.968 492.149 111.765C491.929 111.562 491.819 111.306 491.819 110.997C491.819 110.688 491.929 110.432 492.149 110.229C492.373 110.026 492.657 109.924 493 109.924ZM503.188 108.871C503.158 109.514 502.984 110.083 502.667 110.578C502.35 111.069 501.903 111.45 501.328 111.721C500.756 111.992 500.103 112.127 499.366 112.127C498.152 112.127 497.195 111.731 496.497 110.94C495.799 110.149 495.45 109.031 495.45 107.588V107.131C495.45 106.226 495.606 105.434 495.919 104.757C496.237 104.076 496.692 103.551 497.284 103.183C497.877 102.811 498.562 102.625 499.341 102.625C500.462 102.625 501.364 102.921 502.045 103.513C502.726 104.101 503.113 104.914 503.207 105.951H500.985C500.968 105.388 500.826 104.984 500.56 104.738C500.293 104.493 499.887 104.37 499.341 104.37C498.786 104.37 498.38 104.577 498.122 104.992C497.864 105.407 497.729 106.069 497.716 106.979V107.633C497.716 108.619 497.839 109.323 498.084 109.747C498.334 110.17 498.761 110.381 499.366 110.381C499.878 110.381 500.27 110.261 500.541 110.02C500.811 109.778 500.955 109.395 500.972 108.871H503.188ZM512.068 107.569C512.068 108.471 511.901 109.268 511.566 109.962C511.232 110.656 510.756 111.192 510.138 111.568C509.525 111.941 508.824 112.127 508.037 112.127C507.25 112.127 506.552 111.947 505.942 111.587C505.333 111.223 504.857 110.705 504.514 110.032C504.176 109.359 503.998 108.587 503.981 107.715V107.195C503.981 106.289 504.146 105.492 504.476 104.802C504.81 104.108 505.286 103.572 505.904 103.196C506.526 102.819 507.233 102.631 508.024 102.631C508.807 102.631 509.506 102.817 510.119 103.189C510.733 103.562 511.209 104.093 511.547 104.783C511.89 105.468 512.064 106.255 512.068 107.144V107.569ZM509.802 107.182C509.802 106.264 509.647 105.568 509.338 105.094C509.034 104.616 508.596 104.376 508.024 104.376C506.907 104.376 506.317 105.214 506.253 106.89L506.247 107.569C506.247 108.475 506.397 109.171 506.698 109.658C506.998 110.144 507.445 110.388 508.037 110.388C508.6 110.388 509.034 110.149 509.338 109.67C509.643 109.192 509.798 108.505 509.802 107.607V107.182ZM516.143 102.758L518.206 109.188L520.263 102.758H523.195V112H520.961V109.842L521.177 105.424L518.942 112H517.47L515.229 105.417L515.445 109.842V112H513.217V102.758H516.143Z" fill="white"/>
<path d="M460.417 188H458.202L454.926 182.249V188H452.698V178.758H454.926L458.195 184.509V178.758H460.417V188ZM465.032 182.77L466.733 178.758H469.139L466.162 184.68V188H463.902V184.68L460.931 178.758H463.324L465.032 182.77ZM474.477 185.543C474.477 185.218 474.361 184.964 474.128 184.782C473.899 184.6 473.495 184.411 472.916 184.217C472.336 184.022 471.862 183.834 471.494 183.652C470.296 183.064 469.697 182.255 469.697 181.227C469.697 180.715 469.845 180.264 470.142 179.875C470.442 179.481 470.865 179.177 471.411 178.961C471.957 178.741 472.571 178.631 473.252 178.631C473.916 178.631 474.511 178.749 475.036 178.986C475.565 179.223 475.975 179.562 476.267 180.002C476.559 180.438 476.705 180.937 476.705 181.5H474.483C474.483 181.123 474.367 180.831 474.134 180.624C473.906 180.417 473.595 180.313 473.201 180.313C472.803 180.313 472.488 180.402 472.255 180.58C472.027 180.753 471.913 180.975 471.913 181.246C471.913 181.483 472.04 181.699 472.293 181.894C472.547 182.084 472.994 182.283 473.633 182.49C474.272 182.693 474.797 182.913 475.207 183.15C476.206 183.726 476.705 184.519 476.705 185.531C476.705 186.339 476.4 186.974 475.791 187.435C475.182 187.896 474.346 188.127 473.284 188.127C472.535 188.127 471.855 187.994 471.246 187.727C470.641 187.456 470.184 187.088 469.875 186.623C469.57 186.153 469.418 185.613 469.418 185.004H471.652C471.652 185.499 471.779 185.865 472.033 186.102C472.291 186.335 472.708 186.451 473.284 186.451C473.652 186.451 473.942 186.373 474.153 186.216C474.369 186.056 474.477 185.831 474.477 185.543ZM483.58 184.083H480.076V186.286H484.214V188H477.848V178.758H484.227V180.478H480.076V182.427H483.58V184.083ZM486.347 185.924C486.686 185.924 486.967 186.026 487.191 186.229C487.416 186.428 487.528 186.684 487.528 186.997C487.528 187.31 487.416 187.568 487.191 187.771C486.967 187.97 486.686 188.07 486.347 188.07C486.004 188.07 485.721 187.968 485.497 187.765C485.277 187.562 485.167 187.306 485.167 186.997C485.167 186.688 485.277 186.432 485.497 186.229C485.721 186.026 486.004 185.924 486.347 185.924ZM496.535 184.871C496.506 185.514 496.332 186.083 496.015 186.578C495.697 187.069 495.251 187.45 494.675 187.721C494.104 187.992 493.45 188.127 492.714 188.127C491.499 188.127 490.543 187.731 489.845 186.94C489.146 186.149 488.797 185.031 488.797 183.588V183.131C488.797 182.226 488.954 181.434 489.267 180.757C489.584 180.076 490.039 179.551 490.632 179.183C491.224 178.811 491.91 178.625 492.688 178.625C493.81 178.625 494.711 178.921 495.393 179.513C496.074 180.101 496.461 180.914 496.554 181.951H494.333C494.316 181.388 494.174 180.984 493.907 180.738C493.641 180.493 493.234 180.37 492.688 180.37C492.134 180.37 491.728 180.577 491.47 180.992C491.212 181.407 491.076 182.069 491.063 182.979V183.633C491.063 184.619 491.186 185.323 491.432 185.747C491.681 186.17 492.109 186.381 492.714 186.381C493.226 186.381 493.617 186.261 493.888 186.02C494.159 185.778 494.303 185.395 494.32 184.871H496.535ZM505.416 183.569C505.416 184.471 505.248 185.268 504.914 185.962C504.58 186.656 504.104 187.192 503.486 187.568C502.872 187.941 502.172 188.127 501.385 188.127C500.598 188.127 499.899 187.947 499.29 187.587C498.681 187.223 498.205 186.705 497.862 186.032C497.523 185.359 497.346 184.587 497.329 183.715V183.195C497.329 182.289 497.494 181.492 497.824 180.802C498.158 180.108 498.634 179.572 499.252 179.196C499.874 178.819 500.581 178.631 501.372 178.631C502.155 178.631 502.853 178.817 503.467 179.189C504.08 179.562 504.556 180.093 504.895 180.783C505.238 181.468 505.411 182.255 505.416 183.144V183.569ZM503.149 183.182C503.149 182.264 502.995 181.568 502.686 181.094C502.381 180.616 501.943 180.376 501.372 180.376C500.255 180.376 499.665 181.214 499.601 182.89L499.595 183.569C499.595 184.475 499.745 185.171 500.045 185.658C500.346 186.144 500.792 186.388 501.385 186.388C501.948 186.388 502.381 186.149 502.686 185.67C502.991 185.192 503.145 184.505 503.149 183.607V183.182ZM509.491 178.758L511.554 185.188L513.61 178.758H516.543V188H514.309V185.842L514.524 181.424L512.29 188H510.817L508.577 181.417L508.792 185.842V188H506.564V178.758H509.491Z" fill="white"/>
<path d="M240.322 29.2734H237.269L236.735 31H234.355L237.745 21.7578H239.839L243.254 31H240.861L240.322 29.2734ZM237.802 27.5532H239.789L238.792 24.3477L237.802 27.5532ZM246.162 27.8643V31H243.934V21.7578H247.622C248.328 21.7578 248.952 21.889 249.494 22.1514C250.04 22.4095 250.461 22.7798 250.757 23.2622C251.058 23.7404 251.208 24.2842 251.208 24.8936C251.208 25.7949 250.884 26.5164 250.237 27.0581C249.594 27.5955 248.709 27.8643 247.583 27.8643H246.162ZM246.162 26.144H247.622C248.053 26.144 248.381 26.0361 248.605 25.8203C248.834 25.6045 248.948 25.2998 248.948 24.9062C248.948 24.4746 248.832 24.1297 248.599 23.8716C248.366 23.6134 248.049 23.4823 247.647 23.478H246.162V26.144ZM254.775 31H252.554V21.7578H254.775V31Z" fill="white"/>
<path d="M240.322 98.2734H237.269L236.735 100H234.355L237.745 90.7578H239.839L243.254 100H240.861L240.322 98.2734ZM237.802 96.5532H239.789L238.792 93.3477L237.802 96.5532ZM246.162 96.8643V100H243.934V90.7578H247.622C248.328 90.7578 248.952 90.889 249.494 91.1514C250.04 91.4095 250.461 91.7798 250.757 92.2622C251.058 92.7404 251.208 93.2842 251.208 93.8936C251.208 94.7949 250.884 95.5164 250.237 96.0581C249.594 96.5955 248.709 96.8643 247.583 96.8643H246.162ZM246.162 95.144H247.622C248.053 95.144 248.381 95.0361 248.605 94.8203C248.834 94.6045 248.948 94.2998 248.948 93.9062C248.948 93.4746 248.832 93.1297 248.599 92.8716C248.366 92.6134 248.049 92.4823 247.647 92.478H246.162V95.144ZM254.775 100H252.554V90.7578H254.775V100Z" fill="white"/>
<path d="M240.322 176.273H237.269L236.735 178H234.355L237.745 168.758H239.839L243.254 178H240.861L240.322 176.273ZM237.802 174.553H239.789L238.792 171.348L237.802 174.553ZM246.162 174.864V178H243.934V168.758H247.622C248.328 168.758 248.952 168.889 249.494 169.151C250.04 169.41 250.461 169.78 250.757 170.262C251.058 170.74 251.208 171.284 251.208 171.894C251.208 172.795 250.884 173.516 250.237 174.058C249.594 174.596 248.709 174.864 247.583 174.864H246.162ZM246.162 173.144H247.622C248.053 173.144 248.381 173.036 248.605 172.82C248.834 172.604 248.948 172.3 248.948 171.906C248.948 171.475 248.832 171.13 248.599 170.872C248.366 170.613 248.049 170.482 247.647 170.478H246.162V173.144ZM254.775 178H252.554V168.758H254.775V178Z" fill="white"/>
<g filter="url(#filter3_b)">
<rect width="191" height="280" fill="#052E5E" fill-opacity="0.29"/>
<rect x="0.5" y="0.5" width="190" height="279" stroke="#194170"/>
</g>
<g filter="url(#filter4_b)">
<rect x="127" y="14" width="49.6538" height="41.0183" rx="5" fill="#EEE979" fill-opacity="0.24"/>
<rect x="127.5" y="14.5" width="48.6538" height="40.0183" rx="4.5" stroke="#E8E8ED" stroke-opacity="0.19"/>
</g>
<g filter="url(#filter5_b)">
<path d="M127 19C127 16.2386 129.239 14 132 14H136.376C138.242 14 139.953 15.0395 140.813 16.6959L142.871 20.6591C143.731 22.3156 145.442 23.3551 147.309 23.3551H171.654C174.415 23.3551 176.654 25.5936 176.654 28.3551V50.0183C176.654 52.7798 174.415 55.0183 171.654 55.0183H132C129.239 55.0183 127 52.7798 127 50.0183V19Z" fill="#EEE979" fill-opacity="0.24"/>
<path d="M127.5 19C127.5 16.5147 129.515 14.5 132 14.5H136.376C138.056 14.5 139.595 15.4356 140.37 16.9263L142.427 20.8895C143.373 22.7116 145.256 23.8551 147.309 23.8551H171.654C174.139 23.8551 176.154 25.8698 176.154 28.3551V50.0183C176.154 52.5036 174.139 54.5183 171.654 54.5183H132C129.515 54.5183 127.5 52.5036 127.5 50.0183V19Z" stroke="#E8E8ED" stroke-opacity="0.19"/>
</g>
<path d="M136.729 39.7437V43H134.825V33.7578H138.431C139.125 33.7578 139.734 33.8848 140.259 34.1387C140.788 34.3926 141.194 34.7544 141.478 35.2241C141.761 35.6896 141.903 36.2207 141.903 36.8174C141.903 37.723 141.592 38.4382 140.97 38.9629C140.352 39.4834 139.495 39.7437 138.399 39.7437H136.729ZM136.729 38.2012H138.431C138.934 38.2012 139.317 38.0827 139.58 37.8457C139.846 37.6087 139.979 37.2702 139.979 36.8301C139.979 36.3773 139.846 36.0112 139.58 35.7319C139.313 35.4526 138.945 35.3088 138.475 35.3003H136.729V38.2012ZM146.111 39.293L145.121 40.3594V43H143.217V33.7578H145.121V37.9473L145.959 36.7983L148.314 33.7578H150.656L147.375 37.8647L150.751 43H148.485L146.111 39.293ZM158.578 41.832C158.235 42.2425 157.751 42.562 157.125 42.7905C156.498 43.0148 155.804 43.127 155.042 43.127C154.243 43.127 153.54 42.9535 152.935 42.6064C152.334 42.2552 151.869 41.7474 151.539 41.083C151.213 40.4186 151.046 39.6379 151.037 38.7407V38.1123C151.037 37.1898 151.192 36.3921 151.5 35.7192C151.814 35.0422 152.262 34.5259 152.846 34.1704C153.434 33.8107 154.122 33.6309 154.909 33.6309C156.005 33.6309 156.862 33.8932 157.48 34.418C158.098 34.9385 158.464 35.6981 158.578 36.6968H156.725C156.64 36.1678 156.452 35.7806 156.16 35.5352C155.872 35.2897 155.474 35.167 154.966 35.167C154.319 35.167 153.826 35.4103 153.487 35.897C153.149 36.3836 152.977 37.1073 152.973 38.0679V38.6582C152.973 39.6273 153.157 40.3594 153.525 40.8545C153.894 41.3496 154.433 41.5972 155.144 41.5972C155.859 41.5972 156.369 41.4448 156.674 41.1401V39.5469H154.941V38.144H158.578V41.832ZM167.624 43H165.789V35.9287L163.599 36.6079V35.1162L167.427 33.7451H167.624V43Z" fill="white"/>
<g filter="url(#filter6_b)">
<rect x="127" y="84.0183" width="49.6538" height="41.0183" rx="5" fill="#6A9AF6" fill-opacity="0.24"/>
<rect x="127.5" y="84.5183" width="48.6538" height="40.0183" rx="4.5" stroke="#E8E8ED" stroke-opacity="0.19"/>
</g>
<g filter="url(#filter7_b)">
<path d="M127 89.0183C127 86.2569 129.239 84.0183 132 84.0183H136.376C138.242 84.0183 139.953 85.0578 140.813 86.7142L142.871 90.6774C143.731 92.3339 145.442 93.3734 147.309 93.3734H171.654C174.415 93.3734 176.654 95.6119 176.654 98.3734V120.037C176.654 122.798 174.415 125.037 171.654 125.037H132C129.239 125.037 127 122.798 127 120.037V89.0183Z" fill="#6A9AF6" fill-opacity="0.24"/>
<path d="M127.5 89.0183C127.5 86.533 129.515 84.5183 132 84.5183H136.376C138.056 84.5183 139.595 85.4539 140.37 86.9446L142.427 90.9079C143.373 92.7299 145.256 93.8734 147.309 93.8734H171.654C174.139 93.8734 176.154 95.8881 176.154 98.3734V120.037C176.154 122.522 174.139 124.537 171.654 124.537H132C129.515 124.537 127.5 122.522 127.5 120.037V89.0183Z" stroke="#E8E8ED" stroke-opacity="0.19"/>
</g>
<g filter="url(#filter8_b)">
<rect x="127" y="161" width="49.6538" height="41.0183" rx="5" fill="#9179EE" fill-opacity="0.24"/>
<rect x="127.5" y="161.5" width="48.6538" height="40.0183" rx="4.5" stroke="#E8E8ED" stroke-opacity="0.19"/>
</g>
<g filter="url(#filter9_b)">
<path d="M127 166C127 163.239 129.239 161 132 161H136.376C138.242 161 139.953 162.04 140.813 163.696L142.871 167.659C143.731 169.316 145.442 170.355 147.309 170.355H171.654C174.415 170.355 176.654 172.594 176.654 175.355V197.018C176.654 199.78 174.415 202.018 171.654 202.018H132C129.239 202.018 127 199.78 127 197.018V166Z" fill="#9179EE" fill-opacity="0.24"/>
<path d="M127.5 166C127.5 163.515 129.515 161.5 132 161.5H136.376C138.056 161.5 139.595 162.436 140.37 163.926L142.427 167.89C143.373 169.712 145.256 170.855 147.309 170.855H171.654C174.139 170.855 176.154 172.87 176.154 175.355V197.018C176.154 199.504 174.139 201.518 171.654 201.518H132C129.515 201.518 127.5 199.504 127.5 197.018V166Z" stroke="#E8E8ED" stroke-opacity="0.19"/>
</g>
<g filter="url(#filter10_b)">
<rect x="127" y="225" width="49.6538" height="41.0183" rx="5" fill="#DDDDDD" fill-opacity="0.24"/>
<rect x="127.5" y="225.5" width="48.6538" height="40.0183" rx="4.5" stroke="#E8E8ED" stroke-opacity="0.19"/>
</g>
<g filter="url(#filter11_b)">
<path d="M127 230C127 227.239 129.239 225 132 225H136.376C138.242 225 139.953 226.04 140.813 227.696L142.871 231.659C143.731 233.316 145.442 234.355 147.309 234.355H171.654C174.415 234.355 176.654 236.594 176.654 239.355V261.018C176.654 263.78 174.415 266.018 171.654 266.018H132C129.239 266.018 127 263.78 127 261.018V230Z" fill="#DDDDDD" fill-opacity="0.24"/>
<path d="M127.5 230C127.5 227.515 129.515 225.5 132 225.5H136.376C138.056 225.5 139.595 226.436 140.37 227.926L142.427 231.89C143.373 233.712 145.256 234.855 147.309 234.855H171.654C174.139 234.855 176.154 236.87 176.154 239.355V261.018C176.154 263.504 174.139 265.518 171.654 265.518H132C129.515 265.518 127.5 263.504 127.5 261.018V230Z" stroke="#E8E8ED" stroke-opacity="0.19"/>
</g>
<path d="M138.41 247.827H140.701V249.483H138.41V252.073H136.664V249.483H134.366V247.827H136.664V245.345H138.41V247.827ZM150.381 251.096H147.042L146.408 253H144.383L147.823 243.758H149.588L153.047 253H151.022L150.381 251.096ZM147.557 249.553H149.867L148.706 246.094L147.557 249.553ZM153.911 253V243.758H156.754C157.567 243.758 158.293 243.942 158.932 244.31C159.575 244.674 160.076 245.194 160.436 245.872C160.796 246.544 160.976 247.31 160.976 248.169V248.595C160.976 249.454 160.798 250.218 160.442 250.886C160.091 251.555 159.594 252.073 158.951 252.441C158.307 252.81 157.582 252.996 156.773 253H153.911ZM155.815 245.3V251.47H156.735C157.48 251.47 158.049 251.227 158.443 250.74C158.836 250.254 159.037 249.557 159.046 248.652V248.163C159.046 247.224 158.851 246.513 158.462 246.03C158.073 245.544 157.503 245.3 156.754 245.3H155.815ZM162.366 253V243.758H165.209C166.022 243.758 166.748 243.942 167.387 244.31C168.03 244.674 168.531 245.194 168.891 245.872C169.251 246.544 169.431 247.31 169.431 248.169V248.595C169.431 249.454 169.253 250.218 168.897 250.886C168.546 251.555 168.049 252.073 167.406 252.441C166.763 252.81 166.037 252.996 165.229 253H162.366ZM164.27 245.3V251.47H165.19C165.935 251.47 166.504 251.227 166.898 250.74C167.292 250.254 167.493 249.557 167.501 248.652V248.163C167.501 247.224 167.306 246.513 166.917 246.03C166.528 245.544 165.958 245.3 165.209 245.3H164.27Z" fill="white"/>
<g filter="url(#filter12_b)">
<rect x="12" y="84" width="45" height="118" fill="#052E5E"/>
<rect x="12.5" y="84.5" width="44" height="117" stroke="#194170"/>
</g>
<path d="M36.8887 169.95C36.5013 169.95 36.2051 170.087 36 170.36C35.7904 170.634 35.5716 171.126 35.3437 171.837C35.1113 172.548 34.8835 173.111 34.6602 173.525C34.0495 174.656 33.2269 175.221 32.1924 175.221C31.6546 175.221 31.1761 175.07 30.7568 174.77C30.333 174.464 30.0026 174.029 29.7656 173.464C29.5286 172.894 29.4102 172.256 29.4102 171.55C29.4102 170.839 29.54 170.205 29.7998 169.649C30.055 169.093 30.4173 168.663 30.8867 168.357C31.3561 168.048 31.8893 167.893 32.4863 167.893L32.4863 169.943C32.0306 169.943 31.6774 170.087 31.4268 170.374C31.1715 170.661 31.0439 171.064 31.0439 171.584C31.0439 172.085 31.151 172.475 31.3652 172.753C31.5749 173.031 31.8529 173.17 32.1992 173.17C32.5228 173.17 32.7939 173.008 33.0127 172.685C33.2314 172.356 33.4365 171.876 33.6279 171.242C33.9788 170.076 34.4141 169.226 34.9336 168.692C35.4531 168.159 36.1003 167.893 36.875 167.893C37.7363 167.893 38.4131 168.218 38.9053 168.87C39.3929 169.522 39.6367 170.399 39.6367 171.502C39.6367 172.268 39.4977 172.965 39.2197 173.594C38.9372 174.223 38.5521 174.703 38.0645 175.036C37.5768 175.364 37.0117 175.528 36.3691 175.528L36.3691 173.471C37.4674 173.471 38.0166 172.814 38.0166 171.502C38.0166 171.014 37.9186 170.634 37.7227 170.36C37.5221 170.087 37.2441 169.95 36.8887 169.95ZM31.208 159.006L31.208 162.055L39.5 162.055L39.5 164.105L31.208 164.105L31.208 167.113L29.5469 167.113L29.5469 159.006L31.208 159.006ZM35.8564 154.146L35.8564 155.779L39.5 155.779L39.5 157.83L29.5469 157.83L29.5469 154.132C29.5469 152.956 29.8089 152.049 30.333 151.411C30.8571 150.773 31.5977 150.454 32.5547 150.454C33.2337 150.454 33.8011 150.602 34.2568 150.898C34.708 151.19 35.068 151.634 35.3369 152.231L39.4043 150.078L39.5 150.078L39.5 152.279L35.8564 154.146ZM34.1953 155.779L34.1953 154.125C34.1953 153.61 34.0654 153.211 33.8057 152.929C33.5413 152.646 33.179 152.505 32.7187 152.505C32.2493 152.505 31.8802 152.639 31.6113 152.908C31.3424 153.173 31.208 153.58 31.208 154.132L31.208 155.779L34.1953 155.779ZM37.4492 143.27L37.4492 146.865L39.5 147.549L39.5 149.729L29.5469 146.024L29.5469 144.124L39.5 140.398L39.5 142.579L37.4492 143.27ZM35.7881 146.312L35.7881 143.823L32.0625 145.074L35.7881 146.312ZM31.208 132.797L31.208 135.846L39.5 135.846L39.5 137.896L31.208 137.896L31.208 140.904L29.5469 140.904L29.5469 132.797L31.208 132.797ZM35.1865 125.633L35.1865 129.57L37.8525 129.57L37.8525 124.949L39.5 124.949L39.5 131.621L29.5469 131.621L29.5469 124.963L31.208 124.963L31.208 129.57L33.5801 129.57L33.5801 125.633L35.1865 125.633ZM38.2422 115.871C38.6842 116.24 39.0283 116.762 39.2744 117.437C39.5159 118.111 39.6367 118.858 39.6367 119.679C39.6367 120.54 39.4499 121.297 39.0762 121.948C38.6979 122.595 38.151 123.097 37.4355 123.452C36.72 123.803 35.8792 123.983 34.9131 123.992L34.2363 123.992C33.2428 123.992 32.3838 123.826 31.6592 123.493C30.93 123.156 30.374 122.673 29.9912 122.044C29.6038 121.41 29.4102 120.67 29.4102 119.822C29.4102 118.642 29.6927 117.719 30.2578 117.054C30.8184 116.388 31.6364 115.994 32.7119 115.871L32.7119 117.867C32.1423 117.958 31.7253 118.161 31.4609 118.476C31.1966 118.785 31.0645 119.214 31.0645 119.761C31.0645 120.458 31.3265 120.989 31.8506 121.354C32.3747 121.718 33.154 121.903 34.1885 121.907L34.8242 121.907C35.8678 121.907 36.6562 121.709 37.1895 121.312C37.7227 120.916 37.9893 120.335 37.9893 119.569C37.9893 118.799 37.8252 118.25 37.4971 117.922L35.7812 117.922L35.7812 119.788L34.2705 119.788L34.2705 115.871L38.2422 115.871ZM34.0312 110.771L29.5469 108.7L29.5469 106.458L35.8906 109.726L39.5 109.726L39.5 111.811L35.8906 111.811L29.5469 115.078L29.5469 112.829L34.0312 110.771Z" fill="white"/>
<path d="M126.5 247H96C93.2386 247 91 244.761 91 242V167.5C91 164.739 88.7614 162.5 86 162.5H73" stroke="white" stroke-opacity="0.5" stroke-dasharray="7 7"/>
<path d="M126.5 36H96C93.2386 36 91 38.2386 91 41V114.5C91 117.261 88.7614 119.5 86 119.5H73" stroke="white" stroke-opacity="0.7"/>
<path d="M127 105H110.842C108.081 105 105.842 107.239 105.842 110V132C105.842 134.761 103.604 137 100.842 137H73" stroke="white" stroke-opacity="0.7"/>
<path d="M127 182H110.842C108.081 182 105.842 179.761 105.842 177V155C105.842 152.239 103.604 150 100.842 150H73" stroke="white" stroke-opacity="0.7"/>
<line x1="177" y1="35.5" x2="313" y2="35.5" stroke="white" stroke-opacity="0.7"/>
<line x1="177" y1="104.5" x2="313" y2="104.5" stroke="white" stroke-opacity="0.7"/>
<line x1="177" y1="181.5" x2="313" y2="181.5" stroke="white" stroke-opacity="0.7"/>
<path d="M136.729 109.744V113H134.825V103.758H138.431C139.125 103.758 139.734 103.885 140.259 104.139C140.788 104.393 141.194 104.754 141.478 105.224C141.761 105.69 141.903 106.221 141.903 106.817C141.903 107.723 141.592 108.438 140.97 108.963C140.352 109.483 139.495 109.744 138.399 109.744H136.729ZM136.729 108.201H138.431C138.934 108.201 139.317 108.083 139.58 107.846C139.846 107.609 139.979 107.27 139.979 106.83C139.979 106.377 139.846 106.011 139.58 105.732C139.313 105.453 138.945 105.309 138.475 105.3H136.729V108.201ZM146.111 109.293L145.121 110.359V113H143.217V103.758H145.121V107.947L145.959 106.798L148.314 103.758H150.656L147.375 107.865L150.751 113H148.485L146.111 109.293ZM158.578 111.832C158.235 112.243 157.751 112.562 157.125 112.791C156.498 113.015 155.804 113.127 155.042 113.127C154.243 113.127 153.54 112.953 152.935 112.606C152.334 112.255 151.869 111.747 151.539 111.083C151.213 110.419 151.046 109.638 151.037 108.741V108.112C151.037 107.19 151.192 106.392 151.5 105.719C151.814 105.042 152.262 104.526 152.846 104.17C153.434 103.811 154.122 103.631 154.909 103.631C156.005 103.631 156.862 103.893 157.48 104.418C158.098 104.938 158.464 105.698 158.578 106.697H156.725C156.64 106.168 156.452 105.781 156.16 105.535C155.872 105.29 155.474 105.167 154.966 105.167C154.319 105.167 153.826 105.41 153.487 105.897C153.149 106.384 152.977 107.107 152.973 108.068V108.658C152.973 109.627 153.157 110.359 153.525 110.854C153.894 111.35 154.433 111.597 155.144 111.597C155.859 111.597 156.369 111.445 156.674 111.14V109.547H154.941V108.144H158.578V111.832ZM167.624 113H165.789V105.929L163.599 106.608V105.116L167.427 103.745H167.624V113Z" fill="white"/>
<path d="M136.729 184.744V188H134.825V178.758H138.431C139.125 178.758 139.734 178.885 140.259 179.139C140.788 179.393 141.194 179.754 141.478 180.224C141.761 180.69 141.903 181.221 141.903 181.817C141.903 182.723 141.592 183.438 140.97 183.963C140.352 184.483 139.495 184.744 138.399 184.744H136.729ZM136.729 183.201H138.431C138.934 183.201 139.317 183.083 139.58 182.846C139.846 182.609 139.979 182.27 139.979 181.83C139.979 181.377 139.846 181.011 139.58 180.732C139.313 180.453 138.945 180.309 138.475 180.3H136.729V183.201ZM146.111 184.293L145.121 185.359V188H143.217V178.758H145.121V182.947L145.959 181.798L148.314 178.758H150.656L147.375 182.865L150.751 188H148.485L146.111 184.293ZM158.578 186.832C158.235 187.243 157.751 187.562 157.125 187.791C156.498 188.015 155.804 188.127 155.042 188.127C154.243 188.127 153.54 187.953 152.935 187.606C152.334 187.255 151.869 186.747 151.539 186.083C151.213 185.419 151.046 184.638 151.037 183.741V183.112C151.037 182.19 151.192 181.392 151.5 180.719C151.814 180.042 152.262 179.526 152.846 179.17C153.434 178.811 154.122 178.631 154.909 178.631C156.005 178.631 156.862 178.893 157.48 179.418C158.098 179.938 158.464 180.698 158.578 181.697H156.725C156.64 181.168 156.452 180.781 156.16 180.535C155.872 180.29 155.474 180.167 154.966 180.167C154.319 180.167 153.826 180.41 153.487 180.897C153.149 181.384 152.977 182.107 152.973 183.068V183.658C152.973 184.627 153.157 185.359 153.525 185.854C153.894 186.35 154.433 186.597 155.144 186.597C155.859 186.597 156.369 186.445 156.674 186.14V184.547H154.941V183.144H158.578V186.832ZM167.624 188H165.789V180.929L163.599 181.608V180.116L167.427 178.745H167.624V188Z" fill="white"/>
<circle cx="124" cy="36" r="3" fill="#BCBAC4"/>
<circle cx="180" cy="36" r="3" fill="#BCBAC4"/>
<circle cx="124" cy="105" r="3" fill="#BCBAC4"/>
<circle cx="180" cy="105" r="3" fill="#BCBAC4"/>
<circle cx="124" cy="182" r="3" fill="#BCBAC4"/>
<circle cx="180" cy="182" r="3" fill="#BCBAC4"/>
<circle cx="310" cy="36" r="3" fill="#BCBAC4"/>
<path d="M313 105C313 106.657 311.657 108 310 108C308.343 108 307 106.657 307 105C307 103.343 308.343 102 310 102C311.657 102 313 103.343 313 105Z" fill="#BCBAC4"/>
<circle cx="310" cy="182" r="3" fill="#BCBAC4"/>
<defs>
<filter id="filter0_b" x="311" y="12" width="130" height="45" filterUnits="userSpaceOnUse" color-interpolation-filters="sRGB">
<feFlood flood-opacity="0" result="BackgroundImageFix"/>
<feGaussianBlur in="BackgroundImage" stdDeviation="1"/>
<feComposite in2="SourceAlpha" operator="in" result="effect1_backgroundBlur"/>
<feBlend mode="normal" in="SourceGraphic" in2="effect1_backgroundBlur" result="shape"/>
</filter>
<filter id="filter1_b" x="311" y="82" width="130" height="45" filterUnits="userSpaceOnUse" color-interpolation-filters="sRGB">
<feFlood flood-opacity="0" result="BackgroundImageFix"/>
<feGaussianBlur in="BackgroundImage" stdDeviation="1"/>
<feComposite in2="SourceAlpha" operator="in" result="effect1_backgroundBlur"/>
<feBlend mode="normal" in="SourceGraphic" in2="effect1_backgroundBlur" result="shape"/>
</filter>
<filter id="filter2_b" x="311" y="161" width="130" height="45" filterUnits="userSpaceOnUse" color-interpolation-filters="sRGB">
<feFlood flood-opacity="0" result="BackgroundImageFix"/>
<feGaussianBlur in="BackgroundImage" stdDeviation="1"/>
<feComposite in2="SourceAlpha" operator="in" result="effect1_backgroundBlur"/>
<feBlend mode="normal" in="SourceGraphic" in2="effect1_backgroundBlur" result="shape"/>
</filter>
<filter id="filter3_b" x="-2" y="-2" width="195" height="284" filterUnits="userSpaceOnUse" color-interpolation-filters="sRGB">
<feFlood flood-opacity="0" result="BackgroundImageFix"/>
<feGaussianBlur in="BackgroundImage" stdDeviation="1"/>
<feComposite in2="SourceAlpha" operator="in" result="effect1_backgroundBlur"/>
<feBlend mode="normal" in="SourceGraphic" in2="effect1_backgroundBlur" result="shape"/>
</filter>
<filter id="filter4_b" x="125" y="12" width="53.6538" height="45.0183" filterUnits="userSpaceOnUse" color-interpolation-filters="sRGB">
<feFlood flood-opacity="0" result="BackgroundImageFix"/>
<feGaussianBlur in="BackgroundImage" stdDeviation="1"/>
<feComposite in2="SourceAlpha" operator="in" result="effect1_backgroundBlur"/>
<feBlend mode="normal" in="SourceGraphic" in2="effect1_backgroundBlur" result="shape"/>
</filter>
<filter id="filter5_b" x="125" y="12" width="53.6538" height="45.0183" filterUnits="userSpaceOnUse" color-interpolation-filters="sRGB">
<feFlood flood-opacity="0" result="BackgroundImageFix"/>
<feGaussianBlur in="BackgroundImage" stdDeviation="1"/>
<feComposite in2="SourceAlpha" operator="in" result="effect1_backgroundBlur"/>
<feBlend mode="normal" in="SourceGraphic" in2="effect1_backgroundBlur" result="shape"/>
</filter>
<filter id="filter6_b" x="125" y="82.0183" width="53.6538" height="45.0183" filterUnits="userSpaceOnUse" color-interpolation-filters="sRGB">
<feFlood flood-opacity="0" result="BackgroundImageFix"/>
<feGaussianBlur in="BackgroundImage" stdDeviation="1"/>
<feComposite in2="SourceAlpha" operator="in" result="effect1_backgroundBlur"/>
<feBlend mode="normal" in="SourceGraphic" in2="effect1_backgroundBlur" result="shape"/>
</filter>
<filter id="filter7_b" x="125" y="82.0183" width="53.6538" height="45.0183" filterUnits="userSpaceOnUse" color-interpolation-filters="sRGB">
<feFlood flood-opacity="0" result="BackgroundImageFix"/>
<feGaussianBlur in="BackgroundImage" stdDeviation="1"/>
<feComposite in2="SourceAlpha" operator="in" result="effect1_backgroundBlur"/>
<feBlend mode="normal" in="SourceGraphic" in2="effect1_backgroundBlur" result="shape"/>
</filter>
<filter id="filter8_b" x="125" y="159" width="53.6538" height="45.0183" filterUnits="userSpaceOnUse" color-interpolation-filters="sRGB">
<feFlood flood-opacity="0" result="BackgroundImageFix"/>
<feGaussianBlur in="BackgroundImage" stdDeviation="1"/>
<feComposite in2="SourceAlpha" operator="in" result="effect1_backgroundBlur"/>
<feBlend mode="normal" in="SourceGraphic" in2="effect1_backgroundBlur" result="shape"/>
</filter>
<filter id="filter9_b" x="125" y="159" width="53.6538" height="45.0183" filterUnits="userSpaceOnUse" color-interpolation-filters="sRGB">
<feFlood flood-opacity="0" result="BackgroundImageFix"/>
<feGaussianBlur in="BackgroundImage" stdDeviation="1"/>
<feComposite in2="SourceAlpha" operator="in" result="effect1_backgroundBlur"/>
<feBlend mode="normal" in="SourceGraphic" in2="effect1_backgroundBlur" result="shape"/>
</filter>
<filter id="filter10_b" x="125" y="223" width="53.6538" height="45.0183" filterUnits="userSpaceOnUse" color-interpolation-filters="sRGB">
<feFlood flood-opacity="0" result="BackgroundImageFix"/>
<feGaussianBlur in="BackgroundImage" stdDeviation="1"/>
<feComposite in2="SourceAlpha" operator="in" result="effect1_backgroundBlur"/>
<feBlend mode="normal" in="SourceGraphic" in2="effect1_backgroundBlur" result="shape"/>
</filter>
<filter id="filter11_b" x="125" y="223" width="53.6538" height="45.0183" filterUnits="userSpaceOnUse" color-interpolation-filters="sRGB">
<feFlood flood-opacity="0" result="BackgroundImageFix"/>
<feGaussianBlur in="BackgroundImage" stdDeviation="1"/>
<feComposite in2="SourceAlpha" operator="in" result="effect1_backgroundBlur"/>
<feBlend mode="normal" in="SourceGraphic" in2="effect1_backgroundBlur" result="shape"/>
</filter>
<filter id="filter12_b" x="10" y="82" width="49" height="122" filterUnits="userSpaceOnUse" color-interpolation-filters="sRGB">
<feFlood flood-opacity="0" result="BackgroundImageFix"/>
<feGaussianBlur in="BackgroundImage" stdDeviation="1"/>
<feComposite in2="SourceAlpha" operator="in" result="effect1_backgroundBlur"/>
<feBlend mode="normal" in="SourceGraphic" in2="effect1_backgroundBlur" result="shape"/>
</filter>
<linearGradient id="paint0_linear" x1="376" y1="24" x2="376" y2="54" gradientUnits="userSpaceOnUse">
<stop stop-color="#FFEA7A" stop-opacity="0.33"/>
<stop offset="1" stop-color="#C4C4C4" stop-opacity="0"/>
</linearGradient>
<linearGradient id="paint1_linear" x1="376" y1="93.5" x2="376" y2="124.5" gradientUnits="userSpaceOnUse">
<stop stop-color="#7AB7FF" stop-opacity="0.33"/>
<stop offset="1" stop-color="#C4C4C4" stop-opacity="0"/>
</linearGradient>
<linearGradient id="paint2_linear" x1="376" y1="172" x2="376" y2="203" gradientUnits="userSpaceOnUse">
<stop stop-color="#5736DD" stop-opacity="0.33"/>
<stop offset="1" stop-color="#C4C4C4" stop-opacity="0"/>
</linearGradient>
<clipPath id="clip0">
<rect width="124" height="30" fill="white" transform="translate(314 24)"/>
</clipPath>
<clipPath id="clip1">
<rect width="124" height="31" fill="white" transform="translate(314 94)"/>
</clipPath>
<clipPath id="clip2">
<rect width="124" height="29" fill="white" transform="translate(314 174)"/>
</clipPath>
</defs>
</svg>
