<svg width="313" height="280" viewBox="0 0 313 280" fill="none" xmlns="http://www.w3.org/2000/svg">
<path d="M240.322 29.2734H237.269L236.735 31H234.355L237.745 21.7578H239.839L243.254 31H240.861L240.322 29.2734ZM237.802 27.5532H239.789L238.792 24.3477L237.802 27.5532ZM246.162 27.8643V31H243.934V21.7578H247.622C248.328 21.7578 248.952 21.889 249.494 22.1514C250.04 22.4095 250.461 22.7798 250.757 23.2622C251.058 23.7404 251.208 24.2842 251.208 24.8936C251.208 25.7949 250.884 26.5164 250.237 27.0581C249.594 27.5955 248.709 27.8643 247.583 27.8643H246.162ZM246.162 26.144H247.622C248.053 26.144 248.381 26.0361 248.605 25.8203C248.834 25.6045 248.948 25.2998 248.948 24.9062C248.948 24.4746 248.832 24.1297 248.599 23.8716C248.366 23.6134 248.049 23.4823 247.647 23.478H246.162V26.144ZM254.775 31H252.554V21.7578H254.775V31Z" fill="white"/>
<path d="M240.322 98.2734H237.269L236.735 100H234.355L237.745 90.7578H239.839L243.254 100H240.861L240.322 98.2734ZM237.802 96.5532H239.789L238.792 93.3477L237.802 96.5532ZM246.162 96.8643V100H243.934V90.7578H247.622C248.328 90.7578 248.952 90.889 249.494 91.1514C250.04 91.4095 250.461 91.7798 250.757 92.2622C251.058 92.7404 251.208 93.2842 251.208 93.8936C251.208 94.7949 250.884 95.5164 250.237 96.0581C249.594 96.5955 248.709 96.8643 247.583 96.8643H246.162ZM246.162 95.144H247.622C248.053 95.144 248.381 95.0361 248.605 94.8203C248.834 94.6045 248.948 94.2998 248.948 93.9062C248.948 93.4746 248.832 93.1297 248.599 92.8716C248.366 92.6134 248.049 92.4823 247.647 92.478H246.162V95.144ZM254.775 100H252.554V90.7578H254.775V100Z" fill="white"/>
<path d="M240.322 176.273H237.269L236.735 178H234.355L237.745 168.758H239.839L243.254 178H240.861L240.322 176.273ZM237.802 174.553H239.789L238.792 171.348L237.802 174.553ZM246.162 174.864V178H243.934V168.758H247.622C248.328 168.758 248.952 168.889 249.494 169.151C250.04 169.41 250.461 169.78 250.757 170.262C251.058 170.74 251.208 171.284 251.208 171.894C251.208 172.795 250.884 173.516 250.237 174.058C249.594 174.596 248.709 174.864 247.583 174.864H246.162ZM246.162 173.144H247.622C248.053 173.144 248.381 173.036 248.605 172.82C248.834 172.604 248.948 172.3 248.948 171.906C248.948 171.475 248.832 171.13 248.599 170.872C248.366 170.613 248.049 170.482 247.647 170.478H246.162V173.144ZM254.775 178H252.554V168.758H254.775V178Z" fill="white"/>
<g filter="url(#filter0_b)">
<rect width="191" height="280" fill="#052E5E" fill-opacity="0.29"/>
<rect x="0.5" y="0.5" width="190" height="279" stroke="#194170"/>
</g>
<g filter="url(#filter1_b)">
<rect x="127" y="14" width="49.6538" height="41.0183" rx="5" fill="#EEE979" fill-opacity="0.24"/>
<rect x="127.5" y="14.5" width="48.6538" height="40.0183" rx="4.5" stroke="#E8E8ED" stroke-opacity="0.19"/>
</g>
<g filter="url(#filter2_b)">
<path d="M127 19C127 16.2386 129.239 14 132 14H136.376C138.242 14 139.953 15.0395 140.813 16.6959L142.871 20.6591C143.731 22.3156 145.442 23.3551 147.309 23.3551H171.654C174.415 23.3551 176.654 25.5936 176.654 28.3551V50.0183C176.654 52.7798 174.415 55.0183 171.654 55.0183H132C129.239 55.0183 127 52.7798 127 50.0183V19Z" fill="#EEE979" fill-opacity="0.24"/>
<path d="M127.5 19C127.5 16.5147 129.515 14.5 132 14.5H136.376C138.056 14.5 139.595 15.4356 140.37 16.9263L142.427 20.8895C143.373 22.7116 145.256 23.8551 147.309 23.8551H171.654C174.139 23.8551 176.154 25.8698 176.154 28.3551V50.0183C176.154 52.5036 174.139 54.5183 171.654 54.5183H132C129.515 54.5183 127.5 52.5036 127.5 50.0183V19Z" stroke="#E8E8ED" stroke-opacity="0.19"/>
</g>
<path d="M136.729 39.7437V43H134.825V33.7578H138.431C139.125 33.7578 139.734 33.8848 140.259 34.1387C140.788 34.3926 141.194 34.7544 141.478 35.2241C141.761 35.6896 141.903 36.2207 141.903 36.8174C141.903 37.723 141.592 38.4382 140.97 38.9629C140.352 39.4834 139.495 39.7437 138.399 39.7437H136.729ZM136.729 38.2012H138.431C138.934 38.2012 139.317 38.0827 139.58 37.8457C139.846 37.6087 139.979 37.2702 139.979 36.8301C139.979 36.3773 139.846 36.0112 139.58 35.7319C139.313 35.4526 138.945 35.3088 138.475 35.3003H136.729V38.2012ZM146.111 39.293L145.121 40.3594V43H143.217V33.7578H145.121V37.9473L145.959 36.7983L148.314 33.7578H150.656L147.375 37.8647L150.751 43H148.485L146.111 39.293ZM158.578 41.832C158.235 42.2425 157.751 42.562 157.125 42.7905C156.498 43.0148 155.804 43.127 155.042 43.127C154.243 43.127 153.54 42.9535 152.935 42.6064C152.334 42.2552 151.869 41.7474 151.539 41.083C151.213 40.4186 151.046 39.6379 151.037 38.7407V38.1123C151.037 37.1898 151.192 36.3921 151.5 35.7192C151.814 35.0422 152.262 34.5259 152.846 34.1704C153.434 33.8107 154.122 33.6309 154.909 33.6309C156.005 33.6309 156.862 33.8932 157.48 34.418C158.098 34.9385 158.464 35.6981 158.578 36.6968H156.725C156.64 36.1678 156.452 35.7806 156.16 35.5352C155.872 35.2897 155.474 35.167 154.966 35.167C154.319 35.167 153.826 35.4103 153.487 35.897C153.149 36.3836 152.977 37.1073 152.973 38.0679V38.6582C152.973 39.6273 153.157 40.3594 153.525 40.8545C153.894 41.3496 154.433 41.5972 155.144 41.5972C155.859 41.5972 156.369 41.4448 156.674 41.1401V39.5469H154.941V38.144H158.578V41.832ZM167.624 43H165.789V35.9287L163.599 36.6079V35.1162L167.427 33.7451H167.624V43Z" fill="white"/>
<g filter="url(#filter3_b)">
<rect x="127" y="84.0183" width="49.6538" height="41.0183" rx="5" fill="#6A9AF6" fill-opacity="0.24"/>
<rect x="127.5" y="84.5183" width="48.6538" height="40.0183" rx="4.5" stroke="#E8E8ED" stroke-opacity="0.19"/>
</g>
<g filter="url(#filter4_b)">
<path d="M127 89.0183C127 86.2569 129.239 84.0183 132 84.0183H136.376C138.242 84.0183 139.953 85.0578 140.813 86.7142L142.871 90.6774C143.731 92.3339 145.442 93.3734 147.309 93.3734H171.654C174.415 93.3734 176.654 95.6119 176.654 98.3734V120.037C176.654 122.798 174.415 125.037 171.654 125.037H132C129.239 125.037 127 122.798 127 120.037V89.0183Z" fill="#6A9AF6" fill-opacity="0.24"/>
<path d="M127.5 89.0183C127.5 86.533 129.515 84.5183 132 84.5183H136.376C138.056 84.5183 139.595 85.4539 140.37 86.9446L142.427 90.9079C143.373 92.7299 145.256 93.8734 147.309 93.8734H171.654C174.139 93.8734 176.154 95.8881 176.154 98.3734V120.037C176.154 122.522 174.139 124.537 171.654 124.537H132C129.515 124.537 127.5 122.522 127.5 120.037V89.0183Z" stroke="#E8E8ED" stroke-opacity="0.19"/>
</g>
<g filter="url(#filter5_b)">
<rect x="127" y="161" width="49.6538" height="41.0183" rx="5" fill="#9179EE" fill-opacity="0.24"/>
<rect x="127.5" y="161.5" width="48.6538" height="40.0183" rx="4.5" stroke="#E8E8ED" stroke-opacity="0.19"/>
</g>
<g filter="url(#filter6_b)">
<path d="M127 166C127 163.239 129.239 161 132 161H136.376C138.242 161 139.953 162.04 140.813 163.696L142.871 167.659C143.731 169.316 145.442 170.355 147.309 170.355H171.654C174.415 170.355 176.654 172.594 176.654 175.355V197.018C176.654 199.78 174.415 202.018 171.654 202.018H132C129.239 202.018 127 199.78 127 197.018V166Z" fill="#9179EE" fill-opacity="0.24"/>
<path d="M127.5 166C127.5 163.515 129.515 161.5 132 161.5H136.376C138.056 161.5 139.595 162.436 140.37 163.926L142.427 167.89C143.373 169.712 145.256 170.855 147.309 170.855H171.654C174.139 170.855 176.154 172.87 176.154 175.355V197.018C176.154 199.504 174.139 201.518 171.654 201.518H132C129.515 201.518 127.5 199.504 127.5 197.018V166Z" stroke="#E8E8ED" stroke-opacity="0.19"/>
</g>
<g filter="url(#filter7_b)">
<rect x="127" y="225" width="49.6538" height="41.0183" rx="5" fill="#DDDDDD" fill-opacity="0.24"/>
<rect x="127.5" y="225.5" width="48.6538" height="40.0183" rx="4.5" stroke="#E8E8ED" stroke-opacity="0.19"/>
</g>
<g filter="url(#filter8_b)">
<path d="M127 230C127 227.239 129.239 225 132 225H136.376C138.242 225 139.953 226.04 140.813 227.696L142.871 231.659C143.731 233.316 145.442 234.355 147.309 234.355H171.654C174.415 234.355 176.654 236.594 176.654 239.355V261.018C176.654 263.78 174.415 266.018 171.654 266.018H132C129.239 266.018 127 263.78 127 261.018V230Z" fill="#DDDDDD" fill-opacity="0.24"/>
<path d="M127.5 230C127.5 227.515 129.515 225.5 132 225.5H136.376C138.056 225.5 139.595 226.436 140.37 227.926L142.427 231.89C143.373 233.712 145.256 234.855 147.309 234.855H171.654C174.139 234.855 176.154 236.87 176.154 239.355V261.018C176.154 263.504 174.139 265.518 171.654 265.518H132C129.515 265.518 127.5 263.504 127.5 261.018V230Z" stroke="#E8E8ED" stroke-opacity="0.19"/>
</g>
<path d="M138.41 247.827H140.701V249.483H138.41V252.073H136.664V249.483H134.366V247.827H136.664V245.345H138.41V247.827ZM150.381 251.096H147.042L146.408 253H144.383L147.823 243.758H149.588L153.047 253H151.022L150.381 251.096ZM147.557 249.553H149.867L148.706 246.094L147.557 249.553ZM153.911 253V243.758H156.754C157.567 243.758 158.293 243.942 158.932 244.31C159.575 244.674 160.076 245.194 160.436 245.872C160.796 246.544 160.976 247.31 160.976 248.169V248.595C160.976 249.454 160.798 250.218 160.442 250.886C160.091 251.555 159.594 252.073 158.951 252.441C158.307 252.81 157.582 252.996 156.773 253H153.911ZM155.815 245.3V251.47H156.735C157.48 251.47 158.049 251.227 158.443 250.74C158.836 250.254 159.037 249.557 159.046 248.652V248.163C159.046 247.224 158.851 246.513 158.462 246.03C158.073 245.544 157.503 245.3 156.754 245.3H155.815ZM162.366 253V243.758H165.209C166.022 243.758 166.748 243.942 167.387 244.31C168.03 244.674 168.531 245.194 168.891 245.872C169.251 246.544 169.431 247.31 169.431 248.169V248.595C169.431 249.454 169.253 250.218 168.897 250.886C168.546 251.555 168.049 252.073 167.406 252.441C166.763 252.81 166.037 252.996 165.229 253H162.366ZM164.27 245.3V251.47H165.19C165.935 251.47 166.504 251.227 166.898 250.74C167.292 250.254 167.493 249.557 167.501 248.652V248.163C167.501 247.224 167.306 246.513 166.917 246.03C166.528 245.544 165.958 245.3 165.209 245.3H164.27Z" fill="white"/>
<g filter="url(#filter9_b)">
<rect x="12" y="84" width="45" height="118" fill="#052E5E"/>
<rect x="12.5" y="84.5" width="44" height="117" stroke="#194170"/>
</g>
<path d="M36.8887 169.95C36.5013 169.95 36.2051 170.087 36 170.36C35.7904 170.634 35.5716 171.126 35.3437 171.837C35.1113 172.548 34.8835 173.111 34.6602 173.525C34.0495 174.656 33.2269 175.221 32.1924 175.221C31.6546 175.221 31.1761 175.07 30.7568 174.77C30.333 174.464 30.0026 174.029 29.7656 173.464C29.5286 172.894 29.4102 172.256 29.4102 171.55C29.4102 170.839 29.54 170.205 29.7998 169.649C30.055 169.093 30.4173 168.663 30.8867 168.357C31.3561 168.048 31.8893 167.893 32.4863 167.893L32.4863 169.943C32.0306 169.943 31.6774 170.087 31.4268 170.374C31.1715 170.661 31.0439 171.064 31.0439 171.584C31.0439 172.085 31.151 172.475 31.3652 172.753C31.5749 173.031 31.8529 173.17 32.1992 173.17C32.5228 173.17 32.7939 173.008 33.0127 172.685C33.2314 172.356 33.4365 171.876 33.6279 171.242C33.9788 170.076 34.4141 169.226 34.9336 168.692C35.4531 168.159 36.1003 167.893 36.875 167.893C37.7363 167.893 38.4131 168.218 38.9053 168.87C39.3929 169.522 39.6367 170.399 39.6367 171.502C39.6367 172.268 39.4977 172.965 39.2197 173.594C38.9372 174.223 38.5521 174.703 38.0645 175.036C37.5768 175.364 37.0117 175.528 36.3691 175.528L36.3691 173.471C37.4674 173.471 38.0166 172.814 38.0166 171.502C38.0166 171.014 37.9186 170.634 37.7227 170.36C37.5221 170.087 37.2441 169.95 36.8887 169.95ZM31.208 159.006L31.208 162.055L39.5 162.055L39.5 164.105L31.208 164.105L31.208 167.113L29.5469 167.113L29.5469 159.006L31.208 159.006ZM35.8564 154.146L35.8564 155.779L39.5 155.779L39.5 157.83L29.5469 157.83L29.5469 154.132C29.5469 152.956 29.8089 152.049 30.333 151.411C30.8571 150.773 31.5977 150.454 32.5547 150.454C33.2337 150.454 33.8011 150.602 34.2568 150.898C34.708 151.19 35.068 151.634 35.3369 152.231L39.4043 150.078L39.5 150.078L39.5 152.279L35.8564 154.146ZM34.1953 155.779L34.1953 154.125C34.1953 153.61 34.0654 153.211 33.8057 152.929C33.5413 152.646 33.179 152.505 32.7187 152.505C32.2493 152.505 31.8802 152.639 31.6113 152.908C31.3424 153.173 31.208 153.58 31.208 154.132L31.208 155.779L34.1953 155.779ZM37.4492 143.27L37.4492 146.865L39.5 147.549L39.5 149.729L29.5469 146.024L29.5469 144.124L39.5 140.398L39.5 142.579L37.4492 143.27ZM35.7881 146.312L35.7881 143.823L32.0625 145.074L35.7881 146.312ZM31.208 132.797L31.208 135.846L39.5 135.846L39.5 137.896L31.208 137.896L31.208 140.904L29.5469 140.904L29.5469 132.797L31.208 132.797ZM35.1865 125.633L35.1865 129.57L37.8525 129.57L37.8525 124.949L39.5 124.949L39.5 131.621L29.5469 131.621L29.5469 124.963L31.208 124.963L31.208 129.57L33.5801 129.57L33.5801 125.633L35.1865 125.633ZM38.2422 115.871C38.6842 116.24 39.0283 116.762 39.2744 117.437C39.5159 118.111 39.6367 118.858 39.6367 119.679C39.6367 120.54 39.4499 121.297 39.0762 121.948C38.6979 122.595 38.151 123.097 37.4355 123.452C36.72 123.803 35.8792 123.983 34.9131 123.992L34.2363 123.992C33.2428 123.992 32.3838 123.826 31.6592 123.493C30.93 123.156 30.374 122.673 29.9912 122.044C29.6038 121.41 29.4102 120.67 29.4102 119.822C29.4102 118.642 29.6927 117.719 30.2578 117.054C30.8184 116.388 31.6364 115.994 32.7119 115.871L32.7119 117.867C32.1423 117.958 31.7253 118.161 31.4609 118.476C31.1966 118.785 31.0645 119.214 31.0645 119.761C31.0645 120.458 31.3265 120.989 31.8506 121.354C32.3747 121.718 33.154 121.903 34.1885 121.907L34.8242 121.907C35.8678 121.907 36.6562 121.709 37.1895 121.312C37.7227 120.916 37.9893 120.335 37.9893 119.569C37.9893 118.799 37.8252 118.25 37.4971 117.922L35.7812 117.922L35.7812 119.788L34.2705 119.788L34.2705 115.871L38.2422 115.871ZM34.0312 110.771L29.5469 108.7L29.5469 106.458L35.8906 109.726L39.5 109.726L39.5 111.811L35.8906 111.811L29.5469 115.078L29.5469 112.829L34.0312 110.771Z" fill="white"/>
<path d="M126.5 247H96C93.2386 247 91 244.761 91 242V167.5C91 164.739 88.7614 162.5 86 162.5H73" stroke="white" stroke-opacity="0.5" stroke-dasharray="7 7"/>
<path d="M126.5 36H96C93.2386 36 91 38.2386 91 41V114.5C91 117.261 88.7614 119.5 86 119.5H73" stroke="white" stroke-opacity="0.7"/>
<path d="M127 105H110.842C108.081 105 105.842 107.239 105.842 110V132C105.842 134.761 103.604 137 100.842 137H73" stroke="white" stroke-opacity="0.7"/>
<path d="M127 182H110.842C108.081 182 105.842 179.761 105.842 177V155C105.842 152.239 103.604 150 100.842 150H73" stroke="white" stroke-opacity="0.7"/>
<line x1="177" y1="35.5" x2="313" y2="35.5" stroke="white" stroke-opacity="0.7"/>
<line x1="177" y1="104.5" x2="313" y2="104.5" stroke="white" stroke-opacity="0.7"/>
<line x1="177" y1="181.5" x2="313" y2="181.5" stroke="white" stroke-opacity="0.7"/>
<path d="M136.729 109.744V113H134.825V103.758H138.431C139.125 103.758 139.734 103.885 140.259 104.139C140.788 104.393 141.194 104.754 141.478 105.224C141.761 105.69 141.903 106.221 141.903 106.817C141.903 107.723 141.592 108.438 140.97 108.963C140.352 109.483 139.495 109.744 138.399 109.744H136.729ZM136.729 108.201H138.431C138.934 108.201 139.317 108.083 139.58 107.846C139.846 107.609 139.979 107.27 139.979 106.83C139.979 106.377 139.846 106.011 139.58 105.732C139.313 105.453 138.945 105.309 138.475 105.3H136.729V108.201ZM146.111 109.293L145.121 110.359V113H143.217V103.758H145.121V107.947L145.959 106.798L148.314 103.758H150.656L147.375 107.865L150.751 113H148.485L146.111 109.293ZM158.578 111.832C158.235 112.243 157.751 112.562 157.125 112.791C156.498 113.015 155.804 113.127 155.042 113.127C154.243 113.127 153.54 112.953 152.935 112.606C152.334 112.255 151.869 111.747 151.539 111.083C151.213 110.419 151.046 109.638 151.037 108.741V108.112C151.037 107.19 151.192 106.392 151.5 105.719C151.814 105.042 152.262 104.526 152.846 104.17C153.434 103.811 154.122 103.631 154.909 103.631C156.005 103.631 156.862 103.893 157.48 104.418C158.098 104.938 158.464 105.698 158.578 106.697H156.725C156.64 106.168 156.452 105.781 156.16 105.535C155.872 105.29 155.474 105.167 154.966 105.167C154.319 105.167 153.826 105.41 153.487 105.897C153.149 106.384 152.977 107.107 152.973 108.068V108.658C152.973 109.627 153.157 110.359 153.525 110.854C153.894 111.35 154.433 111.597 155.144 111.597C155.859 111.597 156.369 111.445 156.674 111.14V109.547H154.941V108.144H158.578V111.832ZM167.624 113H165.789V105.929L163.599 106.608V105.116L167.427 103.745H167.624V113Z" fill="white"/>
<path d="M136.729 184.744V188H134.825V178.758H138.431C139.125 178.758 139.734 178.885 140.259 179.139C140.788 179.393 141.194 179.754 141.478 180.224C141.761 180.69 141.903 181.221 141.903 181.817C141.903 182.723 141.592 183.438 140.97 183.963C140.352 184.483 139.495 184.744 138.399 184.744H136.729ZM136.729 183.201H138.431C138.934 183.201 139.317 183.083 139.58 182.846C139.846 182.609 139.979 182.27 139.979 181.83C139.979 181.377 139.846 181.011 139.58 180.732C139.313 180.453 138.945 180.309 138.475 180.3H136.729V183.201ZM146.111 184.293L145.121 185.359V188H143.217V178.758H145.121V182.947L145.959 181.798L148.314 178.758H150.656L147.375 182.865L150.751 188H148.485L146.111 184.293ZM158.578 186.832C158.235 187.243 157.751 187.562 157.125 187.791C156.498 188.015 155.804 188.127 155.042 188.127C154.243 188.127 153.54 187.953 152.935 187.606C152.334 187.255 151.869 186.747 151.539 186.083C151.213 185.419 151.046 184.638 151.037 183.741V183.112C151.037 182.19 151.192 181.392 151.5 180.719C151.814 180.042 152.262 179.526 152.846 179.17C153.434 178.811 154.122 178.631 154.909 178.631C156.005 178.631 156.862 178.893 157.48 179.418C158.098 179.938 158.464 180.698 158.578 181.697H156.725C156.64 181.168 156.452 180.781 156.16 180.535C155.872 180.29 155.474 180.167 154.966 180.167C154.319 180.167 153.826 180.41 153.487 180.897C153.149 181.384 152.977 182.107 152.973 183.068V183.658C152.973 184.627 153.157 185.359 153.525 185.854C153.894 186.35 154.433 186.597 155.144 186.597C155.859 186.597 156.369 186.445 156.674 186.14V184.547H154.941V183.144H158.578V186.832ZM167.624 188H165.789V180.929L163.599 181.608V180.116L167.427 178.745H167.624V188Z" fill="white"/>
<circle cx="124" cy="36" r="3" fill="#BCBAC4"/>
<circle cx="180" cy="36" r="3" fill="#BCBAC4"/>
<circle cx="124" cy="105" r="3" fill="#BCBAC4"/>
<circle cx="180" cy="105" r="3" fill="#BCBAC4"/>
<circle cx="124" cy="182" r="3" fill="#BCBAC4"/>
<circle cx="180" cy="182" r="3" fill="#BCBAC4"/>
<circle cx="310" cy="36" r="3" fill="#BCBAC4"/>
<path d="M313 105C313 106.657 311.657 108 310 108C308.343 108 307 106.657 307 105C307 103.343 308.343 102 310 102C311.657 102 313 103.343 313 105Z" fill="#BCBAC4"/>
<circle cx="310" cy="182" r="3" fill="#BCBAC4"/>
<defs>
<filter id="filter0_b" x="-2" y="-2" width="195" height="284" filterUnits="userSpaceOnUse" color-interpolation-filters="sRGB">
<feFlood flood-opacity="0" result="BackgroundImageFix"/>
<feGaussianBlur in="BackgroundImage" stdDeviation="1"/>
<feComposite in2="SourceAlpha" operator="in" result="effect1_backgroundBlur"/>
<feBlend mode="normal" in="SourceGraphic" in2="effect1_backgroundBlur" result="shape"/>
</filter>
<filter id="filter1_b" x="125" y="12" width="53.6538" height="45.0183" filterUnits="userSpaceOnUse" color-interpolation-filters="sRGB">
<feFlood flood-opacity="0" result="BackgroundImageFix"/>
<feGaussianBlur in="BackgroundImage" stdDeviation="1"/>
<feComposite in2="SourceAlpha" operator="in" result="effect1_backgroundBlur"/>
<feBlend mode="normal" in="SourceGraphic" in2="effect1_backgroundBlur" result="shape"/>
</filter>
<filter id="filter2_b" x="125" y="12" width="53.6538" height="45.0183" filterUnits="userSpaceOnUse" color-interpolation-filters="sRGB">
<feFlood flood-opacity="0" result="BackgroundImageFix"/>
<feGaussianBlur in="BackgroundImage" stdDeviation="1"/>
<feComposite in2="SourceAlpha" operator="in" result="effect1_backgroundBlur"/>
<feBlend mode="normal" in="SourceGraphic" in2="effect1_backgroundBlur" result="shape"/>
</filter>
<filter id="filter3_b" x="125" y="82.0183" width="53.6538" height="45.0183" filterUnits="userSpaceOnUse" color-interpolation-filters="sRGB">
<feFlood flood-opacity="0" result="BackgroundImageFix"/>
<feGaussianBlur in="BackgroundImage" stdDeviation="1"/>
<feComposite in2="SourceAlpha" operator="in" result="effect1_backgroundBlur"/>
<feBlend mode="normal" in="SourceGraphic" in2="effect1_backgroundBlur" result="shape"/>
</filter>
<filter id="filter4_b" x="125" y="82.0183" width="53.6538" height="45.0183" filterUnits="userSpaceOnUse" color-interpolation-filters="sRGB">
<feFlood flood-opacity="0" result="BackgroundImageFix"/>
<feGaussianBlur in="BackgroundImage" stdDeviation="1"/>
<feComposite in2="SourceAlpha" operator="in" result="effect1_backgroundBlur"/>
<feBlend mode="normal" in="SourceGraphic" in2="effect1_backgroundBlur" result="shape"/>
</filter>
<filter id="filter5_b" x="125" y="159" width="53.6538" height="45.0183" filterUnits="userSpaceOnUse" color-interpolation-filters="sRGB">
<feFlood flood-opacity="0" result="BackgroundImageFix"/>
<feGaussianBlur in="BackgroundImage" stdDeviation="1"/>
<feComposite in2="SourceAlpha" operator="in" result="effect1_backgroundBlur"/>
<feBlend mode="normal" in="SourceGraphic" in2="effect1_backgroundBlur" result="shape"/>
</filter>
<filter id="filter6_b" x="125" y="159" width="53.6538" height="45.0183" filterUnits="userSpaceOnUse" color-interpolation-filters="sRGB">
<feFlood flood-opacity="0" result="BackgroundImageFix"/>
<feGaussianBlur in="BackgroundImage" stdDeviation="1"/>
<feComposite in2="SourceAlpha" operator="in" result="effect1_backgroundBlur"/>
<feBlend mode="normal" in="SourceGraphic" in2="effect1_backgroundBlur" result="shape"/>
</filter>
<filter id="filter7_b" x="125" y="223" width="53.6538" height="45.0183" filterUnits="userSpaceOnUse" color-interpolation-filters="sRGB">
<feFlood flood-opacity="0" result="BackgroundImageFix"/>
<feGaussianBlur in="BackgroundImage" stdDeviation="1"/>
<feComposite in2="SourceAlpha" operator="in" result="effect1_backgroundBlur"/>
<feBlend mode="normal" in="SourceGraphic" in2="effect1_backgroundBlur" result="shape"/>
</filter>
<filter id="filter8_b" x="125" y="223" width="53.6538" height="45.0183" filterUnits="userSpaceOnUse" color-interpolation-filters="sRGB">
<feFlood flood-opacity="0" result="BackgroundImageFix"/>
<feGaussianBlur in="BackgroundImage" stdDeviation="1"/>
<feComposite in2="SourceAlpha" operator="in" result="effect1_backgroundBlur"/>
<feBlend mode="normal" in="SourceGraphic" in2="effect1_backgroundBlur" result="shape"/>
</filter>
<filter id="filter9_b" x="10" y="82" width="49" height="122" filterUnits="userSpaceOnUse" color-interpolation-filters="sRGB">
<feFlood flood-opacity="0" result="BackgroundImageFix"/>
<feGaussianBlur in="BackgroundImage" stdDeviation="1"/>
<feComposite in2="SourceAlpha" operator="in" result="effect1_backgroundBlur"/>
<feBlend mode="normal" in="SourceGraphic" in2="effect1_backgroundBlur" result="shape"/>
</filter>
</defs>
</svg>
